<svg xmlns="http://www.w3.org/2000/svg" viewBox="0 0 1500 400" xmlns:v="https://vecta.io/nano"><defs><clipPath id="A"><path d="M-54-1h1608v402H-54z" fill="none"/></clipPath><radialGradient id="B" cx="356.52" cy="122.59" fx="356.52" fy="122.59" r="715.93" gradientTransform="translate(329.45 55.39) scale(1.18)" gradientUnits="userSpaceOnUse"><stop offset="0" stop-color="#1c75bc"/><stop offset="1" stop-color="#0b1946"/></radialGradient><linearGradient id="C" x1="2234.22" y1="1274.84" x2="1812.89" y2="1076.87" gradientTransform="translate(1776.84 -1154.86) rotate(106.69) scale(.87 1)" gradientUnits="userSpaceOnUse"><stop offset="0" stop-color="#1c75bc"/><stop offset="1" stop-color="#0b1946"/></linearGradient><linearGradient id="D" x1="2241.82" y1="1278.68" x2="1812.14" y2="1076.77" href="#C"/><linearGradient id="E" x1="2248.32" y1="1281.69" x2="1786.52" y2="1064.69" href="#C"/><linearGradient id="F" x1="2253.67" y1="1283.85" x2="1759.6" y2="1051.69" href="#C"/><linearGradient id="G" x1="2257.83" y1="1285.14" x2="1731.62" y2="1037.88" href="#C"/><linearGradient id="H" x1="2260.74" y1="1285.55" x2="1702.82" y2="1023.39" href="#C"/><linearGradient id="I" x1="2262.28" y1="1285.09" x2="1674.54" y2="1008.91" href="#C"/><linearGradient id="J" x1="2262.52" y1="1283.66" x2="1647.43" y2="994.64" href="#C"/><linearGradient id="K" x1="2261.48" y1="1281.27" x2="1621.65" y2="980.62" href="#C"/><linearGradient id="L" x1="1683.92" y1="332.33" x2="1262.6" y2="134.36" gradientTransform="translate(1776.84 1362.87) rotate(-106.69) scale(.87 -1)" gradientUnits="userSpaceOnUse"><stop offset="0" stop-color="#0b1946"/><stop offset="1" stop-color="#1c75bc"/></linearGradient><linearGradient id="M" x1="1691.52" y1="336.17" x2="1261.84" y2="134.26" href="#L"/><linearGradient id="N" x1="1698.02" y1="339.18" x2="1236.22" y2="122.18" href="#L"/><linearGradient id="O" x1="1703.37" y1="341.34" x2="1209.3" y2="109.18" href="#L"/><linearGradient id="P" x1="1707.53" y1="342.63" x2="1181.32" y2="95.37" href="#L"/><linearGradient id="Q" x1="1710.44" y1="343.04" x2="1152.52" y2="80.88" href="#L"/><linearGradient id="R" x1="1711.99" y1="342.58" x2="1124.24" y2="66.4" href="#L"/><linearGradient id="S" x1="1712.22" y1="341.15" x2="1097.13" y2="52.13" href="#L"/><linearGradient id="T" x1="1711.18" y1="338.76" x2="1071.35" y2="38.11" href="#L"/></defs><g clip-path="url(#A)"><path d="M-54-1h1608v402H-54z" fill="url(#B)"/><path d="M603.66 403.22c-4.28 14.28-12.24 27.56-25.22 37.77-28.73 22.61-78.78 24.11-121.71 3.64-40.81-19.46-70.41-52.8-93.99-82.84-25.83-32.92-48.87-67.62-70.38-102.84-24.58 24.05-40.51 55.12-42.7 88.89-.48 7.4-.4 15.14-.32 22.63.21 20.39.43 41.47-10.47 58.88-19.75 31.54-70.49 36.7-105.48 21.73-33.77-14.44-60.92-45.08-74.48-84.07-12.08-34.73-12.65-70.69-13.2-105.46l3.71.2c.54 34.53 1.11 70.24 13.02 104.49 13.23 38.02 39.6 67.86 72.34 81.86 33.5 14.33 82.01 9.49 100.82-20.54 10.46-16.69 10.24-37.35 10.03-57.32-.08-7.54-.16-15.34.33-22.85 2.26-34.87 18.89-66.94 44.48-91.61-19.38-31.9-37.53-64.2-55.4-96-22.19-39.48-45.13-80.3-69.87-119.39C81.67-91.53-10.17-176.45-115.58-219.22l1.32-3C-8.03-179.11 84.42-93.69 168.36 38.94c24.79 39.17 47.76 80.03 69.97 119.55l54.71 94.85c30.39-28.06 72.61-45.93 118.2-46.44 86.18-.95 172.51 60.3 192.45 136.54 4.74 18.12 5.92 39.91-.04 59.78zM294.95 256.47c21.63 35.49 44.8 70.44 70.78 103.55 23.29 29.69 52.5 62.61 92.55 81.71 41.58 19.82 89.93 18.47 117.59-3.3 29.92-23.54 32.13-64.24 24.22-94.48-19.53-74.68-104.1-134.68-188.52-133.75-45.07.5-86.79 18.34-116.62 46.27z" fill="url(#C)"/><path d="M584.06 416.34c-4.96 16.55-14.55 31.92-30.61 42.76-30.58 20.65-80.89 19.01-122.34-3.98-39.4-21.86-66.47-56.79-87.76-88.07-23.32-34.28-43.71-70.15-62.51-106.44-26.53 22.33-44.95 52.18-49.79 85.55-1.06 7.32-1.59 15-2.1 22.44-1.39 20.24-2.82 41.18-15.11 57.77-22.28 30.06-73.56 32.01-107.48 14.98-32.73-16.44-57.56-48.54-68.1-88.07-9.39-35.21-7.14-70.93-4.97-105.47l3.7.43c-2.16 34.3-4.4 69.77 4.87 104.5 10.29 38.56 34.39 69.81 66.13 85.75 32.47 16.31 81.49 14.54 102.71-14.09 11.79-15.91 13.2-36.42 14.55-56.26.51-7.49 1.04-15.23 2.12-22.65 5-34.46 24.19-65.25 51.78-88.13-16.93-32.86-32.61-66.05-48.04-98.72-19.16-40.56-38.96-82.5-60.71-122.83C97.02-100.33 11.59-190.33-90.77-239.35l1.56-2.89C13.94-192.84 99.95-102.3 173.74 34.54c21.79 40.42 41.62 82.4 60.79 123l47.43 97.54c32.68-25.95 76.42-41.05 122.18-38.7 86.5 4.43 168.27 70.6 182.29 147.5 2.94 16.14 2.88 34.96-2.37 52.46zM283.63 258.31c18.91 36.57 39.4 72.69 62.86 107.18 21.03 30.91 47.74 65.41 86.41 86.86 40.14 22.27 88.74 23.94 118.18 4.07 31.85-21.5 37.25-61.74 31.69-92.24-13.73-75.33-93.84-140.15-178.57-144.49-45.24-2.32-88.47 12.78-120.58 38.63z" fill="url(#D)"/><path d="M563.55 427.64c-5.68 18.95-17.07 36.66-36.58 47.88-32.29 18.58-82.61 13.81-122.37-11.59-37.8-24.15-62.21-60.5-81.1-92.87-20.7-35.48-38.33-72.33-54.34-109.53-28.35 20.5-49.17 48.97-56.64 81.78-1.64 7.19-2.77 14.79-3.86 22.13-2.98 20-6.05 40.69-19.69 56.39-24.7 28.44-76.28 27.18-108.96 8.15-31.54-18.36-53.91-51.76-61.39-91.64-6.66-35.53-1.61-70.83 3.28-104.97l3.68.66c-4.86 33.9-9.88 68.96-3.31 104 7.29 38.9 29.01 71.42 59.59 89.22 31.29 18.21 80.58 19.51 104.11-7.57 13.07-15.05 16.09-35.32 19-54.91 1.1-7.4 2.24-15.05 3.9-22.35 7.71-33.88 29.37-63.24 58.84-84.22-14.4-33.67-27.52-67.58-40.43-100.96-16.03-41.44-32.6-84.29-51.25-125.68C113.11-108.1 34.49-202.74-64.32-257.77l1.79-2.77c99.57 55.45 178.73 150.66 242 291.06 18.69 41.47 35.28 84.36 51.32 125.84l39.92 99.75c34.8-23.71 79.85-35.96 125.56-30.78 86.39 9.8 163.21 80.56 171.24 157.75 1.45 13.9.52 29.61-3.96 44.55zM272.13 259.43c16.1 37.47 33.82 74.59 54.64 110.27 18.67 31.99 42.75 67.88 79.84 91.58 38.51 24.6 87.11 29.3 118.19 11.41 33.62-19.35 42.2-58.94 39.01-89.55-7.87-75.61-83.12-144.93-167.75-154.52-45.18-5.12-89.73 7.16-123.95 30.81z" fill="url(#E)"/><path d="M542.27 437.03c-6.43 21.44-19.82 41.8-43.14 53.12-33.84 16.42-83.93 8.55-121.81-19.14-36.01-26.32-57.64-63.92-74.05-97.22-17.98-36.49-32.77-74.17-45.91-112.08-30.04 18.58-53.14 45.53-63.21 77.62-2.21 7.03-3.93 14.5-5.61 21.72-4.55 19.66-9.26 40-24.16 54.72-27 26.68-78.62 22.21-109.9 1.29-30.18-20.19-50-54.73-54.38-94.77-3.89-35.67 3.94-70.38 11.52-103.95l3.64.88C7.74 252.56-.05 287.03 3.79 322.21c4.26 39.06 23.5 72.68 52.77 92.25 29.95 20.02 79.28 24.39 104.99-1.01 14.29-14.12 18.9-34.04 23.36-53.31 1.68-7.27 3.42-14.79 5.66-21.93 10.39-33.14 34.41-60.92 65.61-79.9-11.8-34.3-22.3-68.78-32.63-102.71-12.83-42.12-26.09-85.68-41.55-127.91C129.85-114.81 58.43-213.63-36.34-274.4l2.01-2.64c95.5 61.24 167.42 160.66 219.86 303.93 15.49 42.32 28.76 85.92 41.6 128.08l32.21 101.47c36.76-21.35 82.9-30.7 128.32-22.7 85.87 15.12 157.36 90.13 159.36 167.22.3 11.4-1.11 23.91-4.75 36.07zM260.5 259.81c13.21 38.18 28.06 76.13 46.15 112.84 16.21 32.91 37.55 70.03 72.89 95.86 36.69 26.82 85.06 34.51 117.63 18.7 35.23-17.1 46.94-55.86 46.15-86.43-1.96-75.52-71.99-149-156.1-163.8-44.92-7.91-90.54 1.5-126.71 22.83z" fill="url(#F)"/><path d="M520.37 444.54c-7.17 23.93-22.8 47.32-50.31 58.39-35.22 14.18-84.83 3.24-120.65-26.6-34.05-28.37-52.79-67.03-66.64-101.1-15.17-37.34-27.05-75.65-37.26-114.08-31.58 16.56-56.86 41.86-69.47 73.07-2.76 6.85-5.08 14.15-7.33 21.21-6.11 19.23-12.42 39.11-28.52 52.79-29.17 24.79-80.59 17.13-110.32-5.58-28.69-21.91-45.86-57.43-47.1-97.44-1.11-35.64 9.47-69.6 19.71-102.43l3.58 1.1c-10.17 32.61-20.67 66.33-19.58 101.48 1.21 39.02 17.87 73.59 45.68 94.84 28.46 21.74 77.59 29.16 105.37 5.55 15.44-13.12 21.62-32.6 27.61-51.44 2.26-7.11 4.59-14.46 7.4-21.41 13.02-32.24 39.28-58.3 72.06-75.19-9.15-34.78-16.97-69.64-24.67-103.95-9.56-42.6-19.45-86.65-31.64-129.52-41.12-144.66-105-247.17-195.27-313.39l2.22-2.49c90.97 66.73 155.3 169.87 196.65 315.31 12.21 42.96 22.11 87.05 31.68 129.69l24.35 102.7c38.54-18.89 85.54-25.29 130.47-14.52 84.93 20.36 150.74 99.26 146.7 175.88a116.2 116.2 0 0 1-4.72 27.12zM248.82 259.47c10.25 38.71 22.18 77.3 37.43 114.85 13.68 33.67 32.16 71.83 65.58 99.67 34.69 28.9 82.6 39.55 116.5 25.9 36.67-14.77 51.45-52.5 53.05-82.88 3.95-75.06-60.51-152.35-143.71-172.29-44.42-10.65-90.91-4.17-128.86 14.74z" fill="url(#G)"/><path d="M497.94 450.27c-7.88 26.29-26.03 53.1-58.03 63.53-36.43 11.87-85.33-2.08-118.91-33.92-31.92-30.28-47.69-69.81-58.9-104.48-12.28-37.99-21.19-76.75-28.42-115.53-32.97 14.46-60.3 37.99-75.39 68.17-3.31 6.62-6.21 13.72-9.01 20.58-7.63 18.7-15.52 38.04-32.74 50.61-31.19 22.78-82.16 11.96-110.19-12.42-27.05-23.54-41.49-59.85-39.6-99.63 1.68-35.44 14.96-68.47 27.79-100.41l3.5 1.32c-12.75 31.72-25.93 64.53-27.59 99.48-1.84 38.8 12.15 74.14 38.38 96.96 26.84 23.35 75.53 33.77 105.23 12.08 16.51-12.06 24.24-31 31.72-49.32 2.82-6.92 5.74-14.07 9.1-20.78 15.59-31.18 43.97-55.4 78.16-70.11-6.45-35.08-11.56-70.16-16.59-104.69-6.25-42.87-12.71-87.2-21.57-130.5-29.91-146.12-85.93-251.84-171.26-323.18l2.42-2.33c86 71.89 142.42 178.25 172.49 325.15 8.88 43.39 15.35 87.76 21.6 130.67l16.36 103.43c40.13-16.34 87.77-19.75 131.97-6.26 83.57 25.5 143.38 107.91 133.33 183.69a115.06 115.06 0 0 1-3.86 17.89zM237.13 258.4c7.24 39.06 16.18 78.08 28.54 116.3 11.08 34.26 26.62 73.29 57.95 103 32.52 30.84 79.73 44.4 114.8 32.97 37.94-12.36 55.71-48.88 59.7-78.93 9.85-74.23-48.74-154.95-130.61-179.93-43.71-13.34-90.84-9.81-130.38 6.59z" fill="url(#H)"/><path d="M475.03 454.47c-8.49 28.32-29.52 58.93-66.2 68.24-37.47 9.51-85.41-7.39-116.58-41.08-29.64-32.04-42.35-72.25-50.88-107.35-9.34-38.47-15.24-77.48-19.44-116.41-34.2 12.29-63.45 33.93-80.95 62.94-3.84 6.36-7.3 13.23-10.65 19.86-9.12 18.08-18.55 36.77-36.8 48.17C60.47 409.49 10.2 395.58-16 369.63c-25.29-25.04-36.91-61.98-31.9-101.33 4.46-35.06 20.37-67.01 35.74-97.91l3.41 1.53c-15.27 30.68-31.06 62.42-35.47 96.99-4.89 38.38 6.37 74.32 30.89 98.61 25.08 24.84 73.09 38.23 104.58 18.56 17.5-10.93 26.74-29.25 35.67-46.96 3.37-6.69 6.86-13.6 10.75-20.06 18.07-29.97 48.43-52.23 83.87-64.69-3.72-35.21-6.09-70.35-8.43-104.92-2.91-42.93-5.91-87.32-11.4-130.84-18.54-146.87-66.43-255.26-146.42-331.39l2.61-2.16c80.62 76.71 128.87 185.78 147.5 333.42 5.51 43.61 8.51 88.04 11.42 131.01l8.3 103.66c41.52-13.71 89.56-14.12 132.84 2.02 81.81 30.52 135.33 116.03 119.31 190.6a110.06 110.06 0 0 1-2.24 8.69zM225.49 256.62c4.2 39.21 10.1 78.49 19.5 117.19 8.42 34.69 20.95 74.39 50.04 105.83 30.19 32.64 76.47 49.04 112.54 39.89 39.01-9.9 59.71-45.02 66.06-74.6 15.69-73.05-36.73-156.8-116.87-186.7-42.79-15.97-90.33-15.4-131.27-1.6z" fill="url(#I)"/><path d="M451.63 457.49v.04c-8.96 29.81-33.28 64.4-74.68 72.07-38.32 7.1-85.07-12.66-113.69-48.05-27.21-33.64-36.81-74.33-42.6-109.7-6.35-38.76-9.2-77.84-10.37-116.73-35.25 10.06-66.29 29.71-86.11 57.4-4.35 6.07-8.36 12.67-12.24 19.05-10.56 17.37-21.48 35.33-40.68 45.51-34.78 18.43-84.09 1.49-108.33-25.9-23.39-26.43-32.16-63.81-24.05-102.54 7.23-34.52 25.68-65.22 43.52-94.92l3.3 1.73c-17.72 29.5-36.05 60-43.17 94.03-7.91 37.78.56 74.15 23.24 99.78 23.21 26.22 70.3 42.5 103.42 24.94 18.41-9.76 29.11-27.35 39.46-44.37 3.91-6.42 7.95-13.07 12.36-19.23 20.47-28.61 52.67-48.8 89.18-58.96-.97-35.18-.6-70.19-.23-104.65.45-42.78.92-87.01-1.18-130.54C201.7-130.44 162.17-241 87.93-321.53l2.79-1.98c74.82 81.16 114.65 192.39 121.77 340.07 2.1 43.62 1.63 87.89 1.18 130.71l.2 103.38c42.71-11.01 90.92-8.42 133.05 10.3 79.63 35.39 126.59 123.55 104.71 196.53zM213.96 254.11c1.14 39.17 3.98 78.52 10.37 117.5 5.73 34.95 15.18 75.12 41.88 108.14 27.72 34.27 72.84 53.43 109.73 46.6 39.9-7.39 63.4-40.95 72.09-69.9v-.04c21.45-71.5-24.56-157.85-102.56-192.52-41.66-18.51-89.38-20.92-131.51-9.78z" fill="url(#J)"/><path d="M428.24 458.1a125.31 125.31 0 0 1-3.27 9.5c-11.31 29.02-38.41 61.83-80.53 66.85-38.98 4.65-84.32-17.87-110.25-54.77-24.65-35.08-31.08-76.06-34.12-111.52-3.33-38.85-3.13-77.81-1.25-116.48-36.14 7.78-68.81 25.34-90.86 51.59-4.83 5.75-9.37 12.05-13.76 18.13-11.96 16.58-24.32 33.72-44.36 42.62-36.32 16.12-84.45-3.77-106.61-32.46-21.39-27.69-27.25-65.32-16.08-103.26 10-33.79 30.86-63.12 51.08-91.47l3.17 1.92c-19.93 27.96-40.55 56.86-50.45 89.89l-.22.73c-10.9 37-5.25 73.61 15.49 100.46 21.22 27.46 67.17 46.56 101.76 31.21 19.22-8.53 31.33-25.33 43.05-41.57 4.42-6.13 8.99-12.47 13.9-18.31 22.77-27.11 56.64-45.14 94.06-52.94 1.79-34.96 4.9-69.68 7.97-103.85 3.81-42.42 7.74-86.29 9.05-129.61 4.42-146.2-26.56-258.37-94.7-342.92l2.96-1.8c68.68 85.21 99.91 198.07 95.47 345.06-1.31 43.41-5.25 87.32-9.06 129.79l-7.9 102.59c43.7-8.26 91.84-2.68 132.62 18.53 73.7 38.33 113.67 122.66 92.85 192.1zM202.59 250.91c-1.93 38.94-2.17 78.16 1.18 117.25 3 35.04 9.34 75.49 33.53 109.92 25.11 35.74 68.86 57.57 106.39 53.09 40.59-4.84 66.79-36.68 77.77-64.86 27.15-69.61-12.23-158.2-87.76-197.48-40.33-20.97-87.99-26.34-131.11-17.92z" fill="url(#K)"/><path d="M1644.32-6.08c-4.28-14.28-12.24-27.56-25.22-37.77-28.73-22.61-78.78-24.11-121.71-3.64-40.81 19.46-70.41 52.8-93.99 82.84-25.83 32.92-48.87 67.62-70.38 102.84-24.58-24.05-40.51-55.12-42.7-88.89-.48-7.4-.4-15.14-.32-22.63.21-20.39.43-41.47-10.47-58.88-19.75-31.54-70.49-36.7-105.48-21.73-33.77 14.44-60.92 45.08-74.48 84.07-12.08 34.73-12.65 70.69-13.2 105.46l3.71-.2c.54-34.53 1.11-70.24 13.02-104.49 13.23-38.02 39.6-67.86 72.34-81.86 33.5-14.33 82.01-9.49 100.82 20.54 10.46 16.69 10.24 37.35 10.03 57.32-.08 7.54-.16 15.34.33 22.85 2.26 34.87 18.89 66.94 44.48 91.61-19.38 31.9-37.53 64.2-55.4 96-22.19 39.48-45.13 80.3-69.87 119.39-83.5 131.93-175.33 216.84-280.74 259.61l1.32 3c106.23-43.1 198.68-128.52 282.62-261.15 24.79-39.17 47.76-80.03 69.97-119.55l54.71-94.85c30.39 28.06 72.61 45.93 118.2 46.44 86.18.95 172.51-60.3 192.45-136.54 4.74-18.12 5.92-39.91-.04-59.78zM1335.6 140.66c21.63-35.49 44.8-70.44 70.78-103.55 23.29-29.69 52.5-62.61 92.55-81.71 41.58-19.82 89.93-18.47 117.59 3.3 29.92 23.54 32.13 64.24 24.22 94.48-19.53 74.68-104.1 134.68-188.52 133.75-45.07-.5-86.79-18.34-116.62-46.27z" fill="url(#L)"/><path d="M1624.71-19.21c-4.96-16.55-14.55-31.92-30.61-42.76-30.58-20.65-80.89-19.01-122.34 3.98-39.4 21.86-66.47 56.79-87.76 88.07-23.32 34.28-43.71 70.15-62.51 106.44-26.53-22.33-44.95-52.18-49.79-85.55-1.06-7.32-1.59-15-2.1-22.44-1.39-20.24-2.82-41.18-15.11-57.77-22.28-30.06-73.56-32.01-107.48-14.98-32.73 16.44-57.56 48.54-68.1 88.07-9.39 35.21-7.14 70.93-4.97 105.47l3.7-.43c-2.16-34.3-4.4-69.77 4.87-104.5 10.29-38.56 34.39-69.81 66.13-85.75 32.47-16.31 81.49-14.54 102.71 14.09 11.79 15.91 13.2 36.42 14.55 56.26.51 7.49 1.04 15.23 2.12 22.65 5 34.46 24.19 65.25 51.78 88.13-16.93 32.86-32.61 66.05-48.04 98.72-19.16 40.56-38.96 82.5-60.71 122.83-73.39 136.12-158.83 226.12-261.19 275.14l1.56 2.89c103.15-49.4 189.16-139.93 262.95-276.78 21.79-40.42 41.62-82.4 60.79-123l47.43-97.54c32.68 25.95 76.42 41.05 122.18 38.7 86.5-4.43 168.27-70.6 182.29-147.5 2.94-16.14 2.88-34.96-2.37-52.46zm-300.43 158.04c18.91-36.57 39.4-72.69 62.86-107.18 21.03-30.91 47.74-65.41 86.41-86.86 40.14-22.27 88.74-23.94 118.18-4.07 31.85 21.5 37.25 61.74 31.69 92.24-13.73 75.33-93.84 140.15-178.57 144.49-45.24 2.32-88.47-12.78-120.58-38.63z" fill="url(#M)"/><path d="M1604.2-30.5c-5.68-18.95-17.07-36.66-36.58-47.88-32.29-18.58-82.61-13.81-122.37 11.59-37.8 24.15-62.21 60.5-81.1 92.87-20.7 35.48-38.33 72.33-54.34 109.53-28.35-20.5-49.17-48.97-56.64-81.78-1.64-7.19-2.77-14.79-3.86-22.13-2.98-20-6.05-40.69-19.69-56.39-24.7-28.44-76.28-27.18-108.96-8.15-31.54 18.36-53.91 51.76-61.39 91.64-6.66 35.53-1.61 70.83 3.28 104.97l3.68-.66c-4.86-33.9-9.88-68.96-3.31-104 7.29-38.9 29.01-71.42 59.59-89.22 31.29-18.21 80.58-19.51 104.11 7.57 13.07 15.05 16.09 35.32 19 54.91 1.1 7.4 2.24 15.05 3.9 22.35 7.71 33.88 29.37 63.24 58.84 84.22-14.4 33.67-27.52 67.58-40.43 100.96-16.03 41.44-32.6 84.29-51.25 125.68-62.93 139.66-141.55 234.3-240.36 289.32l1.79 2.77c99.57-55.46 178.73-150.66 241.99-291.06 18.69-41.47 35.28-84.36 51.32-125.84l39.92-99.75c34.8 23.71 79.85 35.96 125.56 30.78 86.39-9.8 163.21-80.56 171.24-157.75 1.45-13.9.52-29.61-3.96-44.55zm-291.42 168.21c16.1-37.47 33.82-74.59 54.64-110.27 18.67-31.99 42.75-67.88 79.84-91.58 38.51-24.6 87.11-29.3 118.19-11.41 33.62 19.35 42.2 58.94 39.01 89.55-7.87 75.61-83.12 144.93-167.75 154.52-45.18 5.12-89.73-7.16-123.95-30.81z" fill="url(#N)"/><path d="M1582.93-39.89c-6.43-21.44-19.82-41.8-43.14-53.12-33.84-16.42-83.93-8.55-121.81 19.14-36.01 26.32-57.64 63.92-74.05 97.22-17.98 36.49-32.77 74.17-45.91 112.08-30.04-18.58-53.14-45.53-63.21-77.62-2.21-7.03-3.93-14.5-5.61-21.72-4.55-19.66-9.26-40-24.16-54.72-27-26.68-78.62-22.21-109.9-1.29-30.19 20.18-50.01 54.73-54.38 94.77-3.89 35.67 3.94 70.38 11.52 103.95l3.64-.88c-7.53-33.34-15.31-67.81-11.47-102.99 4.26-39.06 23.5-72.68 52.77-92.25 29.95-20.02 79.28-24.39 104.99 1.01 14.29 14.12 18.9 34.04 23.36 53.31 1.68 7.27 3.42 14.79 5.66 21.93 10.39 33.14 34.41 60.92 65.61 79.9-11.8 34.3-22.3 68.78-32.63 102.71-12.83 42.12-26.09 85.68-41.55 127.91-52.16 142.51-123.59 241.33-218.35 302.1l2.01 2.64c95.5-61.24 167.42-160.66 219.86-303.93 15.49-42.32 28.76-85.92 41.6-128.08l32.21-101.47c36.76 21.35 82.9 30.7 128.32 22.7 85.87-15.12 157.36-90.13 159.36-167.22.3-11.4-1.11-23.91-4.75-36.07zm-281.77 177.22c13.21-38.18 28.06-76.13 46.15-112.84 16.21-32.91 37.55-70.03 72.89-95.86 36.69-26.82 85.06-34.51 117.63-18.7 35.23 17.1 46.94 55.86 46.15 86.43-1.96 75.52-71.99 149-156.1 163.8-44.92 7.91-90.54-1.5-126.71-22.83z" fill="url(#O)"/><path d="M1561.02-47.4c-7.17-23.93-22.8-47.32-50.31-58.39-35.22-14.18-84.83-3.24-120.65 26.6-34.05 28.37-52.79 67.03-66.64 101.1-15.17 37.34-27.05 75.65-37.26 114.08-31.58-16.56-56.86-41.86-69.47-73.07-2.76-6.85-5.08-14.15-7.33-21.21-6.11-19.23-12.42-39.11-28.52-52.79-29.17-24.79-80.59-17.13-110.32 5.58-28.69 21.91-45.86 57.43-47.1 97.44-1.11 35.64 9.47 69.6 19.71 102.43l3.58-1.1c-10.17-32.61-20.67-66.33-19.58-101.48 1.21-39.02 17.87-73.59 45.68-94.84 28.46-21.74 77.59-29.16 105.37-5.55 15.44 13.12 21.62 32.6 27.61 51.44 2.26 7.11 4.59 14.46 7.4 21.41 13.02 32.24 39.28 58.3 72.06 75.19-9.15 34.78-16.97 69.64-24.67 103.95-9.56 42.6-19.45 86.65-31.64 129.52-41.14 144.67-105.02 247.19-195.29 313.41l2.22 2.49c90.97-66.73 155.3-169.87 196.65-315.31 12.21-42.96 22.11-87.05 31.68-129.69l24.35-102.7c38.54 18.89 85.54 25.29 130.47 14.52 84.93-20.36 150.74-99.26 146.7-175.88a116.2 116.2 0 0 0-4.72-27.12zm-271.55 185.07c10.25-38.71 22.18-77.3 37.43-114.85 13.68-33.67 32.16-71.83 65.58-99.67 34.69-28.9 82.6-39.55 116.5-25.9 36.67 14.77 51.45 52.5 53.05 82.88 3.95 75.06-60.51 152.35-143.71 172.29-44.42 10.65-90.91 4.17-128.86-14.74z" fill="url(#P)"/><path d="M1538.6-53.13c-7.88-26.29-26.03-53.1-58.03-63.53-36.43-11.87-85.33 2.08-118.91 33.92-31.92 30.28-47.69 69.81-58.9 104.48-12.28 37.99-21.19 76.75-28.42 115.53-32.97-14.46-60.3-37.99-75.39-68.17-3.31-6.62-6.21-13.72-9.01-20.58-7.63-18.7-15.52-38.04-32.74-50.61-31.19-22.78-82.16-11.96-110.19 12.42-27.05 23.54-41.49 59.85-39.6 99.63 1.68 35.44 14.96 68.47 27.79 100.41l3.5-1.32c-12.75-31.72-25.93-64.53-27.59-99.48-1.84-38.8 12.15-74.14 38.38-96.96 26.84-23.35 75.53-33.77 105.23-12.08 16.51 12.06 24.24 31 31.72 49.32 2.82 6.92 5.74 14.07 9.1 20.78 15.59 31.18 43.97 55.4 78.16 70.11-6.45 35.08-11.56 70.16-16.59 104.69-6.25 42.87-12.71 87.2-21.57 130.5-29.91 146.12-85.93 251.84-171.27 323.18l2.42 2.33c86-71.9 142.42-178.26 172.49-325.16 8.88-43.39 15.35-87.76 21.6-130.67l16.36-103.43c40.13 16.34 87.77 19.75 131.97 6.26 83.57-25.5 143.38-107.91 133.33-183.69a115.06 115.06 0 0 0-3.86-17.89zm-260.81 191.86c7.24-39.06 16.18-78.08 28.54-116.3 11.08-34.26 26.62-73.29 57.95-103 32.52-30.84 79.73-44.4 114.8-32.97 37.94 12.36 55.71 48.88 59.7 78.93 9.85 74.23-48.74 154.95-130.61 179.93-43.71 13.34-90.84 9.81-130.38-6.59z" fill="url(#Q)"/><path d="M1515.68-57.33c-8.49-28.32-29.52-58.93-66.2-68.24-37.47-9.51-85.41 7.39-116.58 41.08-29.64 32.04-42.35 72.25-50.88 107.35-9.34 38.47-15.24 77.48-19.44 116.41-34.2-12.29-63.45-33.93-80.95-62.94-3.84-6.36-7.3-13.23-10.65-19.86-9.12-18.08-18.55-36.77-36.8-48.17-33.06-20.65-83.33-6.74-109.53 19.21-25.29 25.04-36.91 61.98-31.9 101.33 4.46 35.06 20.37 67.01 35.74 97.91l3.41-1.53c-15.27-30.68-31.06-62.42-35.47-96.99-4.89-38.38 6.37-74.32 30.89-98.61 25.08-24.84 73.09-38.23 104.58-18.56 17.5 10.93 26.74 29.25 35.67 46.96 3.37 6.69 6.86 13.6 10.75 20.06 18.07 29.97 48.43 52.23 83.87 64.69-3.72 35.21-6.09 70.35-8.43 104.92-2.91 42.93-5.91 87.32-11.4 130.84-18.54 146.87-66.43 255.26-146.42 331.39l2.61 2.16c80.61-76.71 128.85-185.78 147.49-333.43 5.51-43.61 8.51-88.04 11.42-131.01l8.3-103.66c41.52 13.71 89.56 14.12 132.84-2.02 81.81-30.52 135.33-116.03 119.31-190.6a110.06 110.06 0 0 0-2.24-8.69zm-249.53 197.85c4.2-39.21 10.1-78.49 19.5-117.19 8.42-34.69 20.95-74.39 50.04-105.83 30.19-32.64 76.47-49.04 112.54-39.89 39.01 9.9 59.71 45.02 66.06 74.6 15.69 73.05-36.73 156.8-116.87 186.7-42.79 15.97-90.33 15.4-131.27 1.6z" fill="url(#R)"/><path d="M1492.29-60.35v-.04c-8.96-29.81-33.28-64.4-74.68-72.07-38.32-7.1-85.07 12.66-113.69 48.05-27.21 33.64-36.81 74.33-42.6 109.7-6.35 38.76-9.2 77.84-10.37 116.73-35.25-10.06-66.29-29.71-86.11-57.4-4.35-6.07-8.36-12.67-12.24-19.05-10.56-17.37-21.48-35.33-40.68-45.51-34.78-18.43-84.09-1.49-108.33 25.9-23.39 26.43-32.16 63.81-24.05 102.54 7.23 34.52 25.68 65.22 43.52 94.92l3.3-1.73c-17.72-29.5-36.05-60-43.17-94.03-7.91-37.78.56-74.15 23.24-99.78 23.21-26.22 70.3-42.5 103.42-24.94 18.41 9.76 29.11 27.35 39.46 44.37 3.91 6.42 7.95 13.07 12.36 19.23 20.47 28.61 52.67 48.8 89.18 58.96-.97 35.18-.6 70.19-.23 104.65.45 42.78.92 87.01-1.18 130.54-7.08 146.89-46.61 257.45-120.85 337.98l2.79 1.98c74.82-81.16 114.65-192.39 121.77-340.07 2.1-43.62 1.63-87.89 1.18-130.71l.2-103.38c42.71 11.01 90.92 8.42 133.05-10.3 79.63-35.39 126.59-123.55 104.71-196.53zm-237.68 203.37c1.14-39.17 3.98-78.52 10.37-117.5 5.73-34.95 15.18-75.12 41.88-108.14 27.72-34.27 72.84-53.43 109.73-46.6 39.9 7.39 63.4 40.95 72.09 69.9v.04c21.45 71.5-24.56 157.85-102.56 192.52-41.66 18.51-89.38 20.92-131.51 9.78z" fill="url(#S)"/><path d="M1468.9-60.96a125.31 125.31 0 0 0-3.27-9.5c-11.31-29.02-38.41-61.83-80.53-66.85-38.98-4.65-84.32 17.87-110.25 54.77-24.65 35.08-31.08 76.06-34.12 111.52-3.33 38.85-3.13 77.81-1.25 116.48-36.14-7.78-68.81-25.34-90.86-51.59-4.83-5.75-9.37-12.05-13.76-18.13-11.96-16.58-24.32-33.72-44.36-42.62-36.32-16.12-84.45 3.77-106.61 32.46-21.39 27.69-27.25 65.32-16.08 103.26 10 33.79 30.86 63.12 51.08 91.47l3.17-1.92c-19.93-27.96-40.55-56.86-50.45-89.89l-.22-.73c-10.9-37-5.25-73.61 15.49-100.46 21.22-27.46 67.17-46.56 101.76-31.21 19.22 8.53 31.33 25.33 43.05 41.57 4.42 6.13 8.99 12.47 13.9 18.31 22.77 27.11 56.64 45.14 94.06 52.94 1.79 34.96 4.9 69.68 7.97 103.85 3.81 42.42 7.74 86.29 9.05 129.61 4.42 146.2-26.56 258.37-94.7 342.92l2.96 1.8c68.67-85.2 99.89-198.07 95.45-345.05-1.31-43.41-5.25-87.32-9.06-129.79l-7.9-102.59c43.7 8.26 91.84 2.68 132.62-18.53 73.7-38.33 113.67-122.66 92.85-192.1zm-225.65 207.19c-1.93-38.94-2.17-78.16 1.18-117.25 3-35.04 9.34-75.49 33.53-109.92 25.11-35.74 68.86-57.57 106.39-53.09 40.59 4.84 66.79 36.68 77.77 64.86 27.15 69.61-12.23 158.2-87.76 197.48-40.33 20.97-87.99 26.34-131.11 17.92z" fill="url(#T)"/></g><g fill="#f1f2f2"><circle cx="1435.97" cy="243.53" r="3.01"/><circle cx="1455.91" cy="243.53" r="3.01"/><circle cx="1445.94" cy="243.53" r="3.01"/><circle cx="1435.97" cy="233.4" r="3.01"/><circle cx="1455.91" cy="233.4" r="3.01"/><circle cx="1445.94" cy="233.4" r="3.01"/><circle cx="1435.97" cy="223.27" r="3.01"/><circle cx="1455.91" cy="223.27" r="3.01"/><circle cx="1445.94" cy="223.27" r="3.01"/><circle cx="1435.97" cy="213.14" r="3.01"/><circle cx="1455.91" cy="213.14" r="3.01"/><circle cx="1445.94" cy="213.14" r="3.01"/><circle cx="1435.97" cy="203.01" r="3.01"/><circle cx="1455.91" cy="203.01" r="3.01"/><circle cx="1445.94" cy="203.01" r="3.01"/><circle cx="1435.97" cy="192.88" r="3.01"/><circle cx="1455.91" cy="192.88" r="3.01"/><circle cx="1445.94" cy="192.88" r="3.01"/><circle cx="1435.97" cy="182.75" r="3.01"/><circle cx="1455.91" cy="182.75" r="3.01"/><circle cx="1445.94" cy="182.75" r="3.01"/><circle cx="1435.97" cy="172.62" r="3.01"/><circle cx="1455.91" cy="172.62" r="3.01"/><circle cx="1445.94" cy="172.62" r="3.01"/><circle cx="1435.97" cy="162.49" r="3.01"/><circle cx="1455.91" cy="162.49" r="3.01"/><circle cx="1445.94" cy="162.49" r="3.01"/><circle cx="44.09" cy="243.53" r="3.01"/><circle cx="64.03" cy="243.53" r="3.01"/><circle cx="54.06" cy="243.53" r="3.01"/><circle cx="44.09" cy="233.4" r="3.01"/><circle cx="64.03" cy="233.4" r="3.01"/><circle cx="54.06" cy="233.4" r="3.01"/><circle cx="44.09" cy="223.27" r="3.01"/><circle cx="64.03" cy="223.27" r="3.01"/><circle cx="54.06" cy="223.27" r="3.01"/><circle cx="44.09" cy="213.14" r="3.01"/><circle cx="64.03" cy="213.14" r="3.01"/><circle cx="54.06" cy="213.14" r="3.01"/><circle cx="44.09" cy="203.01" r="3.01"/><circle cx="64.03" cy="203.01" r="3.01"/><circle cx="54.06" cy="203.01" r="3.01"/><circle cx="44.09" cy="192.88" r="3.01"/><circle cx="64.03" cy="192.88" r="3.01"/><circle cx="54.06" cy="192.88" r="3.01"/><circle cx="44.09" cy="182.75" r="3.01"/><circle cx="64.03" cy="182.75" r="3.01"/><circle cx="54.06" cy="182.75" r="3.01"/><circle cx="44.09" cy="172.62" r="3.01"/><circle cx="64.03" cy="172.62" r="3.01"/><circle cx="54.06" cy="172.62" r="3.01"/><circle cx="44.09" cy="162.49" r="3.01"/><circle cx="64.03" cy="162.49" r="3.01"/><circle cx="54.06" cy="162.49" r="3.01"/></g></svg>