<?xml version="1.0" encoding="UTF-8"?>
<svg id="Layer_1" data-name="Layer 1" xmlns="http://www.w3.org/2000/svg" xmlns:xlink="http://www.w3.org/1999/xlink" viewBox="0 0 44 44">
  <defs>
    <style>
      .cls-1 {
        fill: url(#New_Gradient_Swatch);
      }
    </style>
    <linearGradient id="New_Gradient_Swatch" data-name="New Gradient Swatch" x1="22" y1="-.05" x2="22" y2="44.05" gradientUnits="userSpaceOnUse">
      <stop offset="0" stop-color="#001a4f"/>
      <stop offset="1" stop-color="#75a9c8"/>
    </linearGradient>
  </defs>
  <path class="cls-1" d="M41.93,31.3c-.7-1-2-1.3-3-.6l-.5.3-2.7-2.2c-2.7-2.2-6-3.3-9.3-3.5.2-.9.6-2,1.7-3.1.3.1,1.5.1,1.9.1,2.2,0,4.2-.4,5.8-1.3.3-.2.4-.6.3-.9-.2-.3-.6-.4-.9-.3-1.6.8-3.6,1.2-5.8,1.1,4-3.4,8.6-6,10.6-7.2-.3,1.2-1.1,2.9-2.5,4.4-.2.3-.2.7,0,.9.3.2.7.2.9,0,2.2-2.2,2.9-4.9,3.1-6,.1-.7-.5-1.3-1.2-1.3-6.3.3-12.2,3-13,9.3v.2c-.4.4-.7.8-1,1.2v-5.4c2.8-2.5,3.7-5.9,3-9.7-.6-3.2-2.1-5.9-2.8-6.9-.4-.6-1.3-.6-1.7,0-.6,1-2.2,3.7-2.8,6.9-.7,3.7.2,7.1,3,9.6v5.3c-.3-.3-.6-.7-.9-1v-.2c-.8-6.3-6.8-9-13.1-9.2-.7,0-1.3.6-1.2,1.3,1,5.1,4.9,9.2,11.5,9.2.4,0,1.6,0,1.9-.1,1.1,1.1,1.5,2.3,1.7,3.1-2.6.1-5.1.8-7.4,2.1-.3-.1-.5-.2-.7-.2-1.9-.6-4.1-.3-5.9.7l-4.6,2.6c-.6-.6-1.5-.7-2.2-.3l-1.5.9c-.9.5-1.2,1.6-.7,2.5l5.5,9.5c.5.9,1.6,1.2,2.5.7l1.5-.9c.9-.5,1.2-1.6.7-2.5l1.1-1c.3-.3.8-.4,1.2-.3l5.2,1.7c.6.3,1.4.4,2.1.3l10.5-1.1c.8-.1,1.5-.3,2.1-.8,7.7-5.3,7.2-4.9,7.3-5,.8-.7.9-2,.3-2.9ZM38.43,13.3c-2.3,1.3-6.1,3.7-9.6,6.6,1.4-4.8,6.4-6.2,9.6-6.6h0ZM22.53,19.9c-3.5-2.9-7.3-5.2-9.5-6.6,4.3.5,8.4,2.4,9.5,6.6ZM11.33,13.8c2,1.1,6.5,3.8,10.6,7.2-7.4.3-9.8-4.6-10.6-7.2h0ZM28.03,7.6c.6,3,0,5.5-1.7,7.6V2.7c.6,1.3,1.4,3,1.7,4.9ZM23.33,7.6c.3-1.9,1.1-3.6,1.7-4.9v12.4c-1.7-2-2.3-4.5-1.7-7.5ZM34.83,30.1c.6.6,1.2,1.2,1.9,1.8-.8.4-1.5.8-2.3,1.2-.9.5-1.9.8-2.9.9v-.4c-.1-1.5-1.2-2.7-2.7-2.9l-5.2-.6c-1.6-.2-1.9-1-4.4-2.1,1.4-.5,4.1-1.4,7.7-1,3.9.4,6.7,2.2,7.9,3.1ZM11.23,42.2l-1.5.9c-.5.3-1.2.1-1.5-.4l-5.5-9.5c-.3-.5-.1-1.2.4-1.5l1.5-.9c.5-.3,1.2-.1,1.5.4l5.5,9.5c.3.6.1,1.3-.4,1.5Z"/>
</svg>