<?xml version="1.0" encoding="UTF-8"?>
<svg id="Layer_1" data-name="Layer 1" xmlns="http://www.w3.org/2000/svg" xmlns:xlink="http://www.w3.org/1999/xlink" viewBox="0 0 44 44">
  <defs>
    <style>
      .cls-1 {
        fill: #fff;
      }

      .cls-2 {
        fill: url(#New_Gradient_Swatch-2);
      }

      .cls-3 {
        fill: url(#New_Gradient_Swatch);
      }

      .cls-4 {
        fill: url(#New_Gradient_Swatch-3);
      }
    </style>
    <linearGradient id="New_Gradient_Swatch" data-name="New Gradient Swatch" x1="8.05" y1="22" x2="36.25" y2="22" gradientUnits="userSpaceOnUse">
      <stop offset="0" stop-color="#001a4f"/>
      <stop offset="1" stop-color="#75a9c8"/>
    </linearGradient>
    <linearGradient id="New_Gradient_Swatch-2" data-name="New Gradient Swatch" x1="-.05" y1="34.63" x2="31.96" y2="34.63" xlink:href="#New_Gradient_Swatch"/>
    <linearGradient id="New_Gradient_Swatch-3" data-name="New Gradient Swatch" x1="12.34" y1="9.18" x2="44.05" y2="9.18" xlink:href="#New_Gradient_Swatch"/>
  </defs>
  <g id="healthcare_medical_protection" data-name="healthcare, medical, protection">
    <g>
      <circle class="cls-3" cx="22.15" cy="22" r="14.1"/>
      <g>
        <path class="cls-2" d="M31.35,36.5c.6.5.6,1.2.6,1.2.1.7-.4,1.2-.5,1.4-.5.7-1.3.9-1.8,1-3.1.8-2.8,1.5-4.9,1.7-.7.1-1.6.1-3.4,0-.4,0-2.2-.1-3.1-.2-2.8-.3-4.2-1.5-6.7-2.5-1.5-.7-3.9-1.4-7-1.7-1.5,0-3.1-.1-4.6-.1v-8.8c.6.1,3.8.3,5.8-.1,1.1-.2,1.7-.4,2.1-.5.9-.3,1.2-.4,1.9-.5,1.5-.1,3.7.6,6.5,3.9,2,.9,4.1,1.8,6.1,2.7,0,1.5,0,2.9-.1,4.4v-.1c1.1-.3,2.3-.7,3.4-1,2.6-1.3,4.8-1.7,5.7-.8Z"/>
        <path class="cls-1" d="M15.55,20.1c-.6.6-.1,2.1.2,2.7.2.4.4.9.9,1.1,1.1.6,2-.3,2.7.2.8.6-.2,2.1.7,3.3.7,1,2.1,1.1,2.3,1.1.6,0,1,.1,1.3-.3.6-.7-.5-1.9.1-3.1.3-.7,1-1,1.2-1.1,1.4-.7,2.4.3,3.2-.3.9-.7.9-2.8,0-3.4-.6-.4-1.2.2-2.5-.2-.5-.1-1.2-.3-1.6-.9-.5-.8.1-1.4-.4-2.5-.1-.2-.3-.7-.9-1-.6-.3-1.4-.4-2,0-.8.5-.9,1.8-1,2.9-.1,1,.1,1.5-.3,1.7s-.8-.1-2-.3c-.7-.1-1.4-.3-1.9.1Z"/>
        <path class="cls-1" d="M24.15,29.3h-4.4c-.4,0-.7-.3-.7-.7v-3.7h-3.7c-.4,0-.7-.3-.7-.7v-4.4c0-.4.3-.7.7-.7h3.7v-3.7c0-.4.3-.7.7-.7h4.4c.4,0,.7.3.7.7v3.7h3.7c.4,0,.7.3.7.7v4.4c0,.4-.3.7-.7.7h-3.7v3.7c0,.4-.3.7-.7.7ZM20.45,27.9h2.9v-3.7c0-.4.3-.7.7-.7h3.7v-2.9h-3.7c-.4,0-.7-.3-.7-.7v-3.7h-2.9v3.7c0,.4-.3.7-.7.7h-3.7v2.9h3.7c.4,0,.7.3.7.7v3.7Z"/>
      </g>
      <g>
        <path class="cls-1" d="M25.05,42.5h-7.7c-1.4,0-2.8-.3-4.2-1l-5.1-2.5c-1.3-.6-2.7-1-4.2-1H.65c-.4,0-.7-.3-.7-.7s.3-.7.7-.7h3.3c1.7,0,3.3.4,4.8,1.1l5.1,2.5c1.1.5,2.3.8,3.5.8h7.6l6.4-2.6c0-.1.1-.6-.2-1.1-.4-.7-1.4-.8-2.2-.7-1.1.2-2,.5-2.8.7l-.3.1c-.4.1-.8-.1-.9-.5s.1-.8.5-.9l.3-.1c.9-.3,1.8-.6,3-.8,3-.4,3.8,1.4,3.9,2,.3,1,0,2.2-.8,2.5l-6.5,2.7c-.1.2-.2.2-.3.2Z"/>
        <path class="cls-1" d="M15.55,32.1c-.3,0-.5-.2-.7-.4-1.4-3.1-5.2-3.5-7.9-2.4-.1,0-.2.1-.3.1H.65c-.4-.1-.7-.4-.7-.8s.3-.7.7-.7h5.8c4-1.6,8.1-.2,9.7,3.2.2.4,0,.8-.4,1h-.2Z"/>
        <path class="cls-1" d="M22.45,39c-.1,0-.2,0-.3-.1l-8.4-3.5c-.4-.2-.6-.6-.4-1,.2-.4.6-.5,1-.4l7.7,3.2c.3-1.5-.5-2.7-2.5-3.5l-4.3-1.7c-.4-.2-.6-.6-.4-1,.2-.4.6-.6,1-.4l4.3,1.8c3,1.3,4.1,3.5,3,6.1-.1.2-.2.3-.4.4-.1.1-.2.1-.3.1h0Z"/>
      </g>
      <g>
        <path class="cls-4" d="M12.95,7.3c-.3-.2-.6-.7-.6-1.2-.1-.7.4-1.2.5-1.4.5-.7,1.3-.9,1.8-1,3.1-.8,2.8-1.5,4.9-1.7.6-.1,1.5,0,3.4,0,.4,0,2.2.1,3.1.2,2.8.3,4.2,1.5,6.7,2.5,1.5.7,3.9,1.4,7,1.7,1.4.1,2.8.2,4.3.2v9.1c-.1,0-.2-.1-.3-.2-1.6-.8-3.2-.4-5.1-.1-2.6.4-2.9.9-4,1-1.5.1-3.7-.6-6.5-3.9-2-.9-4.1-1.8-6.1-2.7-.2-1.6-.3-3.1-.5-4.7,0,.2,0,.3.1.5-.7.2-1.8.5-3.2,1-3.5,1-4.8,1.4-5.5.7Z"/>
        <path class="cls-1" d="M14.25,8.9c-2.3,0-2.9-1.6-3.1-2.1-.3-1,0-2.2.8-2.5l6.5-2.7c.1,0,.2-.1.3-.1h7.7c1.4,0,2.8.3,4.2,1l5.1,2.5c1.3.6,2.7,1,4.2,1h3.3c.4,0,.7.3.7.7s-.3.7-.7.7h-3.3c-1.7,0-3.3-.4-4.8-1.1l-5.1-2.5c-1.1-.5-2.3-.8-3.5-.8h-7.6l-6.4,2.6c0,.1-.1.6.2,1.1.4.7,1.4.8,2.2.7,1.1-.2,2-.5,2.8-.7l.3-.1c.4-.2.8,0,.9.4s-.1.8-.5.9l-.3.1c-.9.3-1.8.6-3,.8-.3,0-.6.1-.9.1Z"/>
        <path class="cls-1" d="M34.05,16.8c-2.8,0-5.2-1.4-6.4-3.8-.2-.4,0-.8.4-1s.8,0,1,.4c1.4,3.1,5.2,3.5,7.9,2.4.1,0,.2-.1.3-.1h6c.4,0,.7.3.7.7s-.3.7-.7.7h-5.8c-1.2.5-2.3.7-3.4.7h0Z"/>
        <path class="cls-1" d="M28.35,13.4c-.1,0-.2,0-.3-.1l-4.3-1.8c-3-1.3-4.1-3.5-3-6.1,0-.2.2-.3.4-.4s.4-.1.6,0l8.4,3.5c.4.2.6.6.4,1s-.6.6-1,.4l-7.7-3.2c-.3,1.5.5,2.7,2.5,3.5l4.3,1.8c.4.2.6.6.4,1-.1.2-.4.4-.7.4h0Z"/>
      </g>
    </g>
  </g>
</svg>