<?xml version="1.0" encoding="UTF-8"?>
<svg id="Layer_1" data-name="Layer 1" xmlns="http://www.w3.org/2000/svg" xmlns:xlink="http://www.w3.org/1999/xlink" viewBox="0 0 44 44">
  <defs>
    <style>
      .cls-1 {
        fill: url(#New_Gradient_Swatch-2);
      }

      .cls-2 {
        fill: url(#New_Gradient_Swatch);
      }

      .cls-3 {
        fill: url(#New_Gradient_Swatch-3);
      }
    </style>
    <linearGradient id="New_Gradient_Swatch" data-name="New Gradient Swatch" x1="40.16" y1="15.6" x2="40.16" y2="30.3" gradientUnits="userSpaceOnUse">
      <stop offset="0" stop-color="#001a4f"/>
      <stop offset="1" stop-color="#75a9c8"/>
    </linearGradient>
    <linearGradient id="New_Gradient_Swatch-2" data-name="New Gradient Swatch" x1="18.03" y1="4.35" x2="18.03" y2="40.66" xlink:href="#New_Gradient_Swatch"/>
    <linearGradient id="New_Gradient_Swatch-3" data-name="New Gradient Swatch" x1="34.59" y1="3.34" x2="34.59" y2="40.6" xlink:href="#New_Gradient_Swatch"/>
  </defs>
  <g id="_21_-_30" data-name=" 21 - 30">
    <g id="Art">
      <path class="cls-2" d="M42.99,17.6c-.3-.7-.7-1.4-1-2l-4.9,13.3c-.2.5-.5,1-.8,1.4,4.7-.5,8.1-4.7,7.7-9.4-.1-.8-.3-1.5-.5-2.2-.2-.4-.3-.8-.5-1.1h0Z"/>
      <path class="cls-1" d="M14.99,5.6C3.29,9.8-2.91,22.7,1.29,34.4c.1.3.2.5.3.8q0,.1.1.2c1.8,4.4,6.8,6.4,11.2,4.6,1.5-.6,2.9-1.7,3.8-3.1,1.8-2.7,4.4-4.8,7.4-6,.1,0,.2-.1.3-.1.7-1.6,2-2.8,3.7-3.3,0-.7.1-1.4.4-2.1l7.6-16.4c-6.1-4.6-14-5.9-21.1-3.4h0ZM9.09,30.6c-2.1,0-3.8-1.7-3.8-3.8s1.7-3.8,3.8-3.8,3.8,1.7,3.8,3.8-1.7,3.8-3.8,3.8ZM13.89,19.6c-2.1,0-3.8-1.7-3.8-3.8s1.7-3.8,3.8-3.8,3.8,1.7,3.8,3.8-1.7,3.8-3.8,3.8h0ZM25.39,16.3c-2.1,0-3.8-1.7-3.8-3.8s1.7-3.8,3.8-3.8,3.8,1.7,3.8,3.8-1.7,3.8-3.8,3.8Z"/>
      <path class="cls-3" d="M42.59,3.5c-.9-.4-1.9,0-2.3.9l-10,21.7c-.5,1-.3,2.2.5,3-1.9-.5-3.9.6-4.7,2.4-1.5,3.7.9,5.4-.6,9.1,3.6-.4,6.7-2.7,8.1-6,.7-1.7.2-3.6-1.2-4.7,1.3.2,2.5-.6,2.9-1.8l8.3-22.5c.3-.8-.2-1.8-1-2.1h0Z"/>
    </g>
  </g>
</svg>