<?xml version="1.0" encoding="UTF-8"?>
<svg id="Layer_1" data-name="Layer 1" xmlns="http://www.w3.org/2000/svg" xmlns:xlink="http://www.w3.org/1999/xlink" viewBox="0 0 44 44">
  <defs>
    <style>
      .cls-1 {
        fill: url(#New_Gradient_Swatch-4);
      }

      .cls-2 {
        fill: #fff;
      }

      .cls-3 {
        fill: url(#New_Gradient_Swatch-2);
      }

      .cls-4 {
        fill: url(#New_Gradient_Swatch);
      }

      .cls-5 {
        fill: url(#New_Gradient_Swatch-3);
      }
    </style>
    <linearGradient id="New_Gradient_Swatch" data-name="New Gradient Swatch" x1="27.17" y1="5" x2="27.17" y2="39.2" gradientUnits="userSpaceOnUse">
      <stop offset="0" stop-color="#001a4f"/>
      <stop offset="1" stop-color="#75a9c8"/>
    </linearGradient>
    <linearGradient id="New_Gradient_Swatch-2" data-name="New Gradient Swatch" x1="2.16" y1="13.79" x2="2.16" y2="30.3" xlink:href="#New_Gradient_Swatch"/>
    <linearGradient id="New_Gradient_Swatch-3" data-name="New Gradient Swatch" x1="5.36" y1="15.49" x2="5.36" y2="28.7" xlink:href="#New_Gradient_Swatch"/>
    <linearGradient id="New_Gradient_Swatch-4" data-name="New Gradient Swatch" x1="8.43" y1="17.12" x2="8.43" y2="27" xlink:href="#New_Gradient_Swatch"/>
  </defs>
  <path class="cls-4" d="M14.65,25.7c-1.8-.4-3-2-3.1-3.7,0-1.5.9-3,2.3-3.7.3-2,.5-4,.8-6.1l4.9-5,6.3-2.2,6.5,1,3.8,3.9,2.4,3.6.5,2.4h1.3l2,1.5.4,2.2s-.1,1.2,0,1.4c.1.2,0,1,0,1l-.4.8s-.1.6-.3.6-2.1.2-2.1.2c0,0-.6,1.4-.6,1.3s-.7,3.2-.7,3.2l-.5,3.9s-2.1,1.9-2.4,1.9-2.1-.8-2.1-.8c0,0-1-2.2-1.2-2.7s-.3-3.4-.3-3.4l.1-1.6v-.4l-2,2-3,3.6s-1.2,2.4-1.3,2.7c0,.2-.5,2.7-.5,2.7l-.2,1.7-3.9,1.5-2.4-1.5c-.4-.7-.8-1.5-1.1-2.4-1-2.6-1.2-4.9-1.2-6.7,0-.2.2-1-.3-1.9-.7-.8-1.6-1-1.7-1Z"/>
  <path class="cls-2" d="M39.85,14.7c-.6-2.2-1.6-4.2-3.2-5.9-2.6-2.8-6.3-4.5-10.2-4.5-7.5,0-13.8,6.1-13.8,13.8v.1c-1.3.8-2.1,2.3-2.1,3.9,0,2.5,2.1,4.6,4.6,4.6s4.6-2.1,4.6-4.6-2.1-4.6-4.6-4.6c-.3,0-.5,0-.8.1.3-5.8,4.6-10.5,10.2-11.4l-2.3,5.9c-1.8.7-3.5,1.9-4.9,3.6-.3.4-.2.9.1,1.2.4.3.9.2,1.2-.1,2.6-3.2,7.4-5.1,11.4-2.1,1.6,1.2,2.3,3.2,2.2,5.5-.1,1.8-.7,3.4-1.8,4.9-.8,1.1-1.7,2.1-2.7,3.1-1.8,1.9-2.8,4.4-2.8,7.1,0,1.6-1.3,2.8-2.8,2.8h-.8c-2,0-3.7-1.6-3.7-3.7,0-1.7-.1-3.3-.1-5,0-.5-.1-1-.1-1.6-.1-.7-.2-1.3-.3-1.9-.2.1-.5.1-.7.2s-.4.2-.6.3c.1.9.1,1.8.2,2.8v5.1c0,3,2.4,5.4,5.4,5.4h.8c2.5,0,4.5-2,4.5-4.5,0-2.2.8-4.3,2.4-5.9.9-1,1.9-2,2.7-3.2l.1,5c0,2,1.7,3.6,3.7,3.6s3.5-1.4,3.6-3.3l.6-6.8h1.3c1.6,0,2.9-1.3,2.9-2.9v-2.7c-.1-2.4-2-4.3-4.2-4.3ZM15.15,19.2c1.6,0,2.9,1.3,2.9,2.9s-1.3,2.9-2.9,2.9-2.9-1.3-2.9-2.9,1.3-2.9,2.9-2.9ZM37.45,31.2c-.1,1-.9,1.8-1.9,1.8-1.1,0-1.9-.9-1.9-1.9l-.1-7.6c0-.1,0-.2-.1-.4.1-.3.2-.6.3-.8.9.8,2.3,1.7,4.4,1.9l-.7,7ZM38.45,19.2l-.3,3.2c-2.7-.4-3.9-1.9-4.2-2.4.1-2.8-.9-5.2-2.9-6.7s-4.4-2-6.8-1.7l2.2-5.6c3.4,0,6.6,1.4,8.9,3.9,2.3,2.5,3.4,5.9,3.1,9.3ZM42.25,21.6c0,.7-.5,1.2-1.2,1.2h-1.2l.3-3.5c.1-1,.1-1.9-.1-2.9,1.2.2,2.1,1.2,2.1,2.4l.1,2.8h0Z"/>
  <path class="cls-2" d="M25.75,15.9c-.1,0-3.4.8-4.6,4.3-.6,1.7.1,3.6,1.6,4.6.1.1.3.1.5.1.3,0,.6-.1.7-.4.3-.4.1-.9-.3-1.2-.9-.6-1.3-1.6-.9-2.6.9-2.6,3.3-3.2,3.4-3.2.5-.1.7-.6.6-1s-.6-.7-1-.6Z"/>
  <path class="cls-2" d="M22.65,28.1c-.4.1-.7.6-.5,1.1.1.4.5.6.8.6h.3c3-1,4.1-3.2,4.5-4.8.2-.7,0-1.5-.4-2.2-.4-.6-1-1.1-1.8-1.2-.5-.1-.9.2-1,.6-.1.5.2.9.6,1,.3.1.6.2.7.5.2.3.2.6.2.9-.5,1.6-1.6,2.9-3.4,3.5Z"/>
  <path class="cls-3" d="M1.65,22.1c0-2.5.9-4.9,2.5-6.9.3-.4.3-.9-.1-1.2s-.9-.3-1.2.1C.95,16.3-.05,19.2-.05,22.1s1,5.7,2.9,7.9c.2.2.4.3.7.3.2,0,.4-.1.5-.2.4-.3.4-.8.1-1.2-1.6-1.9-2.5-4.3-2.5-6.8Z"/>
  <path class="cls-5" d="M5.15,22.1c0-1.9.7-3.7,1.9-5.2.3-.4.3-.9-.1-1.2s-.9-.3-1.2.1c-1.5,1.8-2.3,4-2.3,6.3s.8,4.5,2.3,6.3c.2.2.4.3.7.3.2,0,.4-.1.5-.2.4-.3.4-.8.1-1.2-1.3-1.5-1.9-3.3-1.9-5.2Z"/>
  <path class="cls-1" d="M9.75,17.3c-.4-.3-.9-.2-1.2.1-1.1,1.3-1.7,2.9-1.7,4.7,0,1.7.6,3.3,1.7,4.7.1.1.4.2.6.2s.4-.1.5-.2c.4-.3.4-.8.1-1.2-.8-1-1.3-2.3-1.3-3.6s.4-2.5,1.3-3.6c.4-.3.3-.8,0-1.1Z"/>
</svg>