<?xml version="1.0" encoding="UTF-8"?>
<svg id="Layer_1" data-name="Layer 1" xmlns="http://www.w3.org/2000/svg" xmlns:xlink="http://www.w3.org/1999/xlink" viewBox="0 0 44 44">
  <defs>
    <style>
      .cls-1 {
        fill: #1954c5;
      }

      .cls-2 {
        fill: #fff;
      }

      .cls-3 {
        fill: url(#New_Gradient_Swatch-2);
      }

      .cls-4 {
        fill: url(#New_Gradient_Swatch);
      }
    </style>
    <linearGradient id="New_Gradient_Swatch" data-name="New Gradient Swatch" x1="22.12" y1="3.8" x2="22.12" y2="43.6" gradientUnits="userSpaceOnUse">
      <stop offset="0" stop-color="#001a4f"/>
      <stop offset="1" stop-color="#75a9c8"/>
    </linearGradient>
    <linearGradient id="New_Gradient_Swatch-2" data-name="New Gradient Swatch" x1="13.32" y1="9.1" x2="13.32" y2="19.8" xlink:href="#New_Gradient_Swatch"/>
  </defs>
  <path class="cls-4" d="M.82,30v3.1l3.4.3v9.4l7.9.8,23-.3c1.1,0,2.2-.1,3.3-.1.1-7.3.1-14.6.2-22v-.7h1.6v-2.6l1.8-1.1.7-3.5.7-6.1h-2.6l-.7-3.4-5.9.4-.8,2.4-2.5.6c.3,3.1.7,6.2,1,9.2.6.2,1.3.4,1.9.6,0,.9-.1,1.8-.1,2.7.6.1,1.2.3,1.8.4-.1,3.2-.2,6.5-.3,9.7-11.4.2-22.9.2-34.4.2Z"/>
  <g>
    <g>
      <path class="cls-2" d="M43.42,6.7h-2.6v-2.7c0-.4-.3-.6-.6-.6h-2.7V.7c0-.4-.3-.6-.6-.6-.4,0-.6.3-.6.6v2.6h-2.7c-.4,0-.6.3-.6.6v2.6h-2.6c-.4.1-.7.3-.6.7l1.6,9.9c0,.3.3.5.6.5h1v2.6c0,.4.3.6.6.6h1v8.6h-16c-.3.4-.3.6-.2.7.3.4,2.1-.5,2.4-.1.1.1,0,.2.1.4.1.1.3.2.5.2h13.1v2H1.32v-2h20.1c.3-.4.3-.6.3-.7-.2-.3-1.3.2-2.6-.3-.2-.1-.4-.2-.5-.2H.72c-.4,0-.6.3-.6.6v3.3c0,.4.3.6.6.6h2.6v3.2c0,.2,0,.3.1.4.1.2.3.1.5.2.4.2.1,1.4.1,1.4,0,0,.1-.4.5-2.1v-2.9h29.8v8.6H4.62v-2.9c0-1.1-.1-2.2-.1-3.3,0-.1-.1-.6-.4-.6s-.6.4-.8,1.1c0,.9,0,1.8.1,2.8v3.5c0,.1,0,.2.1.4.1.1.3.2.5.2h34.4c.4,0,.6-.3.6-.6v-17.8c0-.1-.1-.2-.1-.4-.1-.2-.2-.5-.2-.5-.2-.7.2-1.4-.1-1.8-.1-.1-.3-.2-.8-.1v20.1h-2v-21.7h2v1.6c0,.2,0,.3.1.4.1.2.4.2.5.2.6.3-.4,3.2-.2,3.3.1,0,.3-.2.8-1.1v-4.4h1c.4,0,.6-.3.6-.6v-2.6h1c.3,0,.6-.2.6-.5l1.6-9.9c.3-.3.2-.8-.4-.8ZM31.52,11.2h10.6l-.3,2h-9.9l-.4-2ZM34.22,4.7h5.4v2h-5.4v-2ZM42.62,8l-.3,2h-11l-.3-2s11.6,0,11.6,0ZM39.52,19.8h-5.4v-2h5.4v2ZM32.42,16.5l-.3-2h9.5l-.3,2h-8.9Z"/>
      <path class="cls-2" d="M10.52,40.8c.4,0,.6-.3.6-.6v-3.3c0-.4-.3-.6-.6-.6h-3.2c-.4,0-.6.3-.6.6v3.3c0,.4.3.6.6.6h3.2ZM7.92,37.5h2v2h-2s0-2,0-2Z"/>
      <path class="cls-2" d="M17.12,40.8c.4,0,.6-.3.6-.6v-3.3c0-.4-.3-.6-.6-.6h-3.3c-.4,0-.6.3-.6.6v3.3c0,.4.3.6.6.6h3.3ZM14.52,37.5h2v2h-2v-2Z"/>
      <path class="cls-2" d="M23.72,40.8c.4,0,.6-.3.6-.6v-3.3c0-.4-.3-.6-.6-.6h-3.3c-.4,0-.6.3-.6.6v3.3c0,.4.3.6.6.6h3.3ZM21.02,37.5h2v2h-2v-2Z"/>
      <path class="cls-2" d="M30.32,40.8c.4,0,.6-.3.6-.6v-3.3c0-.4-.3-.6-.6-.6h-3.3c-.4,0-.6.3-.6.6v3.3c0,.4.3.6.6.6h3.3ZM27.62,37.5h2v2h-2v-2Z"/>
    </g>
    <path class="cls-3" d="M4.52,9.8l-3.5,1.7-.2,1.3.7,1.4s7.5,2,7.8,2c.6.1,1.2.4,1.2.4l.2,2.5,2,.7h1l.2-2.2,1.1-.2,2.1.9,4.3-1.1,4.4-5-2.2-.4s-2.3,1.2-2.3,1.4c-.1.2-1.3,1-1.3,1l-5-1.6-.3-1,1.4-2-2.6-.5-2,1.6-.5.7-6.5-1.6Z"/>
    <path class="cls-2" d="M26.32,11.6l-2-.5c-.8-.2-1.7,0-2.3.6l-1.7,1.7-5-1.3,1.7-2c.3-.5.2-.8-.3-1.1l-1.6-.4c-1.2-.3-2.4.1-3.2,1l-1.1,1.3-5.2-1.4c-.7-.2-1.4-.2-2,.1l-3.1,1.5c-.2.1-.3.2-.4.4-.4,1.5.5,3.1,2,3.5,2,.5,4.9,1.3,7.6,2l.1,1.2c.1,1,.8,1.9,1.7,2.1l2,.5c.4.1.8-.2.8-.7l-.1-2c.9.2,1.7.4,2.3.6,1.7.4,3.7,0,5-1.2l2.5-2.2,2.5-2.8c.8-.5.2-.9-.2-.9ZM12.82,10.4c.5-.6,1.2-.8,1.9-.6l.6.2-1.4,1.7-1.8-.5.7-.8ZM12.02,19.1c-.4-.1-.8-.5-.8-1l-.2-3,1.9.5.2,3.9-1.1-.4ZM20.72,16.7c-1,.9-2.5,1.3-3.8.9-.7-.2-1.6-.4-2.7-.7l-.1-1.9c0-.3-.2-.5-.5-.6l-3.2-.9c-.5-.1-.8.2-.8.7l.1,1.4c-2.6-.7-5.3-1.4-7.2-1.9-.8-.3-1.2-.8-1.2-1.7l2.8-1.3c.3-.2.7-.2,1.1-.1l17.1,4.6-1.6,1.5ZM23.52,14.3l-1.7-.5,1.2-1.2c.3-.3.7-.4,1-.3l1,.3-1.5,1.7Z"/>
  </g>
  <path class="cls-1" d="M37.82,3.7h-1.4V1.4c0-.4.3-.7.7-.7h0c.4,0,.7.3.7.7v2.3Z"/>
</svg>