<?xml version="1.0" encoding="UTF-8"?>
<svg id="Layer_1" data-name="Layer 1" xmlns="http://www.w3.org/2000/svg" xmlns:xlink="http://www.w3.org/1999/xlink" viewBox="0 0 44 44">
  <defs>
    <style>
      .cls-1 {
        fill: url(#New_Gradient_Swatch-4);
      }

      .cls-2 {
        fill: url(#New_Gradient_Swatch-5);
      }

      .cls-3 {
        fill: url(#New_Gradient_Swatch-2);
      }

      .cls-4 {
        fill: url(#New_Gradient_Swatch);
      }

      .cls-5 {
        fill: url(#New_Gradient_Swatch-3);
      }
    </style>
    <linearGradient id="New_Gradient_Swatch" data-name="New Gradient Swatch" x1="22.62" y1="36.65" x2="22.62" y2="43.99" gradientUnits="userSpaceOnUse">
      <stop offset="0" stop-color="#001a4f"/>
      <stop offset="1" stop-color="#75a9c8"/>
    </linearGradient>
    <linearGradient id="New_Gradient_Swatch-2" data-name="New Gradient Swatch" x1="22.57" y1="19.39" x2="22.57" y2="40.09" xlink:href="#New_Gradient_Swatch"/>
    <linearGradient id="New_Gradient_Swatch-3" data-name="New Gradient Swatch" x1="31.49" y1="0" x2="31.49" y2="18.29" xlink:href="#New_Gradient_Swatch"/>
    <linearGradient id="New_Gradient_Swatch-4" data-name="New Gradient Swatch" x1="16.45" y1="5.58" x2="16.45" y2="17.09" xlink:href="#New_Gradient_Swatch"/>
    <linearGradient id="New_Gradient_Swatch-5" data-name="New Gradient Swatch" x1="5.03" y1="9.5" x2="5.03" y2="16.99" xlink:href="#New_Gradient_Swatch"/>
  </defs>
  <path class="cls-4" d="M34.47,40.49l-2.3-3.6c-.2-.2-.5-.3-.7-.2-2.7,1.4-5.8,2.2-8.9,2.2s-6.2-.8-8.9-2.2c-.3-.1-.6,0-.7.2l-2.3,3.6c-.4.7-.5,1.6-.1,2.3s1.1,1.2,2,1.2h20.1c.8,0,1.6-.4,2-1.2s.3-1.6-.2-2.3Z"/>
  <path class="cls-3" d="M42.07,20.29c-.5-.6-1.2-.9-2-.9H4.97c-.8,0-1.5.3-2,.9s-.7,1.4-.6,2.1c.6,4.9,3,9.3,6.7,12.6,3.7,3.3,8.5,5.1,13.4,5.1s9.8-1.9,13.5-5.1,6.1-7.7,6.8-12.5c.1-.8-.1-1.6-.7-2.2h0ZM26.57,29.99h-3.4v3.4c0,.3-.3.6-.6.6s-.6-.3-.6-.6v-3.4h-3.4c-.3,0-.6-.3-.6-.6s.3-.6.6-.6h3.4v-3.4c0-.3.3-.6.6-.6s.6.3.6.6v3.4h3.4c.3,0,.6.3.6.6.1.3-.2.6-.6.6Z"/>
  <path class="cls-5" d="M41.67,1.19c-1.7-1.6-4.4-1.6-6.1.1-.6.7-1,1.6-1.1,2.6,0,.5-.4.9-.9,1s-.9.3-1.2.6l-12.3,11.9c-.2.2-.2.4-.1.6s.3.3.5.3h9.5c.2,0,.3-.1.4-.2l7.2-7.4c.3-.3.5-.7.6-1.2h0c.1-.5.5-.9,1-.9,1-.1,1.9-.5,2.6-1.2.8-.8,1.3-1.9,1.3-3.1s-.5-2.3-1.4-3.1Z"/>
  <path class="cls-1" d="M22.67,6.09c-.1-.2-.2-.3-.4-.4-2.8-.3-5.3,0-7.3.8-1.7.8-3,2-3.9,3.5-1.1,1.9-1.2,4.1-.3,5.6.5-.8,1.4-1.7,2.6-2.9,1.4-1.3,2.6-2.5,2.7-2.5.3-.2.6-.2.9.1.2.3.2.6-.1.9,0,0-1.3,1.1-2.6,2.5-1.5,1.5-2.3,2.4-2.6,3,.4.2,1,.4,1.8.4h.3c1.4,0,2.7-.4,3.8-1.3,1.2-.9,2-2.2,2.4-3.6.9-3.4,2.6-5.4,2.6-5.4.2-.3.2-.5.1-.7h0Z"/>
  <path class="cls-2" d="M4.57,13.19c-.2-.2-.3-.6,0-.9.2-.2.6-.3.9,0,.5.4,2.4,2.3,3.3,3.6.5-1,.5-2.4-.2-3.7-.6-.9-2.5-3.2-7.2-2.6-.2,0-.4.1-.4.3-.1.2,0,.4.1.6,0,0,1.1,1.2,1.6,3.3.5,1.9,2.2,3.2,4.1,3.2h.2c.4,0,.7-.1.9-.1-.6-1-2.2-2.6-3.3-3.7h0Z"/>
</svg>