<?xml version="1.0" encoding="UTF-8"?>
<svg id="Layer_1" data-name="Layer 1" xmlns="http://www.w3.org/2000/svg" xmlns:xlink="http://www.w3.org/1999/xlink" viewBox="0 0 44 44">
  <defs>
    <style>
      .cls-1 {
        fill: url(#New_Gradient_Swatch-4);
      }

      .cls-2 {
        fill: url(#New_Gradient_Swatch-5);
      }

      .cls-3 {
        fill: #fff;
      }

      .cls-4 {
        fill: url(#New_Gradient_Swatch-2);
      }

      .cls-5 {
        fill: url(#New_Gradient_Swatch-6);
      }

      .cls-6 {
        fill: url(#New_Gradient_Swatch-7);
      }

      .cls-7 {
        fill: url(#New_Gradient_Swatch);
      }

      .cls-8 {
        fill: url(#New_Gradient_Swatch-8);
      }

      .cls-9 {
        fill: url(#New_Gradient_Swatch-3);
      }
    </style>
    <linearGradient id="New_Gradient_Swatch" data-name="New Gradient Swatch" x1="22.06" y1="9.98" x2="22.06" y2="42.28" gradientUnits="userSpaceOnUse">
      <stop offset="0" stop-color="#001a4f"/>
      <stop offset="1" stop-color="#75a9c8"/>
    </linearGradient>
    <linearGradient id="New_Gradient_Swatch-2" data-name="New Gradient Swatch" x1="19.76" y1="1.02" x2="19.76" y2="7.18" xlink:href="#New_Gradient_Swatch"/>
    <linearGradient id="New_Gradient_Swatch-3" data-name="New Gradient Swatch" x1="34.61" y1="3.66" x2="34.61" y2="13.48" xlink:href="#New_Gradient_Swatch"/>
    <linearGradient id="New_Gradient_Swatch-4" data-name="New Gradient Swatch" x1="36.81" y1="9.68" x2="36.81" y2="14.08" xlink:href="#New_Gradient_Swatch"/>
    <linearGradient id="New_Gradient_Swatch-5" data-name="New Gradient Swatch" x1="32.11" y1="3.28" x2="32.11" y2="7.68" xlink:href="#New_Gradient_Swatch"/>
    <linearGradient id="New_Gradient_Swatch-6" data-name="New Gradient Swatch" x1="8.71" y1="8.03" x2="8.71" y2="9.68" xlink:href="#New_Gradient_Swatch"/>
    <linearGradient id="New_Gradient_Swatch-7" data-name="New Gradient Swatch" x1="6.14" y1="11.03" x2="6.14" y2="21.98" xlink:href="#New_Gradient_Swatch"/>
    <linearGradient id="New_Gradient_Swatch-8" data-name="New Gradient Swatch" x1="37.59" y1="14.56" x2="37.59" y2="31.88" xlink:href="#New_Gradient_Swatch"/>
  </defs>
  <g>
    <path class="cls-7" d="M1.01,22.88v14.6h6.1l.7-1.2h2.3l17.1,6,14.5-3.7,1.4-2.9-3.2-2-4.8.9-.8.6-.5-14.9-7-.5-.8-9.8h-6.6c-.5,1.7-1,3.4-1.4,5.1-2.2.2-4.4.3-6.6.5-.1,3-.3,6-.4,8.9-1.2.2-2.5.4-3.7.6l-.6-2.4c-1.9.2-3.8.2-5.7.2Z"/>
    <path class="cls-3" d="M43.91,35.58c-.2-1-.8-1.8-1.6-2.4-.9-.5-1.9-.7-2.9-.5l-4.6,1.1v-1.9c.9-.9,1.9-2,2.6-3,1.2-1.8,2-3.8,2.5-5.9.6-2.5.6-5.2,0-7.7-.1-.5-.6-.8-1-.7-.5.1-.8.6-.7,1,.5,2.3.5,4.7,0,7-.4,1.9-1.2,3.7-2.3,5.3-.3.5-.7,1-1.1,1.5v-9.5c0-.5-.4-.9-.9-.9h-6.8v-9.2c0-.5-.4-.9-.9-.9h-7.7c-.2,0-.4.1-.6.3s-.3.4-.3.6v4.8h-6.6c-.5,0-.9.4-.9.9v8.5h-1.9v-1.2c0-.5-.4-.9-.9-.9h-.8c-.2-.8-.2-1.7-.3-2.5-.1-2,.3-4,1-5.9.2-.4.3-.9.5-1.3.2-.4,0-.9-.4-1.1-.4-.2-.9,0-1.1.4-.2.5-.4,1-.6,1.4-.8,2.1-1.1,4.3-1.1,6.6,0,.8.1,1.6.2,2.5H.91c-.5,0-.9.4-.9.9v15.1c0,.5.4.9.9.9h6.5c.5,0,.9-.4.9-.9v-.8h3.2l13.1,5.1c1.2.5,2.5.7,3.8.7.9,0,1.7-.1,2.6-.3l10.2-2.7c1.9-.5,3.1-2.4,2.7-4.4ZM33.11,20.68v13.4l-2.3.5c-.2.1-.5.1-.7.1-1,.1-1.9.1-2.9-.1h0v-1.3c.7-1,.9-2.2.5-3.3-.1-.3-.2-.6-.4-.9,0-.1-.1-.1-.1-.2h0v-8.3l5.9.1h0ZM19.51,10.68h5.9v16.9l-3.3-1.4-2.6-1.1v-14.4ZM11.91,16.28h5.9v8.2l-1.1-.5c-.1,0-.2-.1-.3-.1h-4.5s0-7.6,0-7.6ZM6.51,36.98H1.71v-13.4h4.8v13.4ZM40.81,38.28l-10.3,2.6c-1.8.5-3.6.3-5.3-.3l-13.2-5.2c-.1,0-.2-.1-.3-.1h-3.5v-9.7h8l5.6,2.3,3,1.3c1.1.4,1.6,1.7,1.2,2.8l-.3.6c-.5.7-1.4,1-2.3.8h-.1l-5.8-2.2h-.1c-.4-.2-.9.1-1.1.5-.2.4.1.9.5,1.1,0,0,3.3,1.3,5.7,2.2q.1,0,.1.1l1.9.7c.6.2,1.2.4,1.8.6,1,.3,2.1.4,3.1.3.6,0,1.2-.1,1.8-.2l3-.7h0l5.6-1.3c.5-.1,1.1,0,1.5.3.5.3.8.8.9,1.3.3.9-.4,1.9-1.4,2.2Z"/>
    <path class="cls-4" d="M11.01,7.18c.2,0,.4-.1.6-.2,1.5-1.4,3.4-2.5,5.3-3.2,2.1-.8,4.3-1.1,6.6-1,1.6.1,3.2.4,4.7,1,.4.2.9-.1,1.1-.5s-.1-.9-.5-1.1c-1.7-.6-3.4-1-5.2-1.1-2.5-.2-5,.2-7.3,1-2.1.8-4.2,2-5.9,3.5-.3.4-.4,1,0,1.3.1.2.4.3.6.3Z"/>
    <path class="cls-9" d="M30.51,13.28c.2.1.4.2.6.2s.5-.1.6-.3l7.1-8.1c.3-.4.3-.9-.1-1.2-.4-.3-.9-.3-1.2.1l-7.1,8.1c-.3.4-.3.9.1,1.2Z"/>
    <path class="cls-1" d="M36.81,9.68c-1.2,0-2.2,1-2.2,2.2s1,2.2,2.2,2.2,2.2-1,2.2-2.2c0-1.3-1-2.2-2.2-2.2ZM36.81,12.28c-.2,0-.4-.2-.4-.4s.2-.4.4-.4.4.2.4.4c.1.2-.1.4-.4.4Z"/>
    <path class="cls-2" d="M32.11,7.68c1.2,0,2.2-1,2.2-2.2s-1-2.2-2.2-2.2-2.2,1-2.2,2.2,1,2.2,2.2,2.2ZM32.11,5.08c.2,0,.4.2.4.4s-.2.4-.4.4-.4-.2-.4-.4c-.1-.2.1-.4.4-.4Z"/>
    <path class="cls-5" d="M7.91,9.18c.1.3.5.5.8.5.4,0,.7-.3.8-.6s0-.7-.3-.9c-.2-.2-.6-.2-.9,0-.4.2-.5.6-.4,1Z"/>
  </g>
  <path class="cls-6" d="M6.21,19.38c-.1-1.3.1-2.5.2-3,.2-1,.5-2,.8-2.9.2-.4.3-.9.5-1.3.2-.4,0-.9-.4-1.1-.4-.2-1,.3-1.1.4-.4.3-.7.8-1.1,2.3-.2.8-.3,1.2-.4,1.8-.3,1.5-.2,2.7-.2,3.9,0,.6.1,1.5.2,2.5.6,0,1.2-.1,1.8-.1,0-.3-.1-.6-.2-1,0-.1-.1-.9-.1-1.5Z"/>
  <path class="cls-8" d="M37.41,28.88c1.5-2.3,2.1-4.3,2.5-5.9.6-2.5.6-5.2,0-7.7-.1-.5-.6-.8-1-.7-.5.1-.8.6-.7,1,.5,2.3.5,4.7,0,7-.5,2.3-1.6,4.2-2.3,5.3-.4.6-.8,1.1-1.1,1.5v2.5c.7-.7,1.7-1.7,2.6-3Z"/>
</svg>