<?xml version="1.0" encoding="UTF-8"?>
<svg id="Layer_1" data-name="Layer 1" xmlns="http://www.w3.org/2000/svg" xmlns:xlink="http://www.w3.org/1999/xlink" viewBox="0 0 44 44">
  <defs>
    <style>
      .cls-1 {
        fill: url(#New_Gradient_Swatch);
      }
    </style>
    <linearGradient id="New_Gradient_Swatch" data-name="New Gradient Swatch" x1="22" y1="2.1" x2="22" y2="41.9" gradientUnits="userSpaceOnUse">
      <stop offset="0" stop-color="#001a4f"/>
      <stop offset="1" stop-color="#75a9c8"/>
    </linearGradient>
  </defs>
  <path class="cls-1" d="M41.1,13c2.6-3,3.5-5.5,2.5-7.1-1-1.7-3.7-2.2-7.9-1.3.3.3.6.7.8,1.1,3.2-.6,5.4-.3,6,.8.6,1.1-.2,3.2-2.4,5.7-.3-.2-.7-.5-1.1-.7-.3-.2-.6-.3-.9-.4-.4-.2-.9-.3-1.3-.4-.1-1.3-.5-2.5-1-3.6-.5-1-1.1-1.9-1.9-2.5-.5-.4-1-.8-1.6-1.1-2.8-1.2-6.3-.4-10.1,2.4,2.1,1.4,4.4,2.2,6.9,2.4l-.1,1.2c-3-.2-5.7-1.2-8.2-3.1h0c-2.8-2.2-5.5-3.4-7.9-3.5-1.8,0-3.4.6-4.7,1.8l3.5,1.7c.2.2.3.4.3.7,0,.2-.1.5-.3.6l-4.1,2-2,4.1v.1c.1,1.3.5,3,1.3,4.8.5,1.1,1.1,2.2,1.9,3.4.3.4.5.8.8,1.1.1.1.1.2.1.4.1,1.9.2,3.6.3,5.2,1.8-.5,3.9-1.2,6.2-2.2,4.1-1.7,8-3.8,9.7-4.7.1,0,.2-.1.2-.1.1.4.2.8.4,1.2-1.9,1.1-5.8,3.2-9.8,4.8-2.5,1-4.7,1.8-6.6,2.3-.4.1-.8.2-1.2.3-1.8.4-3.2.4-4.3.1-.8-.2-1.3-.6-1.6-1.1-.9-1.4.7-4.3,4-7.6-.2-.4-.4-.8-.6-1.1C2.3,24.7.6,28,1.8,30c.5.8,1.3,1.4,2.4,1.7.5.1,1.2.2,1.8.2.9,0,1.9-.1,2.9-.3.4-.1.8-.2,1.2-.3,0,.3.1.5.1.8.3,1.9,1.4,9.5,3.5,9.8.6.1,2.7-.5,5.9-11,.2-.7.8-1.1,1.5-1.1s1.3.4,1.5,1.1c3.2,10.4,5.3,11,5.9,11,1.5-.2,3.2-4.4,4-13.5.4.1.8.2,1.2.2s.7.1,1.1.1c5,0,9.1-4.1,9.1-9.1,0-2.1-.7-4.1-2-5.7-.2-.3-.5-.6-.8-.9h0ZM34.8,27.4c-2.5,0-4.7-1.1-6.1-2.9-.8-1-1.4-2.2-1.6-3.5-.1-.5-.1-1-.1-1.5,0-4.3,3.5-7.8,7.9-7.8,1.2,0,2.3.3,3.3.7,1.2.5,2.2,1.4,2.9,2.4,1,1.3,1.6,2.9,1.6,4.7,0,4.4-3.5,7.9-7.9,7.9ZM39.9,32.6l2,1.1-2,1.1c-.2.1-.3.2-.4.4l-1,2.2-1-2.2c-.1-.2-.2-.3-.4-.4l-2-1.1,2-1.1c.2-.1.3-.2.4-.4l1-2.2,1,2.2c.1.1.2.3.4.4h0ZM3.1,8.6L0,7.1l3.1-1.6c.1-.1.2-.2.3-.3l1.6-3.1,1.6,3.1.3.3,3.1,1.6-3.2,1.5c-.1.1-.2.2-.2.3l-1.6,3.1-1.6-3.1c-.1-.1-.2-.2-.3-.3h0ZM40.5,18.1v2.9c0,.3-.3.6-.6.6h-2.9v2.9c0,.3-.3.6-.6.6h-2.9c-.3,0-.6-.3-.6-.6v-2.9h-2.9c-.3,0-.6-.3-.6-.6v-2.9c0-.3.3-.6.6-.6h2.9v-2.9c0-.3.3-.6.6-.6h2.9c.3,0,.6.3.6.6v2.9h2.9c.3,0,.6.3.6.6h0Z"/>
</svg>