<?xml version="1.0" encoding="UTF-8"?>
<svg id="Layer_1" data-name="Layer 1" xmlns="http://www.w3.org/2000/svg" xmlns:xlink="http://www.w3.org/1999/xlink" viewBox="0 0 44 44">
  <defs>
    <style>
      .cls-1 {
        fill: #fff;
      }

      .cls-2 {
        fill: url(#New_Gradient_Swatch-2);
      }

      .cls-3 {
        fill: url(#New_Gradient_Swatch);
      }

      .cls-4 {
        fill: url(#New_Gradient_Swatch-3);
      }
    </style>
    <linearGradient id="New_Gradient_Swatch" data-name="New Gradient Swatch" x1="22.3" y1=".76" x2="22.3" y2="33.78" gradientUnits="userSpaceOnUse">
      <stop offset="0" stop-color="#001a4f"/>
      <stop offset="1" stop-color="#75a9c8"/>
    </linearGradient>
    <linearGradient id="New_Gradient_Swatch-2" data-name="New Gradient Swatch" x1="21.95" y1="33.78" x2="21.95" y2="39.78" xlink:href="#New_Gradient_Swatch"/>
    <linearGradient id="New_Gradient_Swatch-3" data-name="New Gradient Swatch" x1="22" y1="40.28" x2="22" y2="42.88" xlink:href="#New_Gradient_Swatch"/>
  </defs>
  <path class="cls-3" d="M40.95,6.78v27H3.65V6.78h25.57c.05-.17.13-.34.23-.5l2.7-4.4c.7-1.1,2.1-1.5,3.3-.7l.6.4c1.1.7,1.4,2.2.7,3.3l-1.17,1.9h5.37Z"/>
  <rect class="cls-2" x="19.75" y="33.78" width="4.4" height="6"/>
  <rect class="cls-4" x="14.85" y="40.28" width="14.3" height="2.6"/>
  <g>
    <path class="cls-1" d="M38.35,5.68h-.5c1-1.6.6-3.8-1-5-1.7-1.3-4.2-.9-5.4.9l-2.7,4.1H5.55c-1.9,0-3.5,1.6-3.5,3.5v22.2c0,1.9,1.6,3.5,3.5,3.5h13.5l-1,4.3h-2.2c-1.4,0-2.6,1.2-2.6,2.6v.5h-2.7c-.5,0-.9.4-.9.9s.4.9.9.9h22.9c.5,0,.9-.4.9-.9s-.4-.9-.9-.9h-2.7v-.5c0-1.4-1.2-2.6-2.6-2.6h-2.2l-1-4.3h13.5c1.9,0,3.5-1.6,3.5-3.5V9.18c-.1-1.9-1.7-3.5-3.6-3.5h0ZM26.05,20.78c-1.3.9-3.9-.3-6.3.9-.6-3-.2-5.9,2.8-6.5.4-.1.8-.1,1.2-.1,1,.8,2.1,1.5,3.1,2.3.5,1.3.4,2.6-.8,3.4h0ZM26.95,11.58l2.4,1.8-1.9,2.3c-.8-.6-1.4-1.1-2.2-1.6.2-.3,1.5-2.3,1.7-2.5ZM32.95,2.58c.7-1,2-1.2,2.9-.5s1.1,2,.4,2.9c-1.3,1.6-4.4,5.4-5.8,7l-2.6-1.9,5.1-7.5ZM28.95,41.68v.5h-14v-.5c0-.5.4-.9.9-.9h12.3c.4.1.8.5.8.9h0ZM24.15,39.08h-4.4l1-4.3h2.4l1,4.3ZM40.15,31.38c0,1-.8,1.8-1.8,1.8H5.45c-1,0-1.8-.8-1.8-1.8v-4h2.5c.5,0,.9-.4.9-.9s-.4-.9-.9-.9h-2.4V9.18c0-1,.8-1.8,1.8-1.8h22.1c-.8,1.2-3.2,4.8-4,6-1.7,0-3.4.6-4.5,1.9-1.5,1.7-1.8,4.5-.8,8.2.2.6,1,.9,1.4.4,2.2-2.1,5,.2,7.5-1.8,1.5-1.2,1.9-3.2,1.3-5,.8-.9,7.1-8.7,7.9-9.6h1.9c1,0,1.8.8,1.8,1.8v16.5H13.15c-.5,0-.9.4-.9.9s.4.9.9.9h27v3.8Z"/>
    <path class="cls-1" d="M9.45,25.68c-.4.1-.7.4-.7.8,0,.5.5.9,1,.8s.8-.6.7-1c0-.4-.5-.7-1-.6h0Z"/>
  </g>
</svg>