<?xml version="1.0" encoding="UTF-8"?>
<svg id="Layer_1" data-name="Layer 1" xmlns="http://www.w3.org/2000/svg" xmlns:xlink="http://www.w3.org/1999/xlink" viewBox="0 0 44 44">
  <defs>
    <style>
      .cls-1 {
        fill: url(#New_Gradient_Swatch-4);
      }

      .cls-2 {
        fill: #fff;
      }

      .cls-3 {
        fill: url(#New_Gradient_Swatch-2);
      }

      .cls-4 {
        fill: url(#New_Gradient_Swatch);
      }

      .cls-5 {
        fill: url(#New_Gradient_Swatch-3);
      }
    </style>
    <linearGradient id="New_Gradient_Swatch" data-name="New Gradient Swatch" x1="16.05" y1="3.32" x2="16.05" y2="6.68" gradientUnits="userSpaceOnUse">
      <stop offset="0" stop-color="#001a4f"/>
      <stop offset="1" stop-color="#75a9c8"/>
    </linearGradient>
    <linearGradient id="New_Gradient_Swatch-2" data-name="New Gradient Swatch" x1="22.05" y1="7.5" x2="22.05" y2="42.9" xlink:href="#New_Gradient_Swatch"/>
    <linearGradient id="New_Gradient_Swatch-3" data-name="New Gradient Swatch" x1="22.05" y1=".4" x2="22.05" y2="4.6" xlink:href="#New_Gradient_Swatch"/>
    <linearGradient id="New_Gradient_Swatch-4" data-name="New Gradient Swatch" x1="28.03" y1="3.35" x2="28.03" y2="6.7" xlink:href="#New_Gradient_Swatch"/>
  </defs>
  <g>
    <path class="cls-4" d="M14.55,4.5c-.2-.2-.2-.6,0-.9.3-.3.7-.4,1-.1l2,2c.2.2.2.6,0,.9-.3.3-.7.4-1,.1l-2-2Z"/>
    <path class="cls-3" d="M42.65,17.3v25.2H4.25v.4H1.45v-25.1h2.3v-3.6h11.11c.05-3.75,3.12-6.7,6.79-6.7h.7c3.59,0,6.61,2.91,6.61,6.46,0,.08,0,.16-.01.24h11.8v3.1h1.9Z"/>
    <path class="cls-5" d="M21.35,3.9V1.1c0-.4.3-.7.7-.7s.7.3.7.7v2.8c0,.4-.3.7-.7.7s-.7-.3-.7-.7Z"/>
    <path class="cls-1" d="M26.55,6.5c-.3-.3-.3-.7,0-1l2-2c.2-.2.6-.2.9,0,.3.3.4.7.1,1l-2,2c-.1.1-.3.2-.5.2s-.4-.1-.5-.2Z"/>
  </g>
  <path class="cls-2" d="M41.25,16.7v-1.4c0-.6-.2-1.2-.7-1.6-.4-.4-1-.6-1.6-.6-2.6.1-5.2.3-7.8.8l-.9.2c-.5-4.5-4.5-7.8-9-7.3-3.7.4-6.7,3.3-7.3,7v.4c-2.9-.6-5.8-.9-8.8-1-1.2,0-2.2.9-2.3,2.1v1.5c-1.6.3-2.8,1.7-2.8,3.4v19.9c0,2,1.6,3.5,3.5,3.5h36.9c2,0,3.5-1.6,3.5-3.5v-19.9c.1-1.7-1.1-3.1-2.7-3.5ZM15.35,13.9c.5-3,2.9-5.4,5.9-5.7h.8c1.7,0,3.3.6,4.5,1.7,2.8,2.5,3,6.8.5,9.6l-.9.9c-1.2.9-1.9,2.3-2,3.8,0,.6-.5,1-1,1h-.4v-5c0-.2-.1-.3-.2-.5l-2.5-3h3.9l-1.3,1.3c-.3.3-.2.7.1,1,.3.2.7.2.9,0l2.5-2.5c.3-.3.3-.7,0-1-.1-.1-.3-.2-.5-.2h-7.1c-.4,0-.7.3-.7.7,0,.2.1.3.2.5l3.4,4.1v4.7h-.4c-.6,0-1-.5-1-1h0c0-1.5-.7-2.9-2-3.8-2.1-1.7-3.1-4.1-2.7-6.6ZM4.35,15.3c0-.4.4-.8.8-.8h0c2.9.1,5.9.4,8.8,1,.2,2.3,1.3,4.5,3.2,5.9.9.6,1.4,1.6,1.4,2.7,0,1.3,1.1,2.4,2.4,2.4h2.3c1.3,0,2.4-1.1,2.4-2.4h0c0-1.1.5-2.1,1.4-2.7,1.9-1.4,3-3.6,3.2-5.9l1.2-.2c2.5-.4,5-.7,7.6-.8.2,0,.4.1.6.2.2.1.2.3.2.6v22.6c0,.4-.3.8-.7.8-5.6.1-11.1,1.1-16.3,3.1v-12.3h.7c.4,0,.7-.3.7-.7s-.4-.8-.8-.8h-2.8c-.4,0-.7.3-.7.7s.3.7.7.7h.7v12.4c-5.2-2-10.7-3.1-16.3-3.2-.4,0-.8-.4-.8-.8l.1-22.5h0ZM1.45,40.1v-19.9c0-.9.6-1.7,1.4-2v19.7c0,1.2.9,2.2,2.1,2.2,4.5.1,8.9.8,13.1,2.1H3.55c-1.1,0-2.1-.9-2.1-2.1ZM42.65,40.1c0,1.2-1,2.1-2.1,2.1h-14.6c4.3-1.3,8.7-2,13.1-2.1,1.2,0,2.1-1,2.1-2.2v-19.7c.9.3,1.4,1.1,1.4,2l.1,19.9h0Z"/>
  <path class="cls-2" d="M7.05,18.8c1,.1,1.9.2,2.8.3h.1c.4,0,.7-.3.8-.7,0-.4-.3-.7-.7-.8-.9-.1-1.9-.2-2.9-.3-.4,0-.7.3-.8.7.1.4.4.8.7.8h0Z"/>
  <path class="cls-2" d="M7.05,21.7c1.7.1,3.5.3,5.2.6h.1c.4,0,.7-.3.8-.6,0-.4-.3-.7-.6-.8-1.8-.3-3.5-.5-5.3-.6-.4,0-.7.3-.8.7,0,.4.3.7.6.7h0Z"/>
  <path class="cls-2" d="M6.45,26c0,.4.3.7.7.8,3.8.2,7.6.9,11.2,2,.4.1.8-.1.9-.5s-.1-.8-.5-.9c-3.7-1.2-7.6-1.9-11.5-2.1-.5-.1-.8.2-.8.7q0-.1,0,0Z"/>
  <path class="cls-2" d="M18.75,30.9c-3.7-1.2-7.6-1.9-11.5-2.1-.4,0-.7.3-.8.7,0,.4.3.7.7.8,3.8.2,7.6.9,11.2,2,.4.1.7-.2.8-.6,0-.4-.2-.7-.4-.8Z"/>
  <path class="cls-2" d="M18.75,34.4c-3.7-1.2-7.6-1.9-11.5-2.1-.4,0-.7.3-.8.7,0,.4.3.7.7.8,3.8.3,7.5,1,11.2,2.1.4.1.8-.1.9-.5s-.1-.9-.5-1Z"/>
  <path class="cls-2" d="M25.55,28.8h.2c3.6-1.1,7.4-1.8,11.2-2,.4,0,.7-.4.7-.8s-.4-.7-.8-.7c-3.9.3-7.8,1-11.5,2.1-.4.1-.7.4-.6.8.1.5.5.7.8.6h0Z"/>
  <path class="cls-2" d="M25.55,32.2h.2c3.6-1.1,7.4-1.8,11.2-2.1.4,0,.7-.4.7-.8s-.4-.7-.8-.7c-3.9.3-7.8,1-11.5,2.1-.4.1-.7.4-.6.8.1.6.5.8.8.7h0Z"/>
  <path class="cls-2" d="M25.55,35.8h.2c3.6-1.1,7.4-1.8,11.2-2,.4,0,.7-.4.7-.8s-.4-.7-.8-.7c-3.9.2-7.8.9-11.5,2-.4.1-.7.4-.6.8.1.5.5.8.8.7Z"/>
</svg>