<?xml version="1.0" encoding="UTF-8"?>
<svg id="Layer_1" data-name="Layer 1" xmlns="http://www.w3.org/2000/svg" xmlns:xlink="http://www.w3.org/1999/xlink" viewBox="0 0 44 44">
  <defs>
    <style>
      .cls-1 {
        fill: url(#New_Gradient_Swatch-4);
      }

      .cls-2 {
        fill: url(#New_Gradient_Swatch-5);
      }

      .cls-3 {
        fill: #fff;
      }

      .cls-4 {
        fill: url(#New_Gradient_Swatch-2);
      }

      .cls-5 {
        fill: url(#New_Gradient_Swatch-6);
      }

      .cls-6 {
        fill: url(#New_Gradient_Swatch-7);
      }

      .cls-7 {
        fill: url(#New_Gradient_Swatch);
      }

      .cls-8 {
        fill: url(#New_Gradient_Swatch-8);
      }

      .cls-9 {
        fill: url(#New_Gradient_Swatch-3);
      }

      .cls-10 {
        fill: url(#New_Gradient_Swatch-10);
      }

      .cls-11 {
        fill: url(#New_Gradient_Swatch-9);
      }
    </style>
    <linearGradient id="New_Gradient_Swatch" data-name="New Gradient Swatch" x1="22.3" y1=".7" x2="22.3" y2="43.4" gradientUnits="userSpaceOnUse">
      <stop offset="0" stop-color="#001a4f"/>
      <stop offset="1" stop-color="#75a9c8"/>
    </linearGradient>
    <linearGradient id="New_Gradient_Swatch-2" data-name="New Gradient Swatch" x1="11.75" y1="8.8" x2="11.75" y2="10.2" xlink:href="#New_Gradient_Swatch"/>
    <linearGradient id="New_Gradient_Swatch-3" data-name="New Gradient Swatch" x1="29.35" y1="8.8" x2="29.35" y2="10.2" xlink:href="#New_Gradient_Swatch"/>
    <linearGradient id="New_Gradient_Swatch-4" data-name="New Gradient Swatch" x1="20.55" y1="0" x2="20.55" y2="1.4" xlink:href="#New_Gradient_Swatch"/>
    <linearGradient id="New_Gradient_Swatch-5" data-name="New Gradient Swatch" x1="12.93" y1="4.4" x2="12.93" y2="5.9" xlink:href="#New_Gradient_Swatch"/>
    <linearGradient id="New_Gradient_Swatch-6" data-name="New Gradient Swatch" x1="28.2" y1="13.2" x2="28.2" y2="14.7" xlink:href="#New_Gradient_Swatch"/>
    <linearGradient id="New_Gradient_Swatch-7" data-name="New Gradient Swatch" x1="24.95" y1="1.2" x2="24.95" y2="2.6" xlink:href="#New_Gradient_Swatch"/>
    <linearGradient id="New_Gradient_Swatch-8" data-name="New Gradient Swatch" x1="28.2" y1="4.4" x2="28.2" y2="5.9" xlink:href="#New_Gradient_Swatch"/>
    <linearGradient id="New_Gradient_Swatch-9" data-name="New Gradient Swatch" x1="12.92" y1="13.2" x2="12.92" y2="14.7" xlink:href="#New_Gradient_Swatch"/>
    <linearGradient id="New_Gradient_Swatch-10" data-name="New Gradient Swatch" x1="16.2" y1="1.12" x2="16.2" y2="2.64" xlink:href="#New_Gradient_Swatch"/>
  </defs>
  <g id="Outline">
    <path class="cls-7" d="M1.15,13.2v26.4l1,2.3,3.1,1.5h38.2v-24.7l-2.7-.3-.2-14.9-3-2.8-2.3,1.5v16.2l-10.3.5v-2.8l-1.4-1,2.8-4-.7-5.2-2.8-1.5c-.2-.2-1.2-1-2.7-1-1.4,0-2.3.7-2.5,1-.4.2-2.2,1.1-2.9,3.3-.7,2.1,0,4.4,1.8,6,.1.6.1,1.1.2,1.7-.1,0-.9,0-1.3.6-.4.5-.4,1.3,0,1.9-.2.2-.4.4-.6.6-1.5-.1-3.1-.1-4.6-.2-.3-1.3-.6-2.6-1-3.9-.7-.9-1.4-1.7-2.1-2.6-.6-.1-1.9-.4-3.4,0-1.3.3-2.2,1-2.6,1.4Z"/>
    <g>
      <path class="cls-3" d="M27.95,19.1h3.7c.4,0,.7-.3.7-.7s-.3-.7-.7-.7h-3.7c-.4,0-.7.3-.7.7s.3.7.7.7Z"/>
      <path class="cls-3" d="M43.35,17.6c-.3,0-.5.2-.5.2-.1.1-.2.3-.2.5v24.2H5.15c-2,0-3.7-1.6-3.7-3.7s1.6-3.7,3.7-3.7,3.7,1.6,3.7,3.7c0,.4.3.7.7.7s.7-.3.7-.7v-19.7c11.2,0,22.5-.1,33.7-.1v-1.5c-11.2.1-22.5.1-33.7.2v-2.2c0-2.8-2.3-5.1-5.1-5.1S.05,12.6.05,15.4v23.5c0,2.8,2.3,5.1,5.1,5.1h38.1c.4,0,.7-.3.7-.7v-25.4s-.2-.3-.6-.3ZM1.55,15.4c0-2,1.6-3.7,3.7-3.7s3.7,1.6,3.7,3.7v19.9c-2-2-5.2-2.1-7.2-.1l-.1.1-.1-19.9h0Z"/>
      <path class="cls-3" d="M33.85,26.7l1.2,2.9,1.8,4.4c.1.4.6.6,1,.4.2-.1.3-.2.4-.4l1.8-4.4,1.2-2.9v-12.8c0-.4-.3-.7-.7-.7s-.7.3-.7.7v11.7h-1.5V8.8h1.5v5.1c.2.4.5.6.8.5.4-.1.5-.5.6-.5V3.7c0-2-1.6-3.7-3.7-3.7s-3.7,1.6-3.7,3.7v22.7c-.1.1,0,.2,0,.3ZM36.75,30.1h1.4l-.7,1.7-.7-1.7ZM38.75,28.6h-2.5l-.6-1.5h3.7l-.6,1.5ZM36.75,25.7h-1.5V8.8h1.5v16.9ZM35.25,7.3v-1.4h4.4v1.5l-4.4-.1h0ZM35.25,3.7c0-1.2,1-2.2,2.2-2.2s2.2,1,2.2,2.2v.7h-4.4v-.7Z"/>
      <path class="cls-3" d="M16.15,14.4v.4c-1.1.4-1.7,1.6-1.3,2.8.2.6.7,1.1,1.3,1.3v.1c0,1.9,1.2,3.6,3,4.2-.8.8-1.8,1.3-2.8,1.6l-1.1.3c-1.9.5-3.1,2.4-2.6,4.4.4,1.6,1.9,2.8,3.5,2.7h1.5c.4,0,.7-.3.7-.7s-.3-.7-.7-.7h-1.5c-1.2,0-2.1-1-2.1-2.2,0-1,.7-1.8,1.6-2.1l1.1-.3c1.7-.4,3.2-1.4,4.2-2.8,2.3-.2,4-2.1,4-4.4v-.1c1.1-.4,1.7-1.6,1.3-2.8-.2-.6-.7-1.1-1.3-1.3v-.4c2.3-2.1,2.9-5.6,1.3-8.3-.2-.3-.7-.5-1-.3s-.5.7-.3,1c1.3,2.2.8,5-1.2,6.6-.2.1-.3.3-.3.6v.6h-.6l.6-5.8c0-.4-.2-.8-.6-.8h-.3l-2,.7-2-.7c-.4-.1-.8.1-.9.5v.3l.6,5.8h-.6v-.6c0-.2-.1-.4-.3-.6-2.2-1.8-2.6-5-.8-7.2,1.1-1.3,2.7-2,4.3-1.9,1.1.1,1.9.5,2.3.7,1.1.6,1.6,1.5,1.9,1.9.5-.2.9-.4,1.4-.6-.4-.7-1.1-1.9-2.5-2.6-2.7-1.5-7.3-1.1-9,2.3-1.6,2.9-1.1,6.4,1.2,8.4ZM20.55,22c-1.6,0-2.9-1.3-2.9-2.9h5.9c0,1.6-1.3,2.9-3,2.9ZM19.25,9.9l1.1.4c.2.1.3.1.5,0l1.1-.4-.5,4.8h-1.6l-.6-4.8ZM19.15,16.1h5.1c.4,0,.7.3.7.7s-.3.7-.7.7h-7.3c-.4,0-.7-.3-.7-.7s.3-.7.7-.7h2.2Z"/>
      <circle class="cls-4" cx="11.75" cy="9.5" r=".7"/>
      <circle class="cls-9" cx="29.35" cy="9.5" r=".7"/>
      <circle class="cls-1" cx="20.55" cy=".7" r=".7"/>
      <path class="cls-2" d="M12.55,5.8c.4.2.8.1,1-.3s.1-.8-.3-1c-.4-.2-.8-.1-1,.3h0c-.1.3,0,.8.3,1Z"/>
      <path class="cls-5" d="M27.85,14.6c.4.2.8.1,1-.3.2-.4.1-.8-.3-1s-.8-.1-1,.3h0c-.2.3-.1.8.3,1Z"/>
      <circle class="cls-6" cx="24.95" cy="1.9" r=".7"/>
      <path class="cls-8" d="M28.55,5.8c.4-.2.5-.7.3-1-.2-.4-.7-.5-1-.3-.4.2-.5.7-.3,1h0c.2.4.7.5,1,.3Z"/>
      <path class="cls-11" d="M13.55,13.6c-.2-.4-.7-.5-1-.3-.4.2-.5.7-.3,1,.2.4.7.5,1,.3h0c.4-.2.6-.7.3-1Z"/>
      <path class="cls-10" d="M16.55,2.5c.4-.2.5-.7.3-1s-.7-.5-1-.3c-.4.2-.5.7-.3,1h0c.2.4.6.6,1,.3Z"/>
      <path class="cls-3" d="M24.25,38.1h2.9c.4,0,.7-.3.7-.7v-1.2c.2-.1.5-.3.7-.4l1.1.6c.4.2.8.1,1-.3l1.5-2.5c.2-.4.1-.8-.3-1l-1.1-.6v-.8l1.1-.6c.4-.2.5-.7.3-1l-1.5-2.6c-.2-.4-.7-.5-1-.3l-1.1.6c-.2-.2-.5-.3-.7-.4v-1.2c0-.4-.3-.7-.7-.7h-2.9c-.4,0-.7.3-.7.7v1.2c-.2.1-.5.3-.7.4l-1.1-.6c-.4-.2-.8-.1-1,.3l-1.5,2.5c-.2.4-.1.8.3,1l1.1.6v.8l-1.1.6c-.4.2-.5.6-.3,1s.6.5,1,.3h0l1.5-.9c.3-.2.4-.5.4-.8-.1-.4-.1-.9,0-1.3.1-.3-.1-.6-.4-.8l-.9-.5.7-1.3.9.5c.3.2.6.1.8-.1.3-.3.7-.5,1.2-.7.3-.1.5-.4.5-.7v-1h1.5v1c0,.3.2.6.5.7.4.1.8.4,1.2.7.2.2.6.2.8.1l.9-.5.7,1.3-.9.5c-.3.2-.4.5-.4.8.1.4.1.9,0,1.3-.1.3.1.6.4.8l.9.5-.7,1.3-.9-.5c-.3-.2-.6-.1-.8.1-.3.3-.7.5-1.2.7-.3.1-.5.4-.5.7v1h-1.5v-1c0-.3-.2-.6-.5-.7-.4-.1-.8-.4-1.2-.7-.2-.2-.6-.2-.8-.1l-1.4.9c-.4.2-.5.6-.3,1s.6.5,1,.3h0l1.1-.6c.2.2.5.3.7.4v1.2c0,.4.3.7.7.7h0Z"/>
      <path class="cls-3" d="M27.95,31.5c0-1.2-1-2.2-2.2-2.2s-2.2,1-2.2,2.2,1,2.2,2.2,2.2,2.2-1,2.2-2.2ZM24.95,31.5c0-.4.3-.7.7-.7s.7.3.7.7-.3.7-.7.7-.7-.3-.7-.7Z"/>
      <path class="cls-3" d="M26.45,41.1h8.8c1.6,0,2.9-1.3,2.9-2.9v-1.5c0-.4-.3-.7-.7-.7s-.7.3-.7.7v1.5c0,.8-.7,1.5-1.5,1.5h-8.8c-.4,0-.7.3-.7.7,0,.3.3.7.7.7Z"/>
      <path class="cls-3" d="M13.25,38.1c0,1.2,1,2.2,2.2,2.2s2.2-1,2.2-2.2-1-2.2-2.2-2.2-2.2,1-2.2,2.2ZM16.15,38.1c0,.4-.3.7-.7.7s-.7-.3-.7-.7.3-.7.7-.7c.4,0,.7.3.7.7Z"/>
    </g>
  </g>
</svg>