<?xml version="1.0" encoding="UTF-8"?>
<svg id="Layer_1" data-name="Layer 1" xmlns="http://www.w3.org/2000/svg" xmlns:xlink="http://www.w3.org/1999/xlink" viewBox="0 0 44 44">
  <defs>
    <style>
      .cls-1 {
        fill: #fff;
      }

      .cls-2 {
        fill: url(#New_Gradient_Swatch);
      }
    </style>
    <linearGradient id="New_Gradient_Swatch" data-name="New Gradient Swatch" x1="22.05" y1="1" x2="22.05" y2="43.4" gradientUnits="userSpaceOnUse">
      <stop offset="0" stop-color="#001a4f"/>
      <stop offset="1" stop-color="#75a9c8"/>
    </linearGradient>
  </defs>
  <path class="cls-2" d="M34.55,43.2h-4.9c-.6-.5-1.2-1.1-1.9-1.6-.1-.2-.2-.4-.4-.6-.4-.4-1.3-1.6-1.9-1.4-.6.1-.9,1.4-.8,3.2-5.1.2-10.1.4-15.2.6-.6-.6-1.2-1.2-1.9-1.9v-22.6c1.3-1.1,2.5-2.2,3.8-3.3.1-1.9.2-3.9.3-5.8-.6-.1-1.2-.2-1.8-.3,0-1.5.1-3,.2-4.5h2.2c-.2-1.3-.3-2.7-.5-4h8.6c-.1,1.4-.2,2.8-.2,4.1.7,0,1.5.1,2.2.1v4.5h-1.2c-.1,1.9-.1,3.8-.2,5.8,1.4,1.5,2.7,3,4.1,4.4.2,4.2.4,8.3.5,12.5.4-.4,1.4-1.6,2.5-1.4,1.6.2,2.2,3.1,2.4,4.2.4,1.8.2,3.3,0,4.3.2-.1,1.8-.9,3.6-.3,1.7.6,2.4,2,2.5,2.3-.7.5-1.4,1.1-2,1.7Z"/>
  <g>
    <path class="cls-1" d="M7.85,20.1l4.4-4.4v-5.7h3.9v-1.2h-5.5v-3h11v3h-1.6v6.9l4.3,4.4v10.8h1.3v-11.3l-4.4-4.3v-5.1h1.6v-5.7h-13.5v5.6h1.6v5.1l-4.4,4.3v4.9h1.3v-4.3Z"/>
    <rect class="cls-1" x="6.55" y="22.8" width="1.3" height="4.7"/>
    <rect class="cls-1" x="24.35" y="30.3" width="1.3" height="10.7"/>
    <path class="cls-1" d="M25.65,40.7h-1.3v.8l-1.2,1.2h-14.1c-.5-.5-.8-.8-1.2-1.2v-15.3h-1.3v15.8l2,2h15.1l2-2v-1.3Z"/>
    <path class="cls-1" d="M23.55,33.6c0-1.1-.8-2-1.8-2.3.1-.2.1-.4.1-.7,0-1.3-1-2.3-2.3-2.3-.7,0-1.3.3-1.7.7-.4-.4-1-.7-1.7-.7s-1.3.3-1.7.7c-.4-.4-1-.7-1.7-.7-1.3,0-2.3,1-2.3,2.3,0,.2,0,.5.1.7-1,.2-1.8,1.2-1.8,2.3s.8,2,1.8,2.3c-.1.2-.1.4-.1.7s0,.5.1.7c-1,.2-1.8,1.2-1.8,2.3,0,1.3,1,2.3,2.3,2.3.7,0,1.3-.3,1.7-.7.4.4,1,.7,1.7.7s1.3-.3,1.7-.7c.4.4,1,.7,1.7.7s1.3-.3,1.7-.7c.4.4,1,.7,1.7.7,1.3,0,2.3-1,2.3-2.3,0-1.1-.8-2-1.8-2.3.1-.2.1-.4.1-.7s0-.5-.1-.7c1-.2,1.8-1.2,1.8-2.3ZM16.15,35.5c.6,0,1,.5,1,1,0,.6-.5,1-1,1s-1-.5-1-1c-.1-.5.4-1,1-1ZM14.45,32.6c.6,0,1,.5,1,1,0,.6-.5,1-1,1-.6,0-1-.5-1-1-.1-.5.4-1,1-1ZM17.85,34.7c-.6,0-1-.5-1-1,0-.6.5-1,1-1,.6,0,1,.5,1,1s-.5,1-1,1ZM12.75,35.5c.6,0,1,.5,1,1,0,.6-.5,1-1,1s-1-.5-1-1c-.1-.5.4-1,1-1ZM19.55,37.6c-.6,0-1-.5-1-1,0-.6.5-1,1-1s1,.5,1,1c0,.6-.5,1-1,1ZM19.55,29.7c.6,0,1,.5,1,1,0,.6-.5,1-1,1s-1-.5-1-1c-.1-.6.4-1,1-1ZM16.15,29.7c.6,0,1,.5,1,1,0,.6-.5,1-1,1s-1-.5-1-1c-.1-.6.4-1,1-1ZM12.75,29.7c.6,0,1,.5,1,1,0,.6-.5,1-1,1s-1-.5-1-1c-.1-.6.4-1,1-1ZM9.95,33.6c0-.6.5-1,1-1,.6,0,1,.5,1,1,0,.6-.5,1-1,1-.5.1-1-.4-1-1ZM11.05,40.6c-.6,0-1-.5-1-1,0-.6.5-1,1-1,.6,0,1,.5,1,1s-.4,1-1,1ZM14.45,40.6c-.6,0-1-.5-1-1,0-.6.5-1,1-1,.6,0,1,.5,1,1s-.4,1-1,1ZM17.85,40.6c-.6,0-1-.5-1-1,0-.6.5-1,1-1,.6,0,1,.5,1,1s-.5,1-1,1ZM22.25,39.5c0,.6-.5,1-1,1-.6,0-1-.5-1-1,0-.6.5-1,1-1s1,.4,1,1ZM21.15,34.7c-.6,0-1-.5-1-1,0-.6.5-1,1-1,.6,0,1,.5,1,1,.1.5-.4,1-1,1Z"/>
    <path class="cls-1" d="M36.35,39.8c-1.1-1.1-2.6-1.7-4.1-1.7-.5,0-1.1.1-1.6.2.3-.8.5-1.7.5-2.5,0-1.8-.7-3.5-2-4.8l-1.4-1.4-1.4,1.4c-2.7,2.7-2.7,7,0,9.6l.5.5-2,2,.9.9,2-2,.3.3c1.1,1.1,2.6,1.7,4.1,1.7,1.6,0,3-.6,4.1-1.7l1.2-1.2-1.1-1.3ZM27.25,31.9l.5-.5.5.5c1,1,1.6,2.4,1.6,3.9,0,1.4-.5,2.7-1.4,3.7v-3.7h-1.3v3.7c-2-2.2-1.9-5.5.1-7.6ZM35.45,41.4c-.9.9-2,1.3-3.2,1.3-1,0-2-.4-2.8-1h2.8v-1.3h-2.8c.8-.6,1.8-1,2.8-1,1.2,0,2.4.5,3.2,1.3l.3.3-.3.4Z"/>
    <path class="cls-1" d="M12.85,3.3l-.1-.5v-1.5h6.7v1.5l-.1.5,1.3.2.1-.5V0h-9.3v3l.1.6,1.3-.3Z"/>
    <path class="cls-1" d="M23.55,24.1h-1.3v-3.1l-1.1-1.1.9-.9,1.5,1.5v3.6ZM20.55,19.3l-.9-.9.9-.9.9.9-.9.9ZM18.95,17.7l-.9-.9.9-.9.9.9-.9.9Z"/>
    <path class="cls-1" d="M20.75,7.9h-2v-1.2h2v1.2ZM17.85,7.9h-1.3v-1.2h1.3v1.2ZM15.75,7.9h-1.3v-1.2h1.3v1.2Z"/>
  </g>
</svg>