<?xml version="1.0" encoding="UTF-8"?>
<svg id="Layer_1" data-name="Layer 1" xmlns="http://www.w3.org/2000/svg" xmlns:xlink="http://www.w3.org/1999/xlink" viewBox="0 0 44 44">
  <defs>
    <style>
      .cls-1 {
        fill: url(#linear-gradient-2);
      }

      .cls-2 {
        fill: #fff;
      }

      .cls-3 {
        fill: url(#linear-gradient-4);
      }

      .cls-4 {
        fill: url(#linear-gradient-3);
      }

      .cls-5 {
        fill: url(#linear-gradient);
      }
    </style>
    <linearGradient id="linear-gradient" x1="21.75" y1="32.25" x2="21.75" y2="1.45" gradientUnits="userSpaceOnUse">
      <stop offset="0" stop-color="#001a4f"/>
      <stop offset="1" stop-color="#75a9c8"/>
    </linearGradient>
    <linearGradient id="linear-gradient-2" x1="22.1" y1="39.55" x2="22.1" y2="32.55" xlink:href="#linear-gradient"/>
    <linearGradient id="linear-gradient-3" x1="16.25" y1="37.05" x2="16.25" y2="36.35" xlink:href="#linear-gradient"/>
    <linearGradient id="linear-gradient-4" x1="22.05" y1="42.25" x2="22.05" y2="39.85" xlink:href="#linear-gradient"/>
  </defs>
  <rect class="cls-5" x=".8" y="1.45" width="41.9" height="30.8"/>
  <polygon class="cls-1" points="29.2 37.75 29.2 39.55 15 39.55 15 37.75 15.5 37.75 15.5 37.05 16.4 37.05 16.4 35.55 16.8 35.55 16.8 32.55 27.8 32.55 27.8 36.75 28.4 36.75 28.4 37.75 29.2 37.75"/>
  <rect class="cls-4" x="16.1" y="36.35" width=".3" height=".7"/>
  <rect class="cls-3" x="11.3" y="39.85" width="21.5" height="2.4"/>
  <g>
    <path class="cls-2" d="M41.6.85H2.4C1.1.85,0,1.85,0,3.15v27.8C0,32.25,1.1,33.35,2.4,33.35h3.8c1.7,0,3.4-.1,5.1-.1-1.6-.4-3.2-.7-4.9-1.1H2.4c-.6,0-1.1-.5-1.1-1.1V3.15c0-.6.5-1.1,1.1-1.1h39.2c.6,0,1.1.5,1.1,1.1v27.8c0,.6-.5,1.1-1.1,1.1H9.2c-1.3,0-2.6.1-3.9.1,1.3.4,2.5.8,3.8,1.1h7c-.1,1.1-.6,3.6-2.7,5.7h-2.2c-.6,0-1.2.5-1.2,1.2v1.8c0,.6.5,1.2,1.2,1.2h21.6c.2-.2.3-.5.5-.7-2-.2-4-.3-6.1-.5h-15.8v-1.5h21.3v1.5h-8.3c2,.4,4,.8,5.9,1.2h2.5c.6,0,1.2-.5,1.2-1.2v-1.7c0-.6-.5-1.2-1.2-1.2h-2.2c-2.1-2.1-2.6-4.5-2.7-5.7h13.7c1.3,0,2.4-1.1,2.4-2.4V3.15c0-1.3-1.1-2.3-2.4-2.3ZM28.9,39.05h-13.8c1.7-2.2,2.2-4.5,2.3-5.7h9.2c.1,1.1.5,3.5,2.3,5.7h0Z"/>
    <path class="cls-2" d="M36.3,27.95h4.3c.4,0,.6-.3.6-.6V4.25c0-.4-.3-.6-.6-.6H3.4c-.4,0-.6.3-.6.6v23.1c0,.4.3.6.6.6h29.9c.4,0,.6-.3.6-.6,0-.4-.3-.6-.6-.6H4.1V4.85h35.9v21.8h-3.6c-.4,0-.6.3-.6.6-.2.4.1.7.5.7Z"/>
    <path class="cls-2" d="M10.8,7.75c0-.4-.3-.6-.6-.6h-4c-.4,0-.6.3-.6.6v3.5c0,.4.3.6.6.6h4c.4,0,.6-.3.6-.6v-3.5ZM9.5,10.65h-2.7v-2.2h2.7v2.2Z"/>
    <path class="cls-2" d="M13.7,11.95h10.8c.4,0,.6-.3.6-.6,0-.4-.3-.6-.6-.6h-10.8c-.4,0-.6.3-.6.6s.2.6.6.6h0Z"/>
    <path class="cls-2" d="M27.6,7.15h-8.9c-.4,0-.6.3-.6.6,0,.4.3.6.6.6h8.9c.4,0,.6-.3.6-.6s-.3-.6-.6-.6Z"/>
    <path class="cls-2" d="M13.7,8.45h2c.4,0,.6-.3.6-.6,0-.4-.3-.6-.6-.6h-2c-.4,0-.6.3-.6.6-.1.3.2.6.6.6Z"/>
    <path class="cls-2" d="M10.8,14.05c0-.4-.3-.6-.6-.6h-4c-.4,0-.6.3-.6.6v3.5c0,.4.3.6.6.6h4c.4,0,.6-.3.6-.6v-3.5ZM9.5,16.85h-2.7v-2.2h2.7v2.2Z"/>
    <path class="cls-2" d="M13.7,18.15h10.8c.4,0,.6-.3.6-.6s-.3-.6-.6-.6h-10.8c-.4,0-.6.3-.6.6s.2.6.6.6h0Z"/>
    <path class="cls-2" d="M27.6,13.45h-8.9c-.4,0-.6.3-.6.6,0,.4.3.6.6.6h8.9c.4,0,.6-.3.6-.6,0-.4-.3-.6-.6-.6Z"/>
    <path class="cls-2" d="M13.7,14.65h2c.4,0,.6-.3.6-.6,0-.4-.3-.6-.6-.6h-2c-.4,0-.6.3-.6.6-.1.4.2.6.6.6Z"/>
    <path class="cls-2" d="M10.2,19.65h-4c-.4,0-.6.3-.6.6v3.5c0,.4.3.6.6.6h4c.4,0,.6-.3.6-.6v-3.5c0-.3-.3-.6-.6-.6h0ZM9.5,23.15h-2.7v-2.2h2.7v2.2Z"/>
    <path class="cls-2" d="M13.7,24.45h10.8c.4,0,.6-.3.6-.6,0-.4-.3-.6-.6-.6h-10.8c-.4,0-.6.3-.6.6-.1.3.2.6.6.6h0Z"/>
    <path class="cls-2" d="M28.2,20.35c0-.4-.3-.6-.6-.6h-8.9c-.4,0-.6.3-.6.6,0,.4.3.6.6.6h8.9c.3,0,.6-.3.6-.6Z"/>
    <path class="cls-2" d="M13.7,20.95h2c.4,0,.6-.3.6-.6,0-.4-.3-.6-.6-.6h-2c-.4,0-.6.3-.6.6-.1.3.2.6.6.6Z"/>
    <path class="cls-2" d="M38.4,18.55c0-.3-.2-.5-.5-.6l-7.5-2.2c-.2-.1-.5,0-.6.2-.2.2-.2.4-.2.6l2.4,7.4c.1.3.3.4.6.5h0c.3,0,.5-.2.6-.4l1.4-3.5,3.5-1.4c.2-.1.4-.4.3-.6h0ZM33.8,19.45c-.2.1-.3.2-.4.4l-.8,2-1.4-4.6,4.6,1.4-2,.8Z"/>
  </g>
</svg>