<?xml version="1.0" encoding="UTF-8"?>
<svg id="Layer_1" data-name="Layer 1" xmlns="http://www.w3.org/2000/svg" viewBox="0 0 44 44">
  <defs>
    <style>
      .cls-1 {
        fill: #fff;
      }

      .cls-2 {
        fill: #890f1f;
      }
    </style>
  </defs>
  <rect class="cls-2" x=".8" y="1.5" width="41.9" height="30.8"/>
  <rect class="cls-2" x="16.8" y="32.6" width="11" height="6.8"/>
  <rect class="cls-2" x="15" y="37.8" width="14.2" height="1.8"/>
  <rect class="cls-2" x="15.5" y="37.1" width="2.7" height="1.2"/>
  <rect class="cls-2" x="16.1" y="36.4" width="1.6" height="1.4"/>
  <rect class="cls-2" x="16.4" y="35.6" width="1.2" height="2.1"/>
  <rect class="cls-2" x="26.6" y="36.8" width="1.8" height="2"/>
  <rect class="cls-2" x="11.3" y="39.9" width="21.5" height="2.4"/>
  <g>
    <path class="cls-1" d="M41.6.9H2.4C1.1.9,0,1.9,0,3.2v27.8c0,1.3,1.1,2.4,2.4,2.4h3.8c1.7,0,3.4-.1,5.1-.1-1.6-.4-3.2-.7-4.9-1.1H2.4c-.6,0-1.1-.5-1.1-1.1V3.2c0-.6.5-1.1,1.1-1.1h39.2c.6,0,1.1.5,1.1,1.1v27.8c0,.6-.5,1.1-1.1,1.1H9.2c-1.3,0-2.6.1-3.9.1,1.3.4,2.5.8,3.8,1.1h7c-.1,1.1-.6,3.6-2.7,5.7h-2.2c-.6,0-1.2.5-1.2,1.2v1.8c0,.6.5,1.2,1.2,1.2h21.6c.2-.2.3-.5.5-.7-2-.2-4-.3-6.1-.5h-15.8v-1.5h21.3v1.5h-8.3c2,.4,4,.8,5.9,1.2h2.5c.6,0,1.2-.5,1.2-1.2v-1.7c0-.6-.5-1.2-1.2-1.2h-2.2c-2.1-2.1-2.6-4.5-2.7-5.7h13.7c1.3,0,2.4-1.1,2.4-2.4V3.2c0-1.3-1.1-2.3-2.4-2.3ZM28.9,39.1h-13.8c1.7-2.2,2.2-4.5,2.3-5.7h9.2c.1,1.1.5,3.5,2.3,5.7h0Z"/>
    <path class="cls-1" d="M36.3,28h4.3c.4,0,.6-.3.6-.6V4.3c0-.4-.3-.6-.6-.6H3.4c-.4,0-.6.3-.6.6v23.1c0,.4.3.6.6.6h29.9c.4,0,.6-.3.6-.6,0-.4-.3-.6-.6-.6H4.1V4.9h35.9v21.8h-3.6c-.4,0-.6.3-.6.6-.2.4.1.7.5.7Z"/>
    <path class="cls-1" d="M10.8,7.8c0-.4-.3-.6-.6-.6h-4c-.4,0-.6.3-.6.6v3.5c0,.4.3.6.6.6h4c.4,0,.6-.3.6-.6v-3.5ZM9.5,10.7h-2.7v-2.2h2.7v2.2Z"/>
    <path class="cls-1" d="M13.7,12h10.8c.4,0,.6-.3.6-.6,0-.4-.3-.6-.6-.6h-10.8c-.4,0-.6.3-.6.6s.2.6.6.6h0Z"/>
    <path class="cls-1" d="M27.6,7.2h-8.9c-.4,0-.6.3-.6.6,0,.4.3.6.6.6h8.9c.4,0,.6-.3.6-.6s-.3-.6-.6-.6Z"/>
    <path class="cls-1" d="M13.7,8.5h2c.4,0,.6-.3.6-.6,0-.4-.3-.6-.6-.6h-2c-.4,0-.6.3-.6.6-.1.3.2.6.6.6Z"/>
    <path class="cls-1" d="M10.8,14.1c0-.4-.3-.6-.6-.6h-4c-.4,0-.6.3-.6.6v3.5c0,.4.3.6.6.6h4c.4,0,.6-.3.6-.6v-3.5ZM9.5,16.9h-2.7v-2.2h2.7v2.2Z"/>
    <path class="cls-1" d="M13.7,18.2h10.8c.4,0,.6-.3.6-.6s-.3-.6-.6-.6h-10.8c-.4,0-.6.3-.6.6s.2.6.6.6h0Z"/>
    <path class="cls-1" d="M27.6,13.5h-8.9c-.4,0-.6.3-.6.6,0,.4.3.6.6.6h8.9c.4,0,.6-.3.6-.6,0-.4-.3-.6-.6-.6Z"/>
    <path class="cls-1" d="M13.7,14.7h2c.4,0,.6-.3.6-.6,0-.4-.3-.6-.6-.6h-2c-.4,0-.6.3-.6.6-.1.4.2.6.6.6Z"/>
    <path class="cls-1" d="M10.2,19.7h-4c-.4,0-.6.3-.6.6v3.5c0,.4.3.6.6.6h4c.4,0,.6-.3.6-.6v-3.5c0-.3-.3-.6-.6-.6h0ZM9.5,23.2h-2.7v-2.2h2.7v2.2Z"/>
    <path class="cls-1" d="M13.7,24.5h10.8c.4,0,.6-.3.6-.6,0-.4-.3-.6-.6-.6h-10.8c-.4,0-.6.3-.6.6-.1.3.2.6.6.6h0Z"/>
    <path class="cls-1" d="M28.2,20.4c0-.4-.3-.6-.6-.6h-8.9c-.4,0-.6.3-.6.6,0,.4.3.6.6.6h8.9c.3,0,.6-.3.6-.6Z"/>
    <path class="cls-1" d="M13.7,21h2c.4,0,.6-.3.6-.6,0-.4-.3-.6-.6-.6h-2c-.4,0-.6.3-.6.6-.1.3.2.6.6.6Z"/>
    <path class="cls-1" d="M38.4,18.6c0-.3-.2-.5-.5-.6l-7.5-2.2c-.2-.1-.5,0-.6.2-.2.2-.2.4-.2.6l2.4,7.4c.1.3.3.4.6.5h0c.3,0,.5-.2.6-.4l1.4-3.5,3.5-1.4c.2-.1.4-.4.3-.6h0ZM33.8,19.5c-.2.1-.3.2-.4.4l-.8,2-1.4-4.6,4.6,1.4-2,.8Z"/>
  </g>
</svg>