<?xml version="1.0" encoding="UTF-8"?>
<svg id="Layer_1" data-name="Layer 1" xmlns="http://www.w3.org/2000/svg" xmlns:xlink="http://www.w3.org/1999/xlink" viewBox="0 0 44 44">
  <defs>
    <style>
      .cls-1 {
        fill: url(#New_Gradient_Swatch-4);
      }

      .cls-2 {
        fill: url(#New_Gradient_Swatch-2);
      }

      .cls-3 {
        fill: url(#New_Gradient_Swatch);
      }

      .cls-4 {
        fill: url(#New_Gradient_Swatch-3);
      }
    </style>
    <linearGradient id="New_Gradient_Swatch" data-name="New Gradient Swatch" x1="21.1" y1="10.97" x2="21.1" y2="11.2" gradientUnits="userSpaceOnUse">
      <stop offset="0" stop-color="#001a4f"/>
      <stop offset="1" stop-color="#75a9c8"/>
    </linearGradient>
    <linearGradient id="New_Gradient_Swatch-2" data-name="New Gradient Swatch" x1="31.69" x2="31.69" y2="27.5" xlink:href="#New_Gradient_Swatch"/>
    <linearGradient id="New_Gradient_Swatch-3" data-name="New Gradient Swatch" x1="22" y1="0" x2="22" y2="44" xlink:href="#New_Gradient_Swatch"/>
    <linearGradient id="New_Gradient_Swatch-4" data-name="New Gradient Swatch" x1="42.28" y1="27.1" x2="42.28" y2="27.5" xlink:href="#New_Gradient_Swatch"/>
  </defs>
  <path class="cls-3" d="M21.22,11.2h-.23v-.23c.1.05.18.13.23.23Z"/>
  <g>
    <path class="cls-2" d="M20.99,10.97v.23h.23c-.05-.1-.13-.18-.23-.23ZM42.17,27.5h.22v-.4l-.22.4Z"/>
    <path class="cls-4" d="M43.69,26.3c-.2-.3-.4-.4-.7-.4h-.2l-6.2-13.7h1.5c1,0,1.8-.8,1.8-1.8s-.9-1.8-1.8-1.8h-14.2v-2.3c.9-.6,1.5-1.7,1.5-2.9,0-1.9-1.5-3.4-3.4-3.4s-3.4,1.5-3.4,3.4c0,1.2.6,2.2,1.5,2.9v2.3H5.89c-1,0-1.8.8-1.8,1.8s.8,1.8,1.8,1.8h1.5L1.19,25.9h-.2c-.3,0-.6.2-.7.4-.2.3-.2.6,0,.8l1.1,2.2c.4.9,1.3,1.4,2.3,1.4h9.9c1,0,1.8-.5,2.3-1.4l1.1-2.2c.1-.3.1-.6,0-.8-.2-.3-.4-.4-.7-.4h-.3l-6.2-13.7h10.3v24.1h-4.7c-1.1,0-2.1.9-2.1,2.1v1.1h-1c-1.1,0-2.1.9-2.1,2.1v1.8c0,.4.3.6.6.6h22.2c.4,0,.6-.3.6-.6v-1.8c0-1.1-.9-2.1-2.1-2.1h-1v-1.1c0-1.1-.9-2.1-2.1-2.1h-4.5V12h10.3l-6.2,13.9h-.2c-.3,0-.6.2-.7.4-.2.3-.2.6,0,.8l1.1,2.2c.4.9,1.3,1.4,2.3,1.4h9.9c1,0,1.8-.5,2.3-1.4l1.1-2.2c.1-.3.1-.6-.1-.8ZM15.09,27.9H2.19v.2l-.3-.6h13.4l-.2.4ZM14.59,25.9H2.59l6-13.2,6,13.2ZM32.49,41.7v.9H11.49v-.9h21ZM29.39,38.7v.8h-14.8v-.8h14.8ZM20.99,11.2v-.23c.1.05.18.13.23.23h-.23ZM22.99,5.4q-.1,0-.1.1h-2.1c-.7-.4-1.2-1.1-1.2-1.9,0-1.2,1-2.2,2.2-2.2s2.2,1,2.2,2.2c.2.7-.3,1.4-1,1.8ZM35.39,12.6l6,13.2h-12l6-13.2ZM42.39,27.5h-.22l-.23.4h-12.95l-.2-.4h13.38l.22-.4v.4Z"/>
  </g>
  <polygon class="cls-1" points="42.39 27.1 42.39 27.5 42.17 27.5 42.39 27.1"/>
  <path class="cls-3" d="M21.22,11.2h-.23v-.23c.1.05.18.13.23.23Z"/>
</svg>