<?xml version="1.0" encoding="UTF-8"?>
<svg id="Layer_1" data-name="Layer 1" xmlns="http://www.w3.org/2000/svg" xmlns:xlink="http://www.w3.org/1999/xlink" viewBox="0 0 44 44">
  <defs>
    <style>
      .cls-1 {
        fill: #1954c5;
      }

      .cls-2 {
        fill: #fff;
      }

      .cls-3 {
        fill: url(#New_Gradient_Swatch);
      }
    </style>
    <linearGradient id="New_Gradient_Swatch" data-name="New Gradient Swatch" x1="32.84" y1="1.89" x2="6.96" y2="46.72" gradientUnits="userSpaceOnUse">
      <stop offset="0" stop-color="#001a4f"/>
      <stop offset="1" stop-color="#75a9c8"/>
    </linearGradient>
  </defs>
  <path class="cls-3" d="M42.9,23.6v17.2c0,1.3-1,2.3-2.3,2.3H.7V.6h29.9v20.7h10c1.3,0,2.3,1.1,2.3,2.3Z"/>
  <rect class="cls-1" x="37" y="20" width="2.4" height="3"/>
  <rect class="cls-1" x="29" y="19.7" width="2.7" height="3.6"/>
  <path class="cls-2" d="M41.4,21.2h-1.4v-.4c0-.8-.7-1.5-1.5-1.5h-.9c-.8,0-1.5.7-1.5,1.5v.4h-3.5v-.4c0-.8-.6-1.4-1.4-1.5V.7c0-.4-.3-.7-.7-.7H.7c-.4,0-.7.3-.7.7v42.6c0,.4.3.7.7.7h40.7c1.4,0,2.6-1.1,2.6-2.4v-18c0-1.3-1.2-2.4-2.6-2.4h0ZM37.4,20.7c0-.1.1-.2.2-.2h.9c.1,0,.2.1.2.2v2.7c0,.1-.1.2-.2.2h-.9c-.1,0-.2-.1-.2-.2v-2.7ZM36,22.5v.9c0,.8.7,1.5,1.5,1.5h.9c.8,0,1.5-.7,1.5-1.5v-.9h1.3c.7,0,1.2.5,1.2,1.1v2.5h-23.5v-2.5c0-.6.6-1.1,1.2-1.1h1v.9c0,.8.7,1.5,1.5,1.5h.9c.8,0,1.5-.7,1.5-1.5v-.9h3.5v.9c0,.8.7,1.5,1.5,1.5h1c.8,0,1.5-.7,1.5-1.5v-.9h3.5ZM22.4,23.5v-2.7c0-.1.1-.2.2-.2h.9c.1,0,.2.1.2.2v2.7c0,.1-.1.2-.2.2h-.9l-.2-.2ZM31,20.6c.1,0,.2.1.2.2v2.7c0,.1-.1.2-.2.2h-.9c-.1,0-.2-.1-.2-.2v-2.7c0-.1.1-.2.2-.2h.9ZM1.4,1.4h28.4v17.9c-.7.1-1.3.8-1.3,1.5v.4h-3.5v-.4c0-.8-.7-1.5-1.5-1.5h-.9c-.8,0-1.5.7-1.5,1.5v.4h-1c-1.4,0-2.6,1.1-2.6,2.4v18c0,.4.1.7.3,1.1H1.4V1.4ZM41.4,42.6h-21.3c-.7,0-1.2-.5-1.2-1.1v-14h23.8v14.1c-.1.5-.6,1-1.3,1h0ZM25.9,29.6h-3.5c-.4,0-.7.3-.7.7v3.5c0,.4.3.7.7.7h3.5c.4,0,.7-.3.7-.7v-3.5c0-.4-.3-.7-.7-.7ZM25.3,33.1h-2.2v-2.1h2.2v2.1ZM32.4,29.6h-3.5c-.4,0-.7.3-.7.7v3.5c0,.4.3.7.7.7h3.5c.4,0,.7-.3.7-.7v-3.5c0-.4-.3-.7-.7-.7ZM31.8,33.1h-2.2v-2.1h2.2v2.1ZM25.9,35.6h-3.5c-.4,0-.7.3-.7.7v3.5c0,.4.3.7.7.7h3.5c.4,0,.7-.3.7-.7v-3.5c0-.4-.3-.7-.7-.7ZM25.3,39.1h-2.2v-2.1h2.2v2.1ZM32.4,35.6h-3.5c-.4,0-.7.3-.7.7v3.5c0,.4.3.7.7.7h3.5c.4,0,.7-.3.7-.7v-3.5c0-.4-.3-.7-.7-.7ZM31.8,39.1h-2.2v-2.1h2.2v2.1ZM39.1,29.6h-3.5c-.4,0-.7.3-.7.7v3.5c0,.4.3.7.7.7h3.5c.4,0,.7-.3.7-.7v-3.5c0-.4-.3-.7-.7-.7h0ZM38.4,33.1h-2.2v-2.1h2.2v2.1ZM39.1,35.6h-3.5c-.4,0-.7.3-.7.7v3.5c0,.4.3.7.7.7h3.5c.4,0,.7-.3.7-.7v-3.5c0-.4-.3-.7-.7-.7h0ZM38.4,39.1h-2.2v-2.1h2.2v2.1ZM4.2,12.3v-7.4c0-.4.3-.7.7-.7h8c.4,0,.7.3.7.7s-.3.7-.7.7h-7.3v6h6.6v-2.1l-1.3,1.2c-.1.1-.3.2-.5.2s-.4-.1-.5-.2l-1.5-1.6c-.3-.3-.3-.7,0-1s.7-.3,1,0l1.1,1.1,3.3-3c.3-.3.7-.2,1,0,.3.3.2.7,0,1l-1.1,1v4c0,.4-.3.7-.7.7H5c-.5.1-.8-.2-.8-.6h0ZM4.2,25.7v-7.4c0-.4.3-.7.7-.7h8c.4,0,.7.3.7.7s-.3.7-.7.7h-7.3v6h6.6v-2.1l-1.3,1.2c-.1.1-.3.2-.5.2s-.4-.1-.5-.2l-1.6-1.6c-.3-.3-.3-.7,0-1s.7-.3,1,0l1.1,1.1,3.3-3c.3-.3.7-.2,1,0,.3.3.2.7,0,1l-1.1,1v4c0,.4-.3.7-.7.7H4.9c-.4.1-.7-.2-.7-.6h0ZM14.8,33.1c.3.3.2.7,0,1l-1.1,1v4c0,.4-.3.7-.7.7H5c-.4,0-.7-.3-.7-.7v-7.4c0-.4.3-.7.7-.7h8c.4,0,.7.3.7.7s-.3.7-.7.7h-7.4v6h6.6v-2.1l-1.3,1.2c-.1.1-.3.2-.5.2s-.4-.1-.5-.2l-1.6-1.6c-.3-.3-.3-.7,0-1s.7-.3,1,0l1.1,1.1,3.3-3c.4-.2.8-.2,1.1.1h0ZM17.5,4.9c0-.4.3-.7.7-.7h8.9c.4,0,.7.3.7.7s-.3.7-.7.7h-8.9c-.4,0-.7-.3-.7-.7h0ZM17.5,8.6c0-.4.3-.7.7-.7h8.9c.4,0,.7.3.7.7s-.3.7-.7.7h-8.9c-.4,0-.7-.3-.7-.7h0Z"/>
</svg>