<?xml version="1.0" encoding="UTF-8"?>
<svg id="Layer_2" data-name="Layer 2" xmlns="http://www.w3.org/2000/svg" xmlns:xlink="http://www.w3.org/1999/xlink" viewBox="0 0 44 44">
  <defs>
    <style>
      .cls-1 {
        fill: url(#New_Gradient_Swatch-4);
      }

      .cls-2 {
        fill: url(#New_Gradient_Swatch-5);
      }

      .cls-3 {
        stroke: url(#New_Gradient_Swatch-17);
      }

      .cls-3, .cls-4, .cls-5, .cls-6, .cls-7, .cls-8, .cls-9, .cls-10, .cls-11, .cls-12, .cls-13, .cls-14, .cls-15, .cls-16 {
        fill: #fff;
        stroke-miterlimit: 10;
      }

      .cls-3, .cls-5, .cls-6, .cls-7, .cls-8, .cls-9, .cls-10, .cls-11, .cls-13, .cls-14, .cls-15, .cls-16 {
        stroke-width: .75px;
      }

      .cls-4 {
        stroke: url(#New_Gradient_Swatch-24);
      }

      .cls-5 {
        stroke: url(#New_Gradient_Swatch-20);
      }

      .cls-6 {
        stroke: url(#New_Gradient_Swatch-23);
      }

      .cls-17 {
        fill: url(#New_Gradient_Swatch-2);
      }

      .cls-7 {
        stroke: url(#New_Gradient_Swatch-11);
      }

      .cls-8 {
        stroke: url(#New_Gradient_Swatch-19);
      }

      .cls-9 {
        stroke: url(#New_Gradient_Swatch-18);
      }

      .cls-18 {
        fill: url(#New_Gradient_Swatch-6);
      }

      .cls-10 {
        stroke: url(#New_Gradient_Swatch-15);
      }

      .cls-19 {
        fill: url(#New_Gradient_Swatch-7);
      }

      .cls-20 {
        fill: url(#New_Gradient_Swatch);
      }

      .cls-21 {
        fill: url(#New_Gradient_Swatch-8);
      }

      .cls-11 {
        stroke: url(#New_Gradient_Swatch-21);
      }

      .cls-22 {
        fill: url(#New_Gradient_Swatch-3);
      }

      .cls-23 {
        fill: url(#New_Gradient_Swatch-10);
      }

      .cls-12 {
        stroke: url(#New_Gradient_Swatch-13);
        stroke-width: .5px;
      }

      .cls-13 {
        stroke: url(#New_Gradient_Swatch-16);
      }

      .cls-14 {
        stroke: url(#New_Gradient_Swatch-14);
      }

      .cls-15 {
        stroke: url(#New_Gradient_Swatch-22);
      }

      .cls-24 {
        fill: url(#New_Gradient_Swatch-9);
      }

      .cls-16 {
        stroke: url(#New_Gradient_Swatch-12);
      }
    </style>
    <linearGradient id="New_Gradient_Swatch" data-name="New Gradient Swatch" x1="4.25" y1="38.75" x2="13.45" y2="38.75" gradientUnits="userSpaceOnUse">
      <stop offset="0" stop-color="#001a4f"/>
      <stop offset="1" stop-color="#75a9c8"/>
    </linearGradient>
    <linearGradient id="New_Gradient_Swatch-2" data-name="New Gradient Swatch" x1="18.22" y1="40.88" x2="25.75" y2="40.88" xlink:href="#New_Gradient_Swatch"/>
    <linearGradient id="New_Gradient_Swatch-3" data-name="New Gradient Swatch" x1="1.85" y1="9.45" x2="11.15" y2="9.45" xlink:href="#New_Gradient_Swatch"/>
    <linearGradient id="New_Gradient_Swatch-4" data-name="New Gradient Swatch" x1="2.05" y1="25.35" x2="8.68" y2="25.35" xlink:href="#New_Gradient_Swatch"/>
    <linearGradient id="New_Gradient_Swatch-5" data-name="New Gradient Swatch" x1="22.05" y1=".55" x2="22.05" y2="12.75" xlink:href="#New_Gradient_Swatch"/>
    <linearGradient id="New_Gradient_Swatch-6" data-name="New Gradient Swatch" x1="16.95" y1="38.05" x2="26.95" y2="38.05" xlink:href="#New_Gradient_Swatch"/>
    <linearGradient id="New_Gradient_Swatch-7" data-name="New Gradient Swatch" x1="13.05" y1="23.35" x2="30.85" y2="23.35" gradientTransform="translate(39.63 -3.38) rotate(76.72)" xlink:href="#New_Gradient_Swatch"/>
    <linearGradient id="New_Gradient_Swatch-8" data-name="New Gradient Swatch" x1="36.05" y1="26.2" x2="42.35" y2="26.2" xlink:href="#New_Gradient_Swatch"/>
    <linearGradient id="New_Gradient_Swatch-9" data-name="New Gradient Swatch" x1="37.05" y1="5.05" x2="37.05" y2="12.65" xlink:href="#New_Gradient_Swatch"/>
    <linearGradient id="New_Gradient_Swatch-10" data-name="New Gradient Swatch" x1="33.75" y1="38.45" x2="39.65" y2="38.45" xlink:href="#New_Gradient_Swatch"/>
    <linearGradient id="New_Gradient_Swatch-11" data-name="New Gradient Swatch" x1="22.02" y1="-.03" x2="22.02" y2="35.53" xlink:href="#New_Gradient_Swatch"/>
    <linearGradient id="New_Gradient_Swatch-12" data-name="New Gradient Swatch" x1="21.95" y1="2.67" x2="21.95" y2="10.52" xlink:href="#New_Gradient_Swatch"/>
    <linearGradient id="New_Gradient_Swatch-13" data-name="New Gradient Swatch" x1="21.95" y1="41.8" x2="21.95" y2="43.9" xlink:href="#New_Gradient_Swatch"/>
    <linearGradient id="New_Gradient_Swatch-14" data-name="New Gradient Swatch" x1="22.1" y1="38.97" x2="22.1" y2="43.21" xlink:href="#New_Gradient_Swatch"/>
    <linearGradient id="New_Gradient_Swatch-15" data-name="New Gradient Swatch" x1="22.05" y1="36.27" x2="22.05" y2="40.48" xlink:href="#New_Gradient_Swatch"/>
    <linearGradient id="New_Gradient_Swatch-16" data-name="New Gradient Swatch" x1="39.45" y1="20.87" x2="39.45" y2="31.42" xlink:href="#New_Gradient_Swatch"/>
    <linearGradient id="New_Gradient_Swatch-17" data-name="New Gradient Swatch" x1="36.6" y1="31.98" x2="36.6" y2="44.03" xlink:href="#New_Gradient_Swatch"/>
    <linearGradient id="New_Gradient_Swatch-18" data-name="New Gradient Swatch" x1="8.75" y1="34.87" x2="8.75" y2="42.52" xlink:href="#New_Gradient_Swatch"/>
    <linearGradient id="New_Gradient_Swatch-19" data-name="New Gradient Swatch" x1="5.25" y1="20.87" x2="5.25" y2="30.33" xlink:href="#New_Gradient_Swatch"/>
    <linearGradient id="New_Gradient_Swatch-20" data-name="New Gradient Swatch" x1="3.85" y1="6.97" x2="3.85" y2="9.12" xlink:href="#New_Gradient_Swatch"/>
    <linearGradient id="New_Gradient_Swatch-21" data-name="New Gradient Swatch" x1="6.75" y1="6.97" x2="6.75" y2="9.12" xlink:href="#New_Gradient_Swatch"/>
    <linearGradient id="New_Gradient_Swatch-22" data-name="New Gradient Swatch" x1="9.45" y1="6.97" x2="9.45" y2="9.12" xlink:href="#New_Gradient_Swatch"/>
    <linearGradient id="New_Gradient_Swatch-23" data-name="New Gradient Swatch" x1="6.7" y1="4.27" x2="6.7" y2="14.72" xlink:href="#New_Gradient_Swatch"/>
    <linearGradient id="New_Gradient_Swatch-24" data-name="New Gradient Swatch" x1="37.25" y1="3.66" x2="37.25" y2="13.96" xlink:href="#New_Gradient_Swatch"/>
  </defs>
  <path class="cls-20" d="M13.45,39.45c0,.25-.19.49-.52.69-.06.46-.7.81-1.48.81-.28,0-.54-.05-.76-.13-.56.08-1.19.13-1.84.13-1.22,0-2.32-.16-3.14-.41-.07.24-.3.41-.56.41-.33,0-.6-.27-.6-.6,0-.11.03-.21.08-.3-.24-.18-.38-.38-.38-.6,0-.65,1.25-1.2,3.01-1.4-.01-.03-.01-.07-.01-.1,0-.77.85-1.4,1.9-1.4s1.9.63,1.9,1.4c0,.06-.01.12-.03.18,1.45.25,2.43.75,2.43,1.32Z"/>
  <path class="cls-17" d="M25.75,41.55c0,.4-.4.8-.8.8s-.4-.6-1-1.1c-.7-.5-1.4-.6-1.8-.6-.3,0-.9-.1-1.6.2-1,.4-1.2,1.3-1.8,1.2-.2,0-.4-.1-.5-.3-.2-.5.7-1.3,1.4-1.7,1.1-.6,2.3-.8,3.3-.5.5.1.9.4,1,.4.4.2.7.5,1,.7.5.4.8.6.8.9Z"/>
  <path class="cls-22" d="M5.1,9.85H1.85v-3.7h9.3v3.7h-3.55c.16.17.25.38.25.6,0,.36-.24.69-.61.88.01.04.01.08.01.12,0,.72-.36,1.3-.8,1.3s-.8-.58-.8-1.3v-.04c-.48-.17-.8-.54-.8-.96,0-.22.09-.43.25-.6Z"/>
  <path class="cls-1" d="M3.75,26.35c-.9-.7-1.4-.8-1.6-1.4-.2-.4-.1-1,.2-1.5.4-.5,1.1-.6,1.2-.6.7,0,1.4.4,1.9,1.1.1-.1.3-.2.5-.4.5-.4.7-.6,1-.6.5-.1,1.1,0,1.4.4.2.2.2.4.3.6,0,.1.1.5-.1,1-.3,1.2-1.4,2-1.8,2.2s-.8.5-1.4.7c-.6-.7-1.2-1.2-1.6-1.5Z"/>
  <ellipse class="cls-2" cx="22.05" cy="6.65" rx="6.3" ry="6.1"/>
  <path class="cls-18" d="M26.95,38.85c0,.1-.1.2-.2.3,0,0-.2.2-.5.2-.6,0-1.1-.7-1.8-1.2-.8-.5-1.6-.5-2.3-.5-.2,0-1.1,0-2.2.4-1.1.4-1.8,1-2.3,1.4-.2-.1-.7-.4-.7-.7,0-.4.6-.8,1.3-1.2.7-.3,1.9-.9,3.6-.9,1,0,1.7.2,1.9.2,1.2.3,1.9.8,2.2,1,.4.4.8.7,1,1Z"/>
  <circle class="cls-19" cx="21.95" cy="23.35" r="8.9" transform="translate(-5.82 39.35) rotate(-76.72)"/>
  <path class="cls-21" d="M42.35,28.65c0,.83-.99,1.5-2.2,1.5-1.09,0-1.99-.53-2.17-1.24-.11.03-.22.04-.33.04-.89,0-1.6-.81-1.6-1.8,0-.62.28-1.18.71-1.49-.25-.36-.41-.86-.41-1.41,0-1.1.62-2,1.4-2s1.4.9,1.4,2c0,.61-.19,1.16-.49,1.52.36.32.59.82.59,1.38,0,.05,0,.1-.01.14.28-.09.58-.14.91-.14,1.21,0,2.2.67,2.2,1.5Z"/>
  <path class="cls-24" d="M37.05,12.65c-3.15,0-5.7-1.7-5.7-3.8s2.55-3.8,5.7-3.8,5.7,1.7,5.7,3.8-2.55,3.8-5.7,3.8Z"/>
  <path class="cls-23" d="M38.24,37.2c.26.53.41,1.21.41,1.95s-.14,1.39-.4,1.91c.67.18,1.1.47,1.1.79,0,.55-1.26,1-2.8,1s-2.8-.45-2.8-1c0-.4.67-.75,1.63-.91-.21-.5-.33-1.12-.33-1.79,0-.72.14-1.37.38-1.89-.94-.28-1.58-.85-1.58-1.51,0-.94,1.3-1.7,2.9-1.7s2.9.76,2.9,1.7c0,.62-.56,1.16-1.41,1.45Z"/>
  <g>
    <path class="cls-7" d="M31.05,24.05h2.8v-1.4h-2.8c-.1-1.5-.6-2.7-1.3-3.9l3.9-3.9-1-1-3.7,3.7c-1.6-1.8-3.7-3-6.2-3.2v-1.5c3.1-.4,5.6-3,5.6-6.2-.1-3.4-2.9-6.3-6.4-6.3s-6.3,2.8-6.3,6.3c0,3.2,2.5,5.9,5.6,6.2v1.5c-2.5.2-4.7,1.4-6.2,3.2l-3.7-3.7-1,1,3.9,3.9c-.7,1.2-1.2,2.6-1.3,3.9h-1.5v1.4h1.6c.2,2.5,1.4,4.7,3.2,6.2l-3.7,3.7,1,1,3.9-3.9c1.2.7,2.6,1.2,3.9,1.3v2.8h1.4v-2.8c1.5-.1,2.7-.6,3.9-1.3l3.9,3.9,1-1-3.7-3.7c1.8-1.5,3-3.6,3.2-6.2h0ZM23.15,30.95l1-2c.3-.7.6-1.4.8-2.1h3.8c-1.1,2.2-3.1,3.7-5.6,4.1ZM14.35,23.35c0-.7.1-1.5.3-2.1h4c-.1.7-.2,1.4-.2,2.1s.1,1.4.2,2.1h-4c-.2-.6-.3-1.3-.3-2.1ZM19.95,23.35c0-.7.1-1.4.2-2.1h3.7c.1.7.2,1.4.2,2.1s-.1,1.4-.2,2.1h-3.7c-.1-.7-.2-1.4-.2-2.1ZM22.05,16.65l.9,1.9c.2.5.4,1,.6,1.5h-3c.2-.5.4-1,.6-1.5l.9-1.9ZM29.65,23.35c0,.7-.1,1.5-.3,2.1h-4c.1-.7.2-1.4.2-2.1s-.1-1.4-.2-2.1h4c.2.8.3,1.4.3,2.1h0ZM23.45,26.95c-.2.5-.4,1-.6,1.5l-.8,1.7-.9-1.9c-.2-.5-.4-1-.6-1.5l2.9.2h0ZM28.75,19.95h-3.8c-.2-.7-.5-1.5-.8-2.1l-1-2c2.5.4,4.5,1.9,5.6,4.1ZM17.05,6.65c0-2.6,2.2-4.9,5-4.9s4.9,2.2,4.9,4.9-2.2,4.9-4.9,4.9-5-2.2-5-4.9ZM20.85,15.85l-1,2c-.3.7-.6,1.4-.8,2.1h-3.8c1.1-2.2,3.1-3.7,5.6-4.1ZM15.25,26.95h3.8c.2.7.5,1.5.8,2.1l1,2c-2.5-.5-4.5-2-5.6-4.1Z"/>
    <path class="cls-16" d="M25.45,6.65c0-.7-.4-1.3-1-1.7l-3.3-1.7c-.3-.1-.5-.2-.8-.2-1,0-1.9.8-1.9,1.9v3.3c0,1,.8,1.9,1.9,1.9.3,0,.6-.1.8-.2l3.3-1.8c.7-.2,1-.8,1-1.5ZM23.85,7.05l-3.3,1.7c-.3.1-.6-.1-.6-.4v-3.3c0-.2.2-.4.4-.4h.2l3.3,1.7c.1,0,.2.1.2.3s-.1.3-.2.4Z"/>
    <circle class="cls-12" cx="21.95" cy="42.85" r=".8"/>
    <path class="cls-14" d="M22.05,39.35c-1.6,0-2.9.8-3.8,2.1l-.2.4,1.1.8.2-.4c.6-.9,1.6-1.5,2.6-1.5,1.1,0,2.1.5,2.6,1.5l.4.4,1.2-.8-.2-.4c-1-1.3-2.4-2.1-3.9-2.1h0Z"/>
    <path class="cls-10" d="M22.05,36.65c-2,0-3.8.8-5.2,2.2l-.1.1,1,1,.1-.1c1.2-1.2,2.6-1.8,4.2-1.8s3.1.6,4.2,1.8l.1.1,1-1-.1-.1c-1.4-1.4-3.3-2.2-5.2-2.2h0Z"/>
    <path class="cls-13" d="M41.45,26.25c-.6,0-1.2.2-1.6.6h0c-.3-.1-.5-.4-.5-.7v-.2h.1c.8-.4,1.4-1.3,1.4-2.2,0-1.4-1.1-2.5-2.5-2.5-1.8,0-3.1,1.4-3.1,3.1v1c0,3.1,2.6,5.7,5.7,5.7,1.5,0,2.7-1.2,2.7-2.7-.1-1.1-1-2.1-2.2-2.1h0ZM40.85,29.65c-2.4,0-4.2-1.9-4.2-4.2v-1c0-1,.8-1.8,1.8-1.8.6,0,1,.5,1,1,0,.4-.2.8-.6.9l-.8.4v1.1c0,1.2,1,2.1,2.1,2.1h.3l.5-.5c.1-.1.4-.2.6-.2.4,0,.8.4.8.8-.1.8-.7,1.4-1.5,1.4h0Z"/>
    <path class="cls-3" d="M39.35,38.25l.5-.5c.6-.6.9-1.4.9-2.3,0-1.8-1.4-3.1-3.1-3.1h-2.1c-1.8,0-3.1,1.4-3.1,3.1,0,.9.3,1.7.9,2.3l.5.5c.1.7.4,1.3.8,1.7-.7.5-1.2,1.1-1.4,2l-.2,1.7h7.4l-.4-1.7c-.2-.8-.7-1.5-1.4-2,.3-.4.6-1,.7-1.7h0ZM35.65,33.85h2.1c1,0,1.8.8,1.8,1.8,0,.3-.1.6-.3.9-.2-.4-.6-.6-1-.7l-2-.5c-.2,0-.3-.1-.5-.1-.8,0-1.5.5-1.8,1.2-.1-.2-.2-.5-.2-.8.1-1,.9-1.8,1.9-1.8h0ZM38.45,42.25h-3.7c.3-.8,1-1.4,1.9-1.4s1.6.5,1.8,1.4ZM35.25,38.05v-.9c0-.3.2-.6.6-.6h.1l2,.5c.1,0,.2.1.2.3v.7c0,.8-.6,1.4-1.4,1.4-.8-.1-1.5-.7-1.5-1.4h0Z"/>
    <path class="cls-9" d="M11.35,36.65c-.5-.9-1.5-1.4-2.6-1.4s-2,.5-2.6,1.4c-1.7.2-3,1.7-3,3.4,0,1.2,1,2.1,2.1,2.1h7c1.2,0,2.1-1,2.1-2.1,0-1.8-1.4-3.2-3-3.4h0ZM12.25,40.85h-7c-.4,0-.7-.3-.7-.7,0-1.2,1-2.1,2.1-2.1h.4l.3-.5c.3-.5.8-.9,1.4-.9s1.1.3,1.4.9l.3.5h.4c1.2,0,2.1,1,2.1,2.1,0,.3-.3.7-.7.7h0Z"/>
    <path class="cls-8" d="M9.05,26.75c.7-.6,1.1-1.5,1.1-2.4,0-.8-.3-1.6-.9-2.2-.6-.6-1.4-.9-2.2-.9h-.1c-.6,0-1.2.2-1.7.5-.5-.3-1.1-.5-1.7-.5h-.1c-.8,0-1.6.3-2.2.9s-.9,1.4-.9,2.2c0,.9.4,1.8,1.1,2.4l3.8,3.1,3.8-3.1ZM1.75,24.35c0-.5.2-.9.5-1.2.3-.3.8-.5,1.2-.5h.1c.5,0,.9.2,1.2.5l.6.5.5-.5c.3-.3.8-.5,1.2-.5h0c.5,0,.9.2,1.2.5.3.3.5.8.5,1.2,0,.5-.2,1-.6,1.3l-2.8,2.4-2.9-2.5c-.5-.2-.7-.7-.7-1.2Z"/>
    <path class="cls-5" d="M3.15,7.35h1.4v1.4h-1.4v-1.4Z"/>
    <path class="cls-11" d="M6.05,7.35h1.4v1.4h-1.4v-1.4Z"/>
    <path class="cls-15" d="M8.75,7.35h1.4v1.4h-1.4v-1.4Z"/>
    <path class="cls-6" d="M1.75,11.55h2.9l.4,1.6c.2.7.8,1.2,1.6,1.2s1.4-.5,1.6-1.2l.4-1.6h2.9c.8,0,1.4-.6,1.4-1.4v-4.1c0-.8-.6-1.4-1.4-1.4H1.75c-.8,0-1.3.6-1.3,1.4v4.2c0,.7.5,1.3,1.3,1.3h0ZM1.75,6.05h9.7v4.2h-3.9l-.7,2.6c0,.2-.3.2-.4,0l-.7-2.7H1.75s0-4.1,0-4.1Z"/>
    <path class="cls-4" d="M39.35,5.75c-.1-.7-.7-1.2-1.4-1.2h-5.6c-.8,0-1.4.6-1.4,1.4v5.6c0,.8.6,1.4,1.4,1.4h5.6c.7,0,1.3-.5,1.4-1.2l4.2,1.5V4.35l-4.2,1.4ZM32.68,11.12l-.04-5.07h5.09c.04,1.68.07,3.36.11,5.05-1.72,0-3.43.01-5.15.02ZM42.25,11.35l-2.7-.9v-3.3l2.7-.9v5.1Z"/>
  </g>
</svg>