<?xml version="1.0" encoding="UTF-8"?>
<svg id="Layer_1" data-name="Layer 1" xmlns="http://www.w3.org/2000/svg" xmlns:xlink="http://www.w3.org/1999/xlink" viewBox="0 0 44 44">
  <defs>
    <style>
      .cls-1 {
        fill: url(#New_Gradient_Swatch);
        fill-rule: evenodd;
      }
    </style>
    <linearGradient id="New_Gradient_Swatch" data-name="New Gradient Swatch" x1="22" y1="2.85" x2="22" y2="41.15" gradientUnits="userSpaceOnUse">
      <stop offset="0" stop-color="#001a4f"/>
      <stop offset="1" stop-color="#75a9c8"/>
    </linearGradient>
  </defs>
  <path class="cls-1" d="M27.9,22.95l-1.1-.5c1.5-.9,2.9-2.2,3.5-3.7,1.1-3.1-1.4-5.6-3.8-7.2-.8-.6-2-.3-2.5.5-.1.1-.1.2-.2.3v-2.7c1.7-.9,3.6-2.7,7.7-1.8,3.5.7,5.7,7.2,12.5,10.3-3,1-8.6-.6-11.4-1.8.5,1.7,4.2,4.6,6.6,5.2-3,.5-6.8-.6-8.2-1.8-.1,1.7,1.8,4,3,4.7-1.8,0-5-.7-6.1-1.5h0ZM22.6,7.15c.9-.3,1.6-1.1,1.6-2.1,0-1.2-1-2.2-2.2-2.2s-2.2,1-2.2,2.2c0,1,.7,1.9,1.6,2.1v14.6c-3.1-1.3-4.9-2.6-5.4-3.9s.5-2.7,2.8-4.3c.3-.2.4-.6.2-.8-.2-.3-.6-.4-.8-.2-2.9,1.9-4,3.8-3.3,5.8.6,1.6,2.5,3.1,5.7,4.5-2.3,1.2-3.4,2.6-3.4,4.2s1.3,3.3,3.8,5.1c-1,.9-1.7,1.8-2.2,2.7-.6,1.2-.7,2.4-.3,3.6.1.3.4.5.7.4.3-.1.5-.4.4-.7-.3-1-.2-1.9.3-2.8.3-.7.8-1.3,1.5-2v7.2c0,.3.3.6.6.6s.6-.3.6-.6v-7.2c.5.5,1,1,1.3,1.7.5.9.8,2,.4,3.3-.1.3.1.7.4.8s.7-.1.8-.4c.5-1.6.2-3-.5-4.2-.5-.9-1.2-1.7-2-2.3,2.6-1.8,3.8-3.5,3.8-5.1,0-1.5-1.1-2.9-3.4-4.2,3.2-1.4,5.1-2.9,5.7-4.5.7-1.9-.4-3.8-3.3-5.8-.3-.2-.7-.1-.8.2-.2.3-.1.7.2.8,2.4,1.6,3.3,3,2.8,4.3s-2.3,2.6-5.4,3.9V7.15h0ZM22.6,23.65v7.1c2-1.4,3-2.7,3-3.9,0-1.1-1-2.1-3-3.2ZM21.4,30.85c-2-1.4-3-2.7-3-3.9,0-1.1,1-2.2,3-3.3v7.2ZM23.8,13.75v6.2c1.3-.7,2.7-1.6,3-2.4.4-1-1.7-2.5-2.4-2.9-.2-.3-.4-.6-.6-.9h0ZM20.2,19.95c-1.3-.7-2.7-1.6-3-2.4-.4-1,1.7-2.5,2.4-2.9.3-.2.6-.5.7-.9v6.2h-.1ZM20.2,12.35c0-.1-.1-.2-.2-.3-.6-.8-1.7-1.1-2.5-.5-2.4,1.6-4.9,4.1-3.8,7.2.6,1.5,2,2.7,3.5,3.7l-1.1.5c-1.1.9-4.3,1.5-6,1.5,1.2-.6,3.1-2.9,3-4.7-1.4,1.2-5.2,2.2-8.2,1.8,2.3-.6,6.1-3.5,6.6-5.2-2.9,1.2-8.5,2.8-11.5,1.8,6.8-3.1,9-9.6,12.5-10.3,4.1-.9,6,.9,7.7,1.8v2.7Z"/>
</svg>