<?xml version="1.0" encoding="UTF-8"?>
<svg id="Layer_1" data-name="Layer 1" xmlns="http://www.w3.org/2000/svg" xmlns:xlink="http://www.w3.org/1999/xlink" viewBox="0 0 44 44">
  <defs>
    <style>
      .cls-1 {
        fill: url(#New_Gradient_Swatch);
      }
    </style>
    <linearGradient id="New_Gradient_Swatch" data-name="New Gradient Swatch" x1="22" y1=".08" x2="22" y2="43.92" gradientUnits="userSpaceOnUse">
      <stop offset="0" stop-color="#001a4f"/>
      <stop offset="1" stop-color="#75a9c8"/>
    </linearGradient>
  </defs>
  <path class="cls-1" d="M30.8,37.42c-.4-.1-.7-.1-.9-.1-.7-.1-1-.1-1.8-.4-.3-.1-1.7-1.5-1.7-4.1,0-3.4.8-6.5,1.2-7.6,0,0,0-.1.1-.2.1-.2.5-1.5.5-1.5.2-.7.5-1.3.6-2h0c.2-1,1-4.7,1.1-9.9,0-.5-.4-1-.7-1.2l-.1-.1c-.2-.3-.6-.6-1-1.1-.2-.3-.5-.6-.8-.9l-1.5-1.5c-.8-.7-1.5-1.3-2-1.9-.8-1-1.5-2.7-1.4-4.1,0-.2,0-.4-.1-.5-.1-.2-.3-.2-.5-.2-.2-.1-.4,0-.5.1s-.2.3-.1.5c.1,1.4-.6,3.2-1.4,4.2-.5.7-1.2,1.2-1.8,1.8-.5.5-1,.9-1.5,1.5-.3.3-.6.6-.8.9-.4.4-.7.8-1,1.1l-.1.1c-.3.3-.7.7-.7,1.2.1,5.1.8,8.8,1.1,9.9h0c.2.7.4,1.4.6,2,0,0,.4,1.3.5,1.5,0,.1.1.2.1.2.4,1.1,1.2,4.2,1.2,7.6,0,2.7-1.4,4-1.7,4.1-.9.3-1.1.3-1.8.4-.2,0-.5.1-.9.1-4.3.5-4.8,2.6-4.8,3.5,0,.2.1,1,.7,1.7.5.6,1.5,1.4,3.5,1.4.3,0,.6,0,.9-.1,1.3-.1,2.6-.3,3.9-.6.5-.1.9-.1,1.4-.2.6-.1,1.7-.2,3.3-.2h.2c1.6,0,2.7.1,3.3.2.5.1.9.1,1.4.2,1.3.2,2.6.4,3.9.6.3,0,.6.1.9.1,1.9,0,3-.8,3.5-1.4.6-.7.7-1.5.7-1.7-.3-.8-.7-2.9-5-3.4ZM24.1,20.02h-.2c-.2-.1-.5-.5-.5-.6,1-.7,1.7-2,1.7-3.5,0-2.2-.2-4-3.3-4s-3.3,1.8-3.3,4c0,1.5.7,2.8,1.7,3.5,0,.1-.3.5-.5.6h-.2c-.6,0-1.4-1.4-1.7-2-.4-.9-.8-2.6-.9-5v-.1c0-.5.7-1.8.8-2,.1-.3,1.9-3,2.5-3.7.2-.2,1.1-1.5,1.6-2,.4.6,1.4,1.8,1.6,2,.5.6,2.3,3.4,2.5,3.7.1.2.9,1.5.8,2v.1c-.1,2.4-.5,4-.9,5-.3.6-1.1,2-1.7,2Z"/>
</svg>