<?xml version="1.0" encoding="UTF-8"?>
<svg id="Layer_1" data-name="Layer 1" xmlns="http://www.w3.org/2000/svg" xmlns:xlink="http://www.w3.org/1999/xlink" viewBox="0 0 44 44">
  <defs>
    <style>
      .cls-1 {
        fill: url(#New_Gradient_Swatch-4);
      }

      .cls-2 {
        fill: url(#New_Gradient_Swatch-5);
      }

      .cls-3 {
        fill: url(#New_Gradient_Swatch-2);
      }

      .cls-4 {
        fill: url(#New_Gradient_Swatch-6);
      }

      .cls-5 {
        fill: url(#New_Gradient_Swatch);
      }

      .cls-6 {
        fill: url(#New_Gradient_Swatch-3);
      }
    </style>
    <linearGradient id="New_Gradient_Swatch" data-name="New Gradient Swatch" x1="21.95" y1="14.46" x2="21.95" y2="32.86" gradientUnits="userSpaceOnUse">
      <stop offset="0" stop-color="#001a4f"/>
      <stop offset="1" stop-color="#75a9c8"/>
    </linearGradient>
    <linearGradient id="New_Gradient_Swatch-2" data-name="New Gradient Swatch" x1="21.69" y1="-.06" x2="21.69" y2="8.52" xlink:href="#New_Gradient_Swatch"/>
    <linearGradient id="New_Gradient_Swatch-3" data-name="New Gradient Swatch" x1="22" y1="11.26" x2="22" y2="26.16" xlink:href="#New_Gradient_Swatch"/>
    <linearGradient id="New_Gradient_Swatch-4" data-name="New Gradient Swatch" x1="22.1" y1="5.36" x2="22.1" y2="13.36" xlink:href="#New_Gradient_Swatch"/>
    <linearGradient id="New_Gradient_Swatch-5" data-name="New Gradient Swatch" x1="14.6" y1="27.96" x2="14.6" y2="43.96" xlink:href="#New_Gradient_Swatch"/>
    <linearGradient id="New_Gradient_Swatch-6" data-name="New Gradient Swatch" x1="30.8" y1="28.06" x2="30.8" y2="44.06" xlink:href="#New_Gradient_Swatch"/>
  </defs>
  <path class="cls-5" d="M10,25.16c2.4,1,4.8,1.6,7.3,2-.1.2-.3.5-.5.6l1.2,1.1,4,4c.9-.9,4.4-4.3,5.2-5.1-.3-.1-.5-.3-.6-.6,2.5-.4,5-1,7.3-2,.3-.1.5-.4.5-.7v-9.5c-.8-.1-1.6-.3-2.4-.5v2.8c.1,6.9-6.9,12.4-13.3,9.9-4.1-1.5-6.8-5.5-6.8-9.9v-2.4c-.8,0-1.8-.2-2.4-.3v10c0,.2.2.5.5.6h0Z"/>
  <path class="cls-3" d="M15,7.96c.1.4.6.6,1,.5h0c3.8-1.5,7.9-1.5,11.7,0,.4.2.9-.1,1-.5h0s2.1-6,1.3-7c-.5-.7-1.3-1.1-2.2-1h-12c-1.6,0-3,1.4-2.5,3l1.7,5ZM21.8,1.26c.4,0,.8.4.8.8v.6h.6c.4,0,.8.4.8.8s-.3.7-.6.8h-.8v.7c0,.4-.4.8-.8.8s-.8-.4-.8-.8v-.7h-.8c-.4-.1-.7-.5-.6-.9s.4-.6.8-.6h.6v-.7c0-.4.4-.8.8-.8Z"/>
  <path class="cls-6" d="M25.1,11.26c-3.3,2.9-7.5,3.6-11.6,3.6v2.4c-.1,3.6,2.1,6.9,5.5,8.3,5.5,2.3,11.6-2.3,11.5-8.3v-3c0-.2-4.8-2.7-5.4-3Z"/>
  <path class="cls-1" d="M12.2,13.16c4.1.2,9.1-.3,12.3-3.5.3-.3.7-.3,1-.1.8.8,6.6,3.6,9,3.8.3-3-.9-6-3.2-8l-1,3.2c-.4,1.3-1.8,1.9-3,1.5h-.1c-3.3-1.3-7-1.3-10.3-.1-.7.3-1.5.3-2.1,0-1-.4-2.2-4.4-2.2-4.4-2.1,1.8-3.2,4.6-2.9,7.3.5.1,1.6.2,2.5.3h0Z"/>
  <path class="cls-2" d="M21.5,34.66c-1.2-1.2-5.5-5.5-6.7-6.7-5.3.8-9.2,5.4-9.2,10.7v4.5c0,.5.4.8.8.8h17.2v-5.5c.1-1.5-.9-2.8-2.1-3.8h0ZM16.9,36.46c0,.4-.4.8-.8.8h-4.5c-.4,0-.8-.4-.8-.8s.4-.8.8-.8h4.5c.4,0,.8.4.8.8h0Z"/>
  <path class="cls-4" d="M35.2,31.06c-1.6-1.6-3.7-2.7-5.9-3,0,.1-6.1,6-6.1,6,1.3,1.1,2.1,2.8,2.1,4.5v5.5h12.3c.4,0,.8-.4.8-.8v-4.5c0-2.9-1.2-5.7-3.2-7.7Z"/>
</svg>