<?xml version="1.0" encoding="UTF-8"?>
<svg id="Layer_1" data-name="Layer 1" xmlns="http://www.w3.org/2000/svg" xmlns:xlink="http://www.w3.org/1999/xlink" viewBox="0 0 44 44">
  <defs>
    <style>
      .cls-1 {
        fill: url(#New_Gradient_Swatch-4);
      }

      .cls-2 {
        fill: url(#New_Gradient_Swatch-5);
      }

      .cls-3 {
        stroke: url(#New_Gradient_Swatch-17);
      }

      .cls-3, .cls-4, .cls-5, .cls-6, .cls-7, .cls-8, .cls-9, .cls-10 {
        fill: #fff;
      }

      .cls-3, .cls-5, .cls-6, .cls-7, .cls-8, .cls-9, .cls-10 {
        stroke-miterlimit: 10;
        stroke-width: .75px;
      }

      .cls-11 {
        fill: url(#New_Gradient_Swatch-2);
      }

      .cls-5 {
        stroke: url(#New_Gradient_Swatch-11);
      }

      .cls-12 {
        fill: url(#New_Gradient_Swatch-6);
      }

      .cls-6 {
        stroke: url(#New_Gradient_Swatch-15);
      }

      .cls-13 {
        fill: url(#New_Gradient_Swatch-7);
      }

      .cls-14 {
        fill: url(#New_Gradient_Swatch);
      }

      .cls-15 {
        fill: url(#New_Gradient_Swatch-8);
      }

      .cls-16 {
        fill: url(#New_Gradient_Swatch-3);
      }

      .cls-17 {
        fill: url(#New_Gradient_Swatch-10);
      }

      .cls-7 {
        stroke: url(#New_Gradient_Swatch-13);
      }

      .cls-8 {
        stroke: url(#New_Gradient_Swatch-16);
      }

      .cls-9 {
        stroke: url(#New_Gradient_Swatch-14);
      }

      .cls-18 {
        fill: url(#New_Gradient_Swatch-9);
      }

      .cls-10 {
        stroke: url(#New_Gradient_Swatch-12);
      }
    </style>
    <linearGradient id="New_Gradient_Swatch" data-name="New Gradient Swatch" x1="1.9" y1="22.53" x2="1.9" y2="22.78" gradientUnits="userSpaceOnUse">
      <stop offset="0" stop-color="#001a4f"/>
      <stop offset="1" stop-color="#75a9c8"/>
    </linearGradient>
    <linearGradient id="New_Gradient_Swatch-2" data-name="New Gradient Swatch" x1="11.1" y1="1.35" x2="11.1" y2="15.35" xlink:href="#New_Gradient_Swatch"/>
    <linearGradient id="New_Gradient_Swatch-3" data-name="New Gradient Swatch" x1="22.05" y1="3.55" x2="22.05" y2="42.75" xlink:href="#New_Gradient_Swatch"/>
    <linearGradient id="New_Gradient_Swatch-4" data-name="New Gradient Swatch" x1="24.85" y1="21.12" x2="24.85" y2="21.15" xlink:href="#New_Gradient_Swatch"/>
    <linearGradient id="New_Gradient_Swatch-5" data-name="New Gradient Swatch" x1="41.43" y1="16.76" x2="41.43" y2="17" xlink:href="#New_Gradient_Swatch"/>
    <linearGradient id="New_Gradient_Swatch-6" data-name="New Gradient Swatch" x1="41.65" y1="19.43" x2="41.65" y2="19.54" xlink:href="#New_Gradient_Swatch"/>
    <linearGradient id="New_Gradient_Swatch-7" data-name="New Gradient Swatch" x1="41.43" y1="16.76" x2="41.43" y2="17" xlink:href="#New_Gradient_Swatch"/>
    <linearGradient id="New_Gradient_Swatch-8" data-name="New Gradient Swatch" x1="41.65" y1="19.43" x2="41.65" y2="19.54" xlink:href="#New_Gradient_Swatch"/>
    <linearGradient id="New_Gradient_Swatch-9" data-name="New Gradient Swatch" x1="24.85" y1="21.12" x2="24.85" y2="21.15" xlink:href="#New_Gradient_Swatch"/>
    <linearGradient id="New_Gradient_Swatch-10" data-name="New Gradient Swatch" x1="24.85" y1="21.12" x2="24.85" y2="21.15" xlink:href="#New_Gradient_Swatch"/>
    <linearGradient id="New_Gradient_Swatch-11" data-name="New Gradient Swatch" x1="10.5" y1="9.47" x2="10.5" y2="13.12" xlink:href="#New_Gradient_Swatch"/>
    <linearGradient id="New_Gradient_Swatch-12" data-name="New Gradient Swatch" x1="8.4" y1="7.37" x2="8.4" y2="9.52" xlink:href="#New_Gradient_Swatch"/>
    <linearGradient id="New_Gradient_Swatch-13" data-name="New Gradient Swatch" x1="12.7" y1="7.37" x2="12.7" y2="9.52" xlink:href="#New_Gradient_Swatch"/>
    <linearGradient id="New_Gradient_Swatch-14" data-name="New Gradient Swatch" x1="37.7" y1="23.87" x2="37.7" y2="27.42" xlink:href="#New_Gradient_Swatch"/>
    <linearGradient id="New_Gradient_Swatch-15" data-name="New Gradient Swatch" x1="22" y1=".07" x2="22" y2="43.93" xlink:href="#New_Gradient_Swatch"/>
    <linearGradient id="New_Gradient_Swatch-16" data-name="New Gradient Swatch" x1="35.6" y1="21.67" x2="35.6" y2="23.82" xlink:href="#New_Gradient_Swatch"/>
    <linearGradient id="New_Gradient_Swatch-17" data-name="New Gradient Swatch" x1="39.9" y1="21.67" x2="39.9" y2="23.82" xlink:href="#New_Gradient_Swatch"/>
  </defs>
  <g>
    <path class="cls-14" d="M2.06,22.55c-.13.07-.24.15-.32.23.09-.1.18-.18.29-.25,0,.01.02.02.03.02Z"/>
    <ellipse class="cls-11" cx="11.1" cy="8.35" rx="5.3" ry="7"/>
    <path class="cls-16" d="M42.16,33.52c.22-.5.34-1.15.34-1.87,0-1.27-.39-2.35-.93-2.69.02-.13.03-.27.03-.41,0-.1,0-.2-.02-.29.55-.22.92-.64.92-1.11,0-.12-.02-.23-.07-.33.41-.8.67-1.92.67-3.17,0-.6-.06-1.18-.17-1.7h0c.05-.36.07-.72.07-1.1,0-1.95-.6-3.59-1.41-4,0,.03,0,.07,0,.1,0,.02,0,.03,0,.05-.1-.09-.21-.16-.33-.24.12,0,.23.03.33.09-.11-.95-1.76-1.7-3.79-1.7-.21,0-.42.01-.62.03-.09-.02-.19-.03-.28-.03-.31,0-.62.07-.91.22-.01,0-.02.01-.02.01-1.18.3-1.97.89-1.97,1.57,0,.07.01.14.03.2-.34.33-.53.71-.53,1.1,0,.17.04.34.11.5-.33,1.05-.51,2.29-.51,3.6,0,1.19.15,2.3.42,3.29-.74-.12-1.56-.19-2.42-.19-.14,0-.27,0-.41,0,.01-.03.01-.07.01-.11,0-.45-.27-.83-.64-.95.15-.6.24-1.26.24-1.95,0-2.09-.79-3.9-1.92-4.71.02-.1.02-.19.02-.29,0-.06,0-.12-.01-.18.16.05.33.08.51.08,1.16,0,2.1-1.12,2.1-2.5s-.94-2.5-2.1-2.5c-1.02,0-1.87.87-2.06,2.02-.02-.01-.04-.02-.06-.03.5-1.12.82-2.8.82-4.69,0-.27,0-.54-.02-.8h.02c.61,0,1.1-1.12,1.1-2.5s-.49-2.5-1.1-2.5c-.36,0-.68.39-.88,1-.39-.82-.88-1.3-1.42-1.3-.11,0-.23.02-.34.07-.11-.05-.24-.07-.36-.07-.88,0-1.6,1.21-1.6,2.7,0,.41.05.8.16,1.15-.1.7-.16,1.45-.16,2.25,0,1.7.26,3.24.68,4.34-1.33.52-2.28,1.87-2.28,3.46,0,.28.03.55.09.82-1.69.11-2.99.91-2.99,1.88,0,.17.04.34.12.5-.39.04-.77.1-1.13.16.01-.05.01-.11.01-.16,0-.86-.33-1.63-.84-2.12-.17-.82-.73-1.41-1.35-1.38-.17.01-.33.07-.48.16-.95-.7-2.67-1.16-4.63-1.16-2.98,0-5.4,1.07-5.4,2.4,0,.18.04.36.13.53-.67.18-1.13.55-1.13.97,0,.1.03.2.08.29-1.39.21-2.38.76-2.38,1.41,0,.28.19.55.53.78,0,.01.02.02.03.02-.13.07-.24.15-.32.23-.04.04-.07.08-.1.11-.4.45-.64,1.02-.64,1.66,0,.59.2,1.13.54,1.56-.15.16-.24.35-.24.54,0,.58.78,1.07,1.87,1.23-.05.41-.07.84-.07,1.27,0,1.35.22,2.63.63,3.79-.42.3-.73,1.26-.73,2.41,0,.49.05.94.15,1.32-.03.19-.05.38-.05.58,0,.6.16,1.18.47,1.72-.29.37-.47.86-.47,1.38,0,1.22.94,2.2,2.1,2.2.5,0,.96-.19,1.32-.49.25.12.55.19.88.19.37,0,.7-.09.96-.23.71.15,1.46.23,2.24.23,1.32,0,2.56-.23,3.63-.63.4.44,1.13.73,1.97.73,1.27,0,2.3-.67,2.3-1.5,0-.24-.09-.47-.25-.67.35-1.18.55-2.77.55-4.53,0-1.88-.24-3.58-.63-4.78.09-.56.13-1.13.13-1.72,0-.82-.08-1.61-.24-2.37.76.11,1.58.17,2.44.17,1.62,0,3.11-.21,4.34-.58.13.2.29.37.45.52-.44.34-.69.74-.69,1.16,0,.67.64,1.28,1.68,1.74-.06.11-.08.23-.08.36,0,.61.58,1.12,1.36,1.25.17.78.82,1.43,1.71,1.81-.05.11-.07.22-.07.34,0,.42.25.78.63,1-.15.51-.23,1.05-.23,1.6,0,1.32.44,2.55,1.21,3.56-.14.28-.21.6-.21.94,0,1.16.9,2.1,2,2.1.6,0,1.14-.28,1.51-.72.66.21,1.36.32,2.09.32.63,0,1.23-.08,1.81-.25.49.35,1.16.55,1.89.55,1.49,0,2.7-.85,2.7-1.9,0-.53-.31-1.01-.8-1.34.64-.95,1-2.06,1-3.26,0-.94-.22-1.83-.64-2.63ZM41.68,19.43s.01.07,0,.11c-.02-.03-.05-.04-.07-.05.03-.02.05-.04.07-.06ZM24.79,21.14s.02-.01.03-.02c.03.01.05.01.08.03-.04,0-.07,0-.11,0Z"/>
    <path class="cls-1" d="M24.9,21.15s-.07,0-.11,0c.01,0,.02-.01.03-.02.03.01.05.01.08.03Z"/>
    <path class="cls-2" d="M41.6,16.95s0,.03,0,.05c-.1-.09-.21-.16-.33-.24.12,0,.23.03.33.09,0,.03,0,.07,0,.1Z"/>
    <path class="cls-12" d="M41.68,19.43s.01.07,0,.11c-.02-.03-.05-.04-.07-.05.03-.02.05-.04.07-.06Z"/>
    <path class="cls-13" d="M41.59,16.85s0,.07,0,.1c0,.02,0,.03,0,.05-.1-.09-.21-.16-.33-.24.12,0,.23.03.33.09Z"/>
    <path class="cls-15" d="M41.68,19.43s.01.07,0,.11c-.02-.03-.05-.04-.07-.05.03-.02.05-.04.07-.06Z"/>
    <path class="cls-18" d="M24.9,21.15s-.07,0-.11,0c.01,0,.02-.01.03-.02.03.01.05.01.08.03Z"/>
    <path class="cls-17" d="M24.9,21.15s-.07,0-.11,0c.01,0,.02-.01.03-.02.03.01.05.01.08.03Z"/>
    <g>
      <path class="cls-5" d="M9.1,12.75h.7c1.2,0,2.1-1,2.1-2.1v-.8h-1.5v.7c0,.4-.3.7-.7.7h-.6v1.5Z"/>
      <circle class="cls-10" cx="8.4" cy="8.45" r=".7"/>
      <circle class="cls-7" cx="12.7" cy="8.45" r=".7"/>
      <path class="cls-9" d="M37.7,24.85c0,.4-.3.7-.7.7h-.7v1.5h.7c1.2,0,2.1-1,2.1-2.1v-.7h-1.5v.6h.1Z"/>
      <path class="cls-6" d="M39.2,14.15h-2.8c-2.3,0-4.3,2-4.3,4.3v6.4l-1.5-1.8-.7-3.4h0l-.4-1.5,1.4-.6c.3-.1.5-.4.5-.7v-2.8c0-.1,0-.3-.1-.4l-1.5-2.1c-.1-.2-.4-.3-.6-.3h-1.5v-.2l.3-.1c1.3-1.7,2-3.6,2-5.7,0-.7-.4-1.3-1-1.6h0c-.4-.2-.9-.2-1.4-.1-.3-1.1-1.4-1.8-2.4-1.5l-.5.1c-2.1.3-3.6,2.2-3.3,4.3h0l.7,4.1h0l.6,3.2-.8.4c-.3.1-.5.3-.5.5l-.7,2.6-2,1.8-4.7-2.6-.4-1.2c1.7-1.1,2.6-2.8,2.6-4.8v-5c0-2.7-2.2-5-5-5h-1.4c-2.7,0-5,2.2-5,5v5c0,2,1,3.8,2.6,4.8l-.4,1.2-4.7,2.6c-1.2.7-1.9,1.9-1.9,3.2v4.8c0,.2.1.5.3.6l1.3.8v14.4c0,.4.3.7.7.7h16.5c.4,0,.7-.3.7-.7v-14.4h2.1c.3,0,.5-.1.6-.4l1.4-2.5.9,4.5c0,.1.1.2.2.3l3.4,4.1,1.4,8.4c.1.4.4.6.7.6h12.2c.4,0,.7-.3.7-.7v-12.8c0-.3-.2-.6-.5-.7l-1-.4c1.1-1.1,1.6-2.4,1.6-4v-6.4c-.1-2.4-2.1-4.3-4.4-4.3ZM33.4,18.45c0-1.6,1.3-2.8,2.8-2.8h2.8c1.6,0,2.8,1.3,2.8,2.8v.7h-2.1c-1.4,0-2.6-1-2.9-2.3-.1-.4-.5-.6-.9-.5-.3.1-.5.3-.5.5v.1c-.3,1.1-1.1,1.9-2.1,2.1.1,0,.1-.6.1-.6ZM28.7,12.75l1.1,1.7v2.1l-.8.3-1-4.1h.7ZM23.5,10.45l-.7-4.1c-.2-1.4.7-2.5,2.1-2.8l.5-.1c.4-.1.8.2.9.6v.8c-.9.6-1.5,1.7-1.5,2.7v.6h1.5v-.6c0-.7.4-1.4,1.1-1.7.1-.1.2-.2.3-.3l.3-.6s.2-.1.3,0h0c.1.1.2.2.2.3-.1,1.8-.7,3.5-1.7,4.9l-.4.5c-.1.2-.2.4-.1.6l2.1,8.4-2.9,1.7-.3-1.4,1.5-.7c.2-.1.4-.4.4-.7v-3.6c0-.3-.2-.5-.4-.7l-1.5-.7c-.2-.1-.3-.1-.5-.1l-.7.2-.5-3.2ZM21.8,18.25c.1-.1.2-.2.2-.4l.6-2.4,2.1-.6.8.4v2.7l-2.4,1.3c-.1,0-.2.1-.2.2l-9.1,11.2h-2.3l-3.5-1.7,2.1-3.8,2.2,1.2c.3.1.6.1.8-.1l8.7-8ZM9.8,2.05h1.5c1.2,0,2.1.5,2.8,1.5-.8,1.4-2.2,2.1-3.8,2.1h-4c0-2.1,1.5-3.6,3.5-3.6ZM6.3,10.65v-3.6h4c1.8,0,3.4-.8,4.5-2.1,0,.2.1.4.1.7v5c0,2.3-2,4.3-4.3,4.3s-4.3-2-4.3-4.3ZM10.6,16.25c.6,0,1.2-.1,1.8-.3l.3.8-1.1,1.1-.1.1-.9,1.3-.9-1.3-.1-.1-1.1-1.1.3-.8c.5.2,1.1.3,1.8.3ZM2,22.35c0-.8.4-1.5,1.1-1.9l4.4-2.5,1,1,1.4,2c.2.3.7.4,1,.2q.1-.1.2-.2l1.4-2.1,1-1,4,2.2-5,4.6-2.5-1-2.8-1.5-.7,1.3,2.1,1.1-2.8,5.1-4.1-2.9v-4.3h.3v-.1ZM18.4,42.05H3.4v-12.6l2.4,1.8c.3.2.8.2,1-.2v-.1l.6-.8,3.6,1.9c.1.1.2.1.3.1h2.8c.2,0,.4-.1.6-.3l2.7-3.3h1.1l-.1,13.5h0ZM21.6,27.05h-3l5.3-6.5.3,1.5-.3.2c-.3.2-.4.5-.4.8l.1.5-2,3.5ZM42,42.05h-10.8l-1.4-8c0-.1-.1-.2-.2-.3l-3.4-4.2-1.3-6.4,3.7-2.1.5,2.6c0,.1.1.2.2.3l4.3,5h0c1.8,1.9,4.6,2.2,6.8,1l1.6.5v11.6ZM37.7,29.15c-2.3,0-4.3-2-4.3-4.3v-4.4c1.2-.2,2.2-.9,2.8-1.9.9,1.2,2.2,1.9,3.6,1.9h2.1v4.3c.1,2.6-1.7,4.4-4.2,4.4Z"/>
      <circle class="cls-8" cx="35.6" cy="22.75" r=".7"/>
      <circle class="cls-3" cx="39.9" cy="22.75" r=".7"/>
    </g>
  </g>
  <circle class="cls-4" cx="8.5" cy="8.45" r=".5"/>
  <circle class="cls-4" cx="12.7" cy="8.45" r=".5"/>
  <circle class="cls-4" cx="35.7" cy="22.75" r=".5"/>
  <circle class="cls-4" cx="39.9" cy="22.75" r=".5"/>
</svg>