<?xml version="1.0" encoding="UTF-8"?>
<svg id="Layer_1" data-name="Layer 1" xmlns="http://www.w3.org/2000/svg" xmlns:xlink="http://www.w3.org/1999/xlink" viewBox="0 0 44 44">
  <defs>
    <style>
      .cls-1 {
        fill: #fff;
      }

      .cls-2 {
        fill: url(#New_Gradient_Swatch-2);
      }

      .cls-3 {
        fill: url(#New_Gradient_Swatch);
      }
    </style>
    <linearGradient id="New_Gradient_Swatch" data-name="New Gradient Swatch" x1="12.65" y1="1.05" x2="12.65" y2="6.05" gradientUnits="userSpaceOnUse">
      <stop offset="0" stop-color="#001a4f"/>
      <stop offset="1" stop-color="#75a9c8"/>
    </linearGradient>
    <linearGradient id="New_Gradient_Swatch-2" data-name="New Gradient Swatch" x1="21.65" y1="6.45" x2="21.65" y2="43.35" xlink:href="#New_Gradient_Swatch"/>
  </defs>
  <rect class="cls-3" x="4" y="1.05" width="17.3" height="5"/>
  <path class="cls-2" d="M43,36.95v4.9h-.7v.2h-.6v1.2h-1v.1h-13.7v-.8h-2v-.7h-2v.5h-1.85c-1.03.64-2.24,1-3.55,1H7.1c-3.8,0-6.8-3-6.8-6.8v-18.5h5.6v-.1H1.2v-1.7h.4l3.1-3.1h1.2v-6.7h13.2v6.2h.9v.5h.2c1.26,1.26,1.95,1.95,3.1,3.1h.6v1.7h-4.8v.1h5.4v7.4h3.7v.8h.7v.6h.7v1.3h.7v3.3h-.9v1.2h-.5v.5h-.7v2.6h13.3v.8h.8v.4h.7Z"/>
  <path class="cls-1" d="M19.2,25.15h-4.2v-4.1c0-.3-.3-.6-.6-.6h-3.8c-.3,0-.6.3-.6.6v4.1h-4.1c-.3,0-.6.3-.6.6v3.8c0,.3.3.6.6.6h4.1v4.1c0,.3.3.6.6.6h3.8c.3,0,.6-.3.6-.6v-4.1h4.1c.3,0,.6-.3.6-.6v-3.8c.1-.3-.2-.6-.5-.6ZM18.6,28.95h-4.1c-.3,0-.6.3-.6.6v4.1h-2.6v-4.1c0-.3-.3-.6-.6-.6h-4.2v-2.6h4.1c.3,0,.6-.3.6-.6v-4.1h2.6v4.1c0,.3.3.6.6.6h4.1l.1,2.6h0ZM39.4,34.85h-10.9l1.9-3.2c1.3-2.2.5-5-1.7-6.3h0c-1.1-.7-2.5-.8-3.6-.4v-8.1c0-.2-.1-.4-.2-.5l-4.9-3.9v-5.4c1.1-.1,2-1,2-2.1v-2.8c-.1-1.1-1-2.1-2.2-2.1H5.2C4,.05,3.1,1.05,3.1,2.15v2.8c0,1.1.9,2,2,2.1v5.5L.3,16.35C.1,16.45,0,16.65,0,16.75v21.6C0,41.35,2.4,43.75,5.4,43.75h14.2c.6,0,1.2-.1,1.8-.3,1.1-.2,2.2-.7,2.9-1.6.8,1.3,2.3,2.1,3.9,2.1h11.2c2.5,0,4.6-2.1,4.6-4.6,0-2.5-2.1-4.5-4.6-4.5h0ZM26.4,25.85c.6,0,1.2.1,1.7.5,1.6.9,2.2,3,1.2,4.7l-2.5,4.3-5.9-3.4,2.5-4.3c.6-1.2,1.8-1.8,3-1.8h0ZM22.4,26.95l-5.6,9.6H1.2v-17.8h22.6v6.7c-.5.4-1.1.9-1.4,1.5ZM18.8,8.75H6.3v-1.7h12.5v1.7ZM4.3,4.95v-2.8c0-.5.4-.9.9-.9h14.6c.5,0,.9.4.9.9v2.8c0,.5-.4.9-.9.9H5.2c-.5,0-.9-.4-.9-.9ZM6,13.25c.1-.1.2-.3.2-.5v-2.8h12.5v2.8c0,.2.1.4.2.5l4.8,3.8v.4H1.2v-.4l4.8-3.8ZM1.2,38.35v-.6h15.1c-.4,1.8.2,3.7,1.7,4.8H5.4c-2.3.1-4.2-1.8-4.2-4.2ZM19.1,41.85c-1.6-.9-2.2-3-1.2-4.7l2.5-4.3,5.9,3.4-2.5,4.3c-1,1.7-3.1,2.3-4.7,1.3ZM25.1,40.75l2.7-4.7h5.4v6.8h-5c-1.4,0-2.6-.9-3.1-2.1h0ZM39.4,42.85h-5v-6.8h5c1.9,0,3.4,1.5,3.4,3.4,0,1.8-1.5,3.4-3.4,3.4ZM6.3,4.65h-1.2v-2.2h1.2v2.2ZM9,4.65h-1.2v-2.2h1.2v2.2ZM11.8,4.65h-1.2v-2.2h1.2v2.2ZM14.5,4.65h-1.2v-2.2h1.2v2.2ZM17.2,4.65h-1.2v-2.2h1.2v2.2ZM20,4.65h-1.2v-2.2h1.2v2.2Z"/>
</svg>