<?xml version="1.0" encoding="UTF-8"?>
<svg id="Layer_1" data-name="Layer 1" xmlns="http://www.w3.org/2000/svg" xmlns:xlink="http://www.w3.org/1999/xlink" viewBox="0 0 44 44">
  <defs>
    <style>
      .cls-1 {
        fill: url(#New_Gradient_Swatch-4);
      }

      .cls-2 {
        fill: url(#New_Gradient_Swatch-5);
      }

      .cls-3 {
        fill: url(#New_Gradient_Swatch-2);
      }

      .cls-4 {
        fill: url(#New_Gradient_Swatch-6);
      }

      .cls-5 {
        fill: url(#New_Gradient_Swatch-11);
      }

      .cls-6 {
        fill: url(#New_Gradient_Swatch-7);
      }

      .cls-7 {
        fill: url(#New_Gradient_Swatch);
      }

      .cls-8 {
        fill: url(#New_Gradient_Swatch-8);
      }

      .cls-9 {
        fill: url(#New_Gradient_Swatch-3);
      }

      .cls-10 {
        fill: url(#New_Gradient_Swatch-10);
      }

      .cls-11 {
        fill: url(#New_Gradient_Swatch-9);
      }
    </style>
    <linearGradient id="New_Gradient_Swatch" data-name="New Gradient Swatch" x1="21.9" y1="38.4" x2="21.9" y2="43.5" gradientUnits="userSpaceOnUse">
      <stop offset="0" stop-color="#001a4f"/>
      <stop offset="1" stop-color="#75a9c8"/>
    </linearGradient>
    <linearGradient id="New_Gradient_Swatch-2" data-name="New Gradient Swatch" x1="27" x2="27" xlink:href="#New_Gradient_Swatch"/>
    <linearGradient id="New_Gradient_Swatch-3" data-name="New Gradient Swatch" x1="24.4" y1=".5" x2="24.4" y2="7.7" xlink:href="#New_Gradient_Swatch"/>
    <linearGradient id="New_Gradient_Swatch-4" data-name="New Gradient Swatch" x1="28" y1="23.7" x2="28" y2="28.3" xlink:href="#New_Gradient_Swatch"/>
    <linearGradient id="New_Gradient_Swatch-5" data-name="New Gradient Swatch" x1="36.35" y1="23.5" x2="36.35" y2="24.3" xlink:href="#New_Gradient_Swatch"/>
    <linearGradient id="New_Gradient_Swatch-6" data-name="New Gradient Swatch" x1="3.9" y1="24.1" x2="3.9" y2="31.3" xlink:href="#New_Gradient_Swatch"/>
    <linearGradient id="New_Gradient_Swatch-7" data-name="New Gradient Swatch" x1="20.4" y1="21" x2="20.4" y2="23.4" xlink:href="#New_Gradient_Swatch"/>
    <linearGradient id="New_Gradient_Swatch-8" data-name="New Gradient Swatch" x1="23.8" y1="19" x2="23.8" y2="33" xlink:href="#New_Gradient_Swatch"/>
    <linearGradient id="New_Gradient_Swatch-9" data-name="New Gradient Swatch" x1="34.4" y1="29.3" x2="34.4" y2="33" xlink:href="#New_Gradient_Swatch"/>
    <linearGradient id="New_Gradient_Swatch-10" data-name="New Gradient Swatch" x1="22" y1="33.9" x2="22" y2="43.4" xlink:href="#New_Gradient_Swatch"/>
    <linearGradient id="New_Gradient_Swatch-11" data-name="New Gradient Swatch" x1="25.74" y1="8.8" x2="25.74" y2="22.84" xlink:href="#New_Gradient_Swatch"/>
  </defs>
  <path class="cls-7" d="M19.8,41.4c0,1.2.9,2.1,2.1,2.1s2.1-.9,2.1-2.1v-3h-4.2v3h0Z"/>
  <path class="cls-3" d="M24.9,41.4c0,1.2.9,2.1,2.1,2.1s2.1-.9,2.1-2.1v-3h-4.2v3h0Z"/>
  <circle class="cls-9" cx="24.4" cy="4.1" r="3.6"/>
  <path class="cls-1" d="M24.7,28.1h2.1c.3,0,.7.1,1,.2h3.5l-.9-4.6h-.7l-5,4.4Z"/>
  <path class="cls-2" d="M34.9,23.6c.1.1.5.7,1.4.7.6,0,1.1-.3,1.5-.8-.2.1-.5.1-.8.1h-2.1Z"/>
  <circle class="cls-4" cx="3.9" cy="27.7" r="3.6"/>
  <g>
    <path class="cls-6" d="M21.3,23.4l1.1-1-3.5-1.4-.5,2.4h2.9Z"/>
    <path class="cls-8" d="M37,19h-8.4c-.3,0-.6.1-.9.2.8.7,1.1,1.9.7,2.9-.6,1.3-2.1,2-3.4,1.4l-1.6-.7-1.7,1.5h-10.8c-1.1,0-2.1.9-2.1,2.1v4.5c0,1.1.9,2.1,2.1,2.1h7.4l-4-2.3,3.8,1.3c.2.1.4.1.6.1h8.1c.9,0,1.6-.7,1.6-1.6s-.7-1.6-1.6-1.6h-7.8l-3.5-1.3,3.2.4h4.6l6-5.4h7.7c1,0,1.8-.8,1.8-1.8s-.8-1.8-1.8-1.8h0Z"/>
  </g>
  <path class="cls-11" d="M40.3,29.3h-11.4c.2.4.3.8.3,1.2,0,1.4-1.1,2.5-2.5,2.5h13.6c1,0,1.8-.8,1.8-1.8.1-1-.7-1.9-1.8-1.9h0Z"/>
  <path class="cls-10" d="M42.4,33.9H1.8c-1,0-1.7.8-1.7,1.7s.8,1.7,1.7,1.7h.6v4.4c0,1,.8,1.7,1.7,1.7s1.7-.8,1.7-1.7v-4.4h32.4v4.4c0,1,.8,1.7,1.7,1.7s1.7-.8,1.7-1.7v-4.4h.6c1,0,1.7-.8,1.7-1.7s-.6-1.7-1.5-1.7h0Z"/>
  <path class="cls-5" d="M17.4,13.3l.4,5.2c0,.7.5,1.2,1.1,1.5l6.5,2.7c.9.4,1.9-.1,2.3-.9.4-.9,0-1.9-.9-2.3l-5.7-2.3-.3-4.1.9,3.4,5,2.1c.5-.4,1.1-.6,1.8-.6h.7l-.5-2.5.9,2.5h4.5l-1.1-1.1c-.7-2-1.2-3.5-1.6-4.6-.8-2.3-2.2-3.5-4-3.5h-5.9c-2.4,0-4.3,2.1-4.1,4.5h0Z"/>
</svg>