<?xml version="1.0" encoding="UTF-8"?>
<svg id="Layer_1" data-name="Layer 1" xmlns="http://www.w3.org/2000/svg" xmlns:xlink="http://www.w3.org/1999/xlink" viewBox="0 0 44 44">
  <defs>
    <style>
      .cls-1 {
        fill: url(#New_Gradient_Swatch);
        fill-rule: evenodd;
      }
    </style>
    <linearGradient id="New_Gradient_Swatch" data-name="New Gradient Swatch" x1="22" y1=".05" x2="22" y2="43.95" gradientUnits="userSpaceOnUse">
      <stop offset="0" stop-color="#001a4f"/>
      <stop offset="1" stop-color="#75a9c8"/>
    </linearGradient>
  </defs>
  <path class="cls-1" d="M28.5,18.05v-1.3h-3.5c-.2,0-.4-.2-.4-.4s.2-.4.4-.4h3.5v-4.4h-3.5c-.2,0-.4-.2-.4-.4s.2-.4.4-.4h3.5v-5h-13v12.3h13ZM34.5,20.05c-.2.9.3,1.8,1.2,2.1s1.8-.3,2.1-1.2c.2-.9-.3-1.8-1.2-2.1-.9-.2-1.8.3-2.1,1.2ZM37.7,26.85c-.4,1.5.5,3.1,2,3.5s3.1-.5,3.5-2-.5-3.1-2-3.5c-1.6-.4-3.1.5-3.5,2ZM38.4,13.95c-.3,1.2.4,2.4,1.6,2.7,1.2.3,2.4-.4,2.7-1.6s-.4-2.4-1.6-2.7c-1.1-.3-2.3.4-2.7,1.6h0ZM9.5,22.75c.2-.9-.3-1.8-1.2-2.1s-1.8.3-2.1,1.2c-.2.9.3,1.8,1.2,2.1.9.3,1.8-.3,2.1-1.2ZM6.3,15.95c.4-1.5-.5-3.1-2-3.5s-3.1.5-3.5,2,.5,3.1,2,3.5c1.6.4,3.1-.5,3.5-2ZM5.6,28.85c.3-1.2-.4-2.4-1.6-2.7-1.2-.3-2.4.4-2.7,1.6s.4,2.4,1.6,2.7c1.1.3,2.3-.4,2.7-1.6ZM29.1,4.85h-14.2c-1.3,0-2.4-1.1-2.4-2.4h0C12.5,1.15,13.6.05,14.9.05h14.3c1.3,0,2.4,1.1,2.4,2.4h0c-.1,1.4-1.2,2.4-2.5,2.4h0ZM22,43.95c3.6,0,6.5-2.9,6.5-6.5v-4.9h-3.5c-.2,0-.4-.2-.4-.4s.2-.4.4-.4h3.5v-4.4h-3.5c-.2,0-.4-.2-.4-.4s.2-.4.4-.4h3.5v-4.4h-3.5c-.2,0-.4-.2-.4-.4s.2-.4.4-.4h3.5v-2.2h-13v18.6c0,3.3,2.9,6.2,6.5,6.2h0Z"/>
</svg>