<?xml version="1.0" encoding="UTF-8"?>
<svg id="Layer_1" data-name="Layer 1" xmlns="http://www.w3.org/2000/svg" xmlns:xlink="http://www.w3.org/1999/xlink" viewBox="0 0 44 44">
  <defs>
    <style>
      .cls-1 {
        fill: url(#New_Gradient_Swatch);
      }
    </style>
    <linearGradient id="New_Gradient_Swatch" data-name="New Gradient Swatch" x1="22" y1="-.1" x2="22" y2="44.1" gradientUnits="userSpaceOnUse">
      <stop offset="0" stop-color="#001a4f"/>
      <stop offset="1" stop-color="#75a9c8"/>
    </linearGradient>
  </defs>
  <path class="cls-1" d="M26.9,22.1c-1,.9-2,2.2-2.9,3.9-.9-3.3-2.1-5.7-3.2-7.5C26.1.6,0-.1,0-.1,0-.1.8,22.2,14.4,21.7c0-1.5-.3-3-.6-4.4-.2-.9-.5-1.8-.7-2.6-.9-2.7-1.9-4.6-1.9-4.6,1,1.3,1.9,2.6,2.6,3.8,2.7,4.1,4.1,7.3,4.8,9,1.7,3.6,3.2,9.5,3.2,19.2,0,1.1.9,2,2,2s2-.9,2-2c0-3.1-.2-5.9-.4-8.4.6-3,1.6-5.2,2.6-6.7.6-1.2,1.8-3.4,3.5-5.5,1.4-1.9,3.2-3.9,5.2-5.3,0,0-4.1,4.5-4.4,9,11.3.5,11.7-17.3,11.7-17.3,0,0-20.7.7-17.1,14.2Z"/>
</svg>