<?xml version="1.0" encoding="UTF-8"?>
<svg id="Layer_1" data-name="Layer 1" xmlns="http://www.w3.org/2000/svg" xmlns:xlink="http://www.w3.org/1999/xlink" viewBox="0 0 44 44">
  <defs>
    <style>
      .cls-1 {
        fill: url(#New_Gradient_Swatch);
      }
    </style>
    <linearGradient id="New_Gradient_Swatch" data-name="New Gradient Swatch" x1="22" y1="0" x2="22" y2="44" gradientUnits="userSpaceOnUse">
      <stop offset="0" stop-color="#001a4f"/>
      <stop offset="1" stop-color="#75a9c8"/>
    </linearGradient>
  </defs>
  <path class="cls-1" d="M40.65,6.9h-3.5V2.6c-.1-1.4-1.2-2.6-2.7-2.6h-4.9c-1.5,0-2.6,1.2-2.6,2.6v4.3h-3.5c-1.8,0-3.3,1.5-3.3,3.3v10.8c2.7-.3,5.2,1.4,5.3,4.3,0,.5.1,13-.1,13.2-.1.6-.3,1.1-.6,1.6h15.9c1.8,0,3.3-1.5,3.3-3.3V10.2c-.1-1.8-1.5-3.3-3.3-3.3h0ZM37.05,13.2v20.6c0,.4-.4.8-.8.8s-.8-.4-.8-.8V13.2c0-.4.4-.8.8-.8.5,0,.8.3.8.8h0ZM32.75,13.2v20.6c0,.4-.4.8-.8.8s-.8-.4-.8-.8V13.2c0-.4.4-.8.8-.8.5,0,.8.3.8.8h0ZM28.55,13.2v20.6c0,.4-.4.8-.8.8s-.8-.4-.8-.8V13.2c0-.4.4-.8.8-.8s.7.3.8.8h0ZM28.55,5.7v-3.1c0-.6.5-1,1-1h4.9c.6,0,1,.5,1,1v4.3h-7v-1.2h.1ZM28.85,41.2c0,1.2-1,2.1-2.2,2.1h-.9c-1.2,0-2.2-1-2.2-2.1h5.3ZM40.45,41.2c0,1.2-1,2.1-2.2,2.1h-.9c-1.2,0-2.2-.9-2.2-2.1h5.3ZM23.75,37.8v-12.5c0-1.5-1.2-2.7-2.7-2.7h-2.6v-1.6c.2-1.3-.7-2.5-2-2.7H7.65c-1.3,0-2.3,1-2.3,2.3v2h-2.6c-1.5,0-2.7,1.2-2.7,2.7v12.5c0,1.5,1.2,2.7,2.7,2.7h18.4c1.4,0,2.6-1.2,2.6-2.7h0ZM18.05,37.6c-.4,0-.8-.4-.8-.8v-10.6c0-.4.4-.8.8-.8s.8.4.8.8v10.7c0,.4-.4.7-.8.7ZM11.85,37.6c-.4,0-.8-.4-.8-.8v-10.6c0-.4.4-.8.8-.8s.8.4.8.8v10.7c0,.4-.3.7-.8.7q.1,0,0,0ZM5.75,37.6c-.4,0-.8-.3-.8-.8h0v-10.6c0-.4.4-.8.8-.8s.8.4.8.8v10.7c0,.4-.3.7-.8.7ZM6.95,20.5c0-.4.3-.7.8-.7h8.5c.7,0,.8.6.7,1.2v1.6H6.95v-2.1ZM8.75,42.1c-.1,1.1-1.1,1.9-2.2,1.9h-.9c-1.1,0-2.1-.8-2.2-1.9h5.3ZM20.35,42.1c-.1,1.1-1.1,1.9-2.2,1.9h-.9c-1.1,0-2.1-.8-2.2-1.9h5.3Z"/>
</svg>