<?xml version="1.0" encoding="UTF-8"?>
<svg id="Layer_1" data-name="Layer 1" xmlns="http://www.w3.org/2000/svg" xmlns:xlink="http://www.w3.org/1999/xlink" viewBox="0 0 44 44">
  <defs>
    <style>
      .cls-1 {
        fill: #4d91ff;
      }

      .cls-2 {
        stroke: url(#New_Gradient_Swatch-5);
      }

      .cls-2, .cls-3, .cls-4, .cls-5, .cls-6, .cls-7, .cls-8, .cls-9, .cls-10, .cls-11, .cls-12, .cls-13 {
        fill: none;
        stroke-linecap: round;
        stroke-linejoin: round;
        stroke-width: 2.67px;
      }

      .cls-14 {
        fill: url(#New_Gradient_Swatch-13);
      }

      .cls-15 {
        fill: url(#New_Gradient_Swatch-18);
      }

      .cls-3 {
        stroke: url(#New_Gradient_Swatch-10);
      }

      .cls-16 {
        fill: url(#New_Gradient_Swatch-14);
      }

      .cls-17 {
        fill: url(#New_Gradient_Swatch-19);
      }

      .cls-4 {
        stroke: url(#New_Gradient_Swatch);
      }

      .cls-5 {
        stroke: url(#New_Gradient_Swatch-12);
      }

      .cls-6 {
        stroke: url(#New_Gradient_Swatch-11);
      }

      .cls-7 {
        stroke: url(#New_Gradient_Swatch-7);
      }

      .cls-8 {
        stroke: url(#New_Gradient_Swatch-2);
      }

      .cls-18 {
        fill: url(#New_Gradient_Swatch-16);
      }

      .cls-19 {
        fill: url(#New_Gradient_Swatch-17);
      }

      .cls-9 {
        stroke: url(#New_Gradient_Swatch-3);
      }

      .cls-10 {
        stroke: url(#New_Gradient_Swatch-4);
      }

      .cls-11 {
        stroke: url(#New_Gradient_Swatch-9);
      }

      .cls-12 {
        stroke: url(#New_Gradient_Swatch-8);
      }

      .cls-13 {
        stroke: url(#New_Gradient_Swatch-6);
      }

      .cls-20 {
        fill: url(#New_Gradient_Swatch-15);
      }
    </style>
    <linearGradient id="New_Gradient_Swatch" data-name="New Gradient Swatch" x1="34.68" y1="8.22" x2="34.68" y2="17.95" gradientUnits="userSpaceOnUse">
      <stop offset="0" stop-color="#001a4f"/>
      <stop offset="1" stop-color="#75a9c8"/>
    </linearGradient>
    <linearGradient id="New_Gradient_Swatch-2" data-name="New Gradient Swatch" x1="28.93" y1="1.72" x2="28.93" y2="10.79" xlink:href="#New_Gradient_Swatch"/>
    <linearGradient id="New_Gradient_Swatch-3" data-name="New Gradient Swatch" x1="36.15" y1="-1.05" x2="36.15" y2="11.61" xlink:href="#New_Gradient_Swatch"/>
    <linearGradient id="New_Gradient_Swatch-4" data-name="New Gradient Swatch" x1="20.95" y1="4.94" x2="20.95" y2="17.99" xlink:href="#New_Gradient_Swatch"/>
    <linearGradient id="New_Gradient_Swatch-5" data-name="New Gradient Swatch" x1="18.4" y1="10.4" x2="18.4" y2="18" xlink:href="#New_Gradient_Swatch"/>
    <linearGradient id="New_Gradient_Swatch-6" data-name="New Gradient Swatch" x1="9.17" y1="5.01" x2="9.17" y2="17.97" xlink:href="#New_Gradient_Swatch"/>
    <linearGradient id="New_Gradient_Swatch-7" data-name="New Gradient Swatch" x1="10.53" y1="10.37" x2="10.53" y2="17.97" xlink:href="#New_Gradient_Swatch"/>
    <linearGradient id="New_Gradient_Swatch-8" data-name="New Gradient Swatch" x1="22.04" y1="33.83" x2="22.04" y2="39.69" xlink:href="#New_Gradient_Swatch"/>
    <linearGradient id="New_Gradient_Swatch-9" data-name="New Gradient Swatch" x1="20.6" y1="18.75" x2="20.6" y2="36.75" xlink:href="#New_Gradient_Swatch"/>
    <linearGradient id="New_Gradient_Swatch-10" data-name="New Gradient Swatch" x1="38.64" y1="18.76" x2="38.64" y2="29.43" xlink:href="#New_Gradient_Swatch"/>
    <linearGradient id="New_Gradient_Swatch-11" data-name="New Gradient Swatch" x1="12.96" y1="21.84" x2="12.96" y2="33.57" xlink:href="#New_Gradient_Swatch"/>
    <linearGradient id="New_Gradient_Swatch-12" data-name="New Gradient Swatch" x1="22.04" y1="15.31" x2="22.04" y2="21.44" xlink:href="#New_Gradient_Swatch"/>
    <linearGradient id="New_Gradient_Swatch-13" data-name="New Gradient Swatch" x1="14.72" y1="36.29" x2="29.6" y2="36.29" xlink:href="#New_Gradient_Swatch"/>
    <linearGradient id="New_Gradient_Swatch-14" data-name="New Gradient Swatch" x1="6.44" y1="36.51" x2="18.14" y2="36.51" xlink:href="#New_Gradient_Swatch"/>
    <linearGradient id="New_Gradient_Swatch-15" data-name="New Gradient Swatch" x1="6.44" y1="39.91" x2="21.04" y2="39.91" xlink:href="#New_Gradient_Swatch"/>
    <linearGradient id="New_Gradient_Swatch-16" data-name="New Gradient Swatch" x1="17.36" y1="34.99" x2="29.68" y2="34.99" gradientTransform="translate(31.6 -6.39) rotate(44.96)" xlink:href="#New_Gradient_Swatch"/>
    <linearGradient id="New_Gradient_Swatch-17" data-name="New Gradient Swatch" x1="14.82" y1="36.51" x2="29.24" y2="36.51" xlink:href="#New_Gradient_Swatch"/>
    <linearGradient id="New_Gradient_Swatch-18" data-name="New Gradient Swatch" x1="23.54" y1="40.91" x2="23.54" y2="29.11" xlink:href="#New_Gradient_Swatch"/>
    <linearGradient id="New_Gradient_Swatch-19" data-name="New Gradient Swatch" x1="11.29" y1="36.11" x2="11.29" y2="36.91" xlink:href="#New_Gradient_Swatch"/>
  </defs>
  <g id="g1719">
    <g id="g1721">
      <g id="g1723">
        <g id="g1729">
          <path id="path1731" class="cls-4" d="M38.41,9.55c-1.47,1.2-2.93,2.4-4.4,3.73-1.07.93-2.13,2.13-3.07,3.33"/>
        </g>
        <g id="g1733">
          <path id="path1735" class="cls-8" d="M25.93,9.45c.8-.67,1.47-1.33,2.13-2,1.33-1.47,2.67-2.93,3.87-4.4"/>
        </g>
        <g id="g1737">
          <path id="path1739" class="cls-9" d="M31.55,2.68l7.2,7.2c.53.53,1.47.53,2,0s.53-1.47,0-2l-7.2-7.2c-.53-.53-1.47-.53-2,0-.53.53-.53,1.47,0,2Z"/>
        </g>
        <g id="g1741">
          <path id="path1743" class="cls-10" d="M16.06,8.92c2.4-2.4,5.87-3.2,8.93-2.27.27.13.4.27.53.53.8,3.07.13,6.53-2.4,9.07-.13.13-.27.27-.4.4"/>
        </g>
        <g id="g1745">
          <path id="path1747" class="cls-2" d="M21.06,11.73l-5.33,4.93"/>
        </g>
        <g id="g1749">
          <path id="path1751" class="cls-13" d="M15.44,16.64c.27-2.67-.53-5.47-2.67-7.6-2.4-2.4-5.87-3.2-9.07-2.4-.27.13-.4.27-.53.53-.8,3.07-.13,6.53,2.4,9.07l.4.4"/>
        </g>
        <g id="g1753">
          <path id="path1755" class="cls-7" d="M13.2,16.64l-5.33-4.93"/>
        </g>
        <g id="g1757">
          <path id="path1759" class="cls-12" d="M28.57,35.16v.93c0,1.33-1.07,2.27-2.27,2.27h-8.53c-1.33,0-2.27-1.07-2.27-2.27v-.93"/>
        </g>
        <g id="g1761">
          <path id="path1763" class="cls-11" d="M36.53,30.35c-2.4,3.07-6.27,5.07-10.53,5.07h-7.87c-7.47,0-13.47-6-13.47-13.47v-1.87"/>
        </g>
        <g id="g1765">
          <path id="path1767" class="cls-3" d="M39.37,20.1v1.87c0,2.13-.53,4.27-1.47,6.13"/>
        </g>
        <g id="g1769">
          <path id="path1771" class="cls-6" d="M7.83,23.17c.67,5.2,4.93,9.07,10.27,9.07"/>
        </g>
        <g id="g1773">
          <path id="path1775" class="cls-5" d="M4.7,20.11h34.67c.93,0,1.73-.8,1.73-1.73s-.8-1.73-1.73-1.73H4.7c-.93,0-1.73.8-1.73,1.73s.8,1.73,1.73,1.73Z"/>
        </g>
      </g>
    </g>
  </g>
  <g>
    <path class="cls-1" d="M21.84,40.81c-.5-.1-1.3-.3-2-.9-.3-.2-.4-.4-.5-.5-2-2.2-3.2-4.5-3.3-6h-.4c-4.4,0-9.2,1.4-9.2,3.2v3.6c.7.6,3.6,3.2,8,3.2,3.9-.1,6.6-2,7.4-2.6Z"/>
    <path class="cls-14" d="M25.74,32.71c-3.1-3.1-6.7-4.7-8-3.4l-2.6,2.6c-1.2,1.3.3,4.8,3.4,8,3.1,3.1,6.7,4.6,8,3.4h0l2.6-2.6c1.3-1.2-.2-4.8-3.4-8Z"/>
    <path class="cls-16" d="M14.84,33.31h-.4c-4.4,0-8,1.4-8,3.2s3.6,3.2,8,3.2c1.4,0,2.6-.1,3.7-.4-2-2.2-3.2-4.5-3.3-6Z"/>
    <path class="cls-20" d="M18.64,39.91c-.2-.2-.3-.4-.5-.5-1.1.2-2.4.3-3.7.3-4.4,0-8-1.4-8-3.2v3.6c0,1.8,3.6,3.2,8,3.2,2.8,0,5.2-.6,6.6-1.4h0c-.8-.6-1.6-1.3-2.4-2Z"/>
    <ellipse class="cls-18" cx="23.52" cy="34.99" rx="3.2" ry="8.1" transform="translate(-17.85 26.85) rotate(-44.96)"/>
    <g>
      <path class="cls-19" d="M21.24,37.31c-3.1-3.1-4.7-6.7-3.4-8l-2.6,2.6c-1.2,1.3.3,4.8,3.4,8,3.1,3.1,6.7,4.6,8,3.4h0l2.6-2.6c-1.3,1.3-4.9-.3-8-3.4Z"/>
      <path class="cls-15" d="M18.14,29.11c-.1.1-.2.1-.3.2-.1.1-.2.2-.2.3l11.3,11.3c.1-.1.2-.1.3-.2.1-.1.2-.2.2-.3l-11.3-11.3Z"/>
    </g>
    <path class="cls-17" d="M16.24,36.81c-.2-.2-.3-.5-.4-.7H6.44c0,.1-.1.3-.1.4s0,.3.1.4h9.6s.1,0,.2-.1Z"/>
  </g>
</svg>