<?xml version="1.0" encoding="UTF-8"?>
<svg id="Layer_1" data-name="Layer 1" xmlns="http://www.w3.org/2000/svg" xmlns:xlink="http://www.w3.org/1999/xlink" viewBox="0 0 44 44">
  <defs>
    <style>
      .cls-1 {
        fill: url(#New_Gradient_Swatch);
      }
    </style>
    <linearGradient id="New_Gradient_Swatch" data-name="New Gradient Swatch" x1="22" y1=".04" x2="22" y2="43.96" gradientUnits="userSpaceOnUse">
      <stop offset="0" stop-color="#001a4f"/>
      <stop offset="1" stop-color="#75a9c8"/>
    </linearGradient>
  </defs>
  <path class="cls-1" d="M31.1,19.66c-6.7,0-12.1,5.4-12.1,12.1s5.4,12.2,12.1,12.2,12.1-5.4,12.1-12.1-5.4-12.2-12.1-12.2ZM32,25.76c.4-1.4,1.4-2.3,2.4-2s1.5,1.6,1.1,3-1.4,2.3-2.4,2-1.5-1.7-1.1-3ZM27.8,23.76c1-.3,2.1.6,2.4,2,.4,1.4-.2,2.7-1.1,3-1,.3-2.1-.6-2.4-2-.4-1.4.1-2.7,1.1-3ZM22.9,30.26c-.4-1.4.2-2.7,1.1-3,1-.3,2.1.6,2.4,2s-.2,2.7-1.1,3c-1,.3-2.1-.6-2.4-2ZM34.6,39.36c-.9,0-1.9-.5-2.5-1-.6-.4-1.4-.4-2,0-.7.5-1.6,1-2.5,1-1,0-1.8-.8-1.8-1.8,0-3.6,2.8-7.3,5.3-7.3s5.3,3.6,5.3,7.3c0,1.1-.7,1.8-1.8,1.8ZM36.9,32.26c-1-.3-1.5-1.6-1.1-3s1.4-2.3,2.4-2,1.5,1.6,1.1,3c-.3,1.4-1.4,2.3-2.4,2ZM35.2,7.06c-.3.3-.7.4-1.1.4s-.8-.1-1.1-.4l-1.2-1.2-1.6,1.6-2.1-2.1,1.6-1.6-1.2-1.2c-.6-.6-.6-1.6,0-2.1s1.6-.6,2.1,0l4.6,4.5c.6.6.6,1.5,0,2.1h0ZM32.2,14.66c-.6.6-1.6.6-2.1,0l-1.5-1.5L11.6,30.06c-.1.1-.3.2-.5.2h-4.2l-4.2,4.2c-.4.4-1.2.4-1.6,0s-.4-1.2,0-1.6l4.2-4.2v-4.1c0-.2.1-.4.2-.5l3.5-3.5,1.5,1.5c.4.4,1.2.4,1.6,0s.4-1.2,0-1.6l-1.5-1.5,2.9-2.9,1.5,1.5c.4.4,1.2.4,1.6,0s.4-1.2,0-1.6l-1.5-1.5,2.9-2.9,1.5,1.5c.4.4,1.2.4,1.6,0s.4-1.2,0-1.6l-1.5-1.5,2.7-2.7-1.5-1.5c-1.4-1.4.7-3.5,2.1-2.1l9.1,9.1c.8.4.8,1.3.2,1.9Z"/>
</svg>