<?xml version="1.0" encoding="UTF-8"?>
<svg id="Layer_1" data-name="Layer 1" xmlns="http://www.w3.org/2000/svg" xmlns:xlink="http://www.w3.org/1999/xlink" viewBox="0 0 44 44">
  <defs>
    <style>
      .cls-1 {
        fill: url(#New_Gradient_Swatch);
        fill-rule: evenodd;
      }
    </style>
    <linearGradient id="New_Gradient_Swatch" data-name="New Gradient Swatch" x1="22" y1="0" x2="22" y2="44" gradientUnits="userSpaceOnUse">
      <stop offset="0" stop-color="#001a4f"/>
      <stop offset="1" stop-color="#75a9c8"/>
    </linearGradient>
  </defs>
  <path class="cls-1" d="M26.4,21.8c-1.3-2.2-3.8-3.2-6.1-2.6l3.6,3.6-.9,3.1-3,.8-3.6-3.6c-.4,1.4-.2,2.9.5,4.2,2.1,3.7,3.7.9,6,4.8l.5.9c1.9-.3,3.7-1,5.1-2.2l-.9-1.5c-2.2-3.8.9-3.8-1.2-7.5h0ZM5.5,10.1l1.1,1.8.9,1.4h-3.9l.9-1.4,1-1.8ZM7.7,22v-8h-1.4v8h1.4ZM3.4,14v8h1.4v-8h-1.4ZM38.8,6.7v5.3l1.1.9c.2.2.3.4.3.6h0v6.5c0,.4-.3.8-.8.8-.2,0-.4-.1-.5-.2l-.9-.7-.9.7c-.3.3-.8.2-1.1-.1-.1-.1-.2-.3-.2-.5h0v-6.5c0-.3.1-.5.3-.6l1-.8v-4.9l1.2-.3c.2-.1.3-.1.5-.2h0ZM10.7,14.4l11.3,2.4,11.3-2.3v-6.2l-10.9,3.2c-.3.1-.6.1-.9,0l-10.8-3.2v6.1ZM21.8,10.8h.4l16-4.6c.4-.1.6-.5.5-.9-.1-.3-.3-.5-.5-.5L22.2,0h-.4L5.8,4.7c-.4.1-.6.5-.5.9.1.3.3.5.6.5l15.9,4.7ZM43.2,25.6h-2.7c-.4,0-.7.3-.8.7-.2,1.2-.6,2.3-1,3.4-.5,1.1-1,2.2-1.7,3.2-.2.3-.2.7.1,1h0l1.9,1.9-4,4-1.9-1.9c-.3-.3-.7-.3-1-.1-1,.7-2.1,1.2-3.2,1.7s-2.3.8-3.5,1c-.4.1-.6.4-.6.8h0v2.7h-5.6v-2.7c0-.4-.3-.7-.7-.8-1.2-.2-2.3-.6-3.4-1-1.1-.5-2.2-1-3.2-1.7-.3-.2-.7-.2-1,.1h0l-1.9,1.9-4-4,1.9-1.9c.3-.3.3-.7.1-1-.7-1-1.2-2.1-1.7-3.2s-.8-2.3-1-3.5c-.1-.4-.4-.6-.8-.6H.8v-2.1h9.3c.2,3,1.5,5.7,3.5,7.7,2.2,2.2,5.1,3.5,8.4,3.5s6.3-1.3,8.4-3.5c2-2,3.3-4.7,3.5-7.7h9.3v2.1Z"/>
</svg>